<svg version="1.2" xmlns="http://www.w3.org/2000/svg" viewBox="0 0 256 256" width="256" height="256"><style>.a{opacity:.5}</style><path fill-rule="evenodd" class="a" d="m218 128c0 49.7-40.3 90-90 90-49.7 0-90-40.3-90-90 0-49.7 40.3-90 90-90 49.7 0 90 40.3 90 90zm-90-85.6c-18.5 0-35.6 5.9-49.6 15.8-0.2 0.4-0.3 0.9-0.4 1.6 0 0.5-0.4 0.7-1.4 1.2-1.5 0.7-1.7 0.9-1.8 1.9-0.1 0.7-0.3 0.9-0.8 1.4-1 0.7-2.4 2.2-2.7 2.8-0.3 0.5-0.2 1.3 0.2 1.5 0.3 0.1 0.7-0.2 2.7-1.7l1-0.8 0.6 0.3c0.3 0.2 0.6 0.4 0.6 0.5-0.1 0.3-3.1 2.7-4.5 3.6-0.7 0.4-1.6 1-2.1 1.3-0.6 0.4-1.1 1-1.9 2.2-1.2 1.8-1.3 2.2-0.9 3.4 0.4 1.2 0.4 1.4-0.7 1.9-0.5 0.2-1.1 0.6-1.2 0.8-0.4 0.5-0.3 0.6 1.8 3.1 2.1 2.4 2.4 2.5 5.2 2.4l2.2-0.2 3.2-1.3c1.7-0.8 3.4-1.6 3.7-1.8 0.4-0.3 1.4-1.2 2.3-2 1.7-1.7 4.2-3.2 5.3-3.2 0.6 0 6.8 1.5 7 1.7 0.2 0.2-3.6 2.3-4.4 2.5l-0.6 0.1-0.2 1.7c-0.1 1.5-0.1 1.7 0.2 2 0.4 0.4 0.4 0.5 3.5-2.1 1.3-1 2.4-1.8 2.6-1.8 0.7 0 1.3 0.4 1.5 1 0.1 0.3 0.4 0.7 0.6 1 0.3 0.4 0.4 0.5 2 0.5h1.7l1.4-2.2c0.8-1.2 1.7-2.4 2-2.7 0.5-0.6 3-1.9 3.5-1.9 0.2 0 0.6 0.2 1 0.6 0.6 0.4 0.8 0.5 1.1 0.3 0.4-0.3 1-0.1 1.2 0.4 0.2 0.3 0.1 0.4-0.5 1-0.5 0.5-0.9 0.7-1.1 0.6-1.2-0.5-1.2-0.5-1.9-0.1-0.3 0.2-0.6 0.5-0.6 0.6 0 0.2 0.2 0.5 0.5 0.8 0.3 0.3 0.6 0.6 0.6 0.7 0 0.1-0.4 0.5-0.8 0.9-0.9 0.9-0.9 1.6 0 2.3 0.6 0.5 1 0.6 1.8 0.3 0.5-0.2 0.6-0.2 1.2 0.2 0.4 0.3 0.8 0.5 0.8 0.5 0.1 0 0.2 0.2 0.1 0.4 0 0.3-0.5 0.5-2.6 1.4-2.2 0.8-2.6 1-2.6 1.4q-0.2 1.1 2.2 0.4c1.7-0.5 2.2-0.3 2.7 0.9 0.4 1.1 0.7 1.1 2 0.3 1.5-0.9 1.7-1 1.5-1.8 0-0.6 0-0.7 0.4-0.9 0.4-0.2 0.5-0.1 1.4 0.6 0.6 0.4 1.4 1.2 1.9 1.7 1 1 1.2 1 2.7-0.2 1.2-1.1 1.9-1 2.5 0.1 0.2 0.4 0.1 0.4-1.9 1.5-0.8 0.5-1.9 1.2-2.4 1.6-1.4 1.2-1.5 1.2-2.8 1-1.8-0.3-2.2-0.2-3.7 0.6l-1.5 0.8-1.6-0.3-1.6-0.4-0.9 0.5-0.9 0.6v1.7l-0.1 1.8 0.7 0.8c1.2 1.5 1.2 1.3 0.8 1.9-0.2 0.4-0.5 0.7-0.9 0.8-1.5 0.4-1.7 0.5-2.1 1.5-0.3 0.6-0.5 1.1-0.5 1.2 0 0.4 0.9 1.8 1.3 2.2 0.3 0.3 0.4 0.4 0.3 0.9-0.2 0.7 0.2 3.7 0.4 3.7 0.1 0 0.5-0.3 1-0.6 0.9-0.5 0.5-0.6 5.1 0.3 1.3 0.3 2.6 0.5 2.7 0.6 0.2 0.1 0.6 0.9 0.9 1.9 0.3 1 0.7 1.9 0.8 2 0.2 0.3 0.3 0.3 3.1-0.7l2.2-0.8 1.8 0.2c1 0.1 2.5 0.2 3.2 0.3h1.4l0.8-1.2c0.5-0.6 1-1.2 1.1-1.2 0.3-0.1 2.3 0.6 2.6 0.9 0.1 0.1 0.1 0.5-0.1 0.9-0.3 0.8-0.2 1.2 0.5 2 0.5 0.5 0.7 0.5 1.2-0.3 0.4-0.6 0.4-0.6 0.1-1.4-0.4-1-0.4-1 1.2-1.5l1.1-0.4 2.1 0.4c1.2 0.3 2.2 0.5 2.3 0.6 0.1 0.1 0.1 0.5-0.1 0.8-0.3 0.8-0.2 0.9 0.6 1.3 0.5 0.3 1.1 0.4 3.2 0.4h2.5l1 0.7c0.5 0.4 1.3 1 1.8 1.3 1 0.7 4.6 1.9 7.9 2.6 2.8 0.6 3.2 0.6 3.7 0.2 0.1-0.2 0.3-0.4 0.3-0.6 0-0.5-2.2-4.1-2.5-4.1-0.1 0-0.5-0.3-0.9-0.7-0.7-0.6-0.8-0.6-2.4-0.7-1.5-0.1-1.7-0.1-2.3-0.6-0.4-0.3-0.7-0.6-0.6-0.8 0-0.1 0-0.4-0.2-0.7-0.3-0.7-0.3-1 0.2-1.6 0.4-0.4 0.5-0.5 0.7-0.3 0.1 0.2 0.5 0.3 1.3 0.3 1.2 0 1.2 0 2-0.8 0.6-0.7 0.8-1 0.6-1.1-0.4-0.5-1.9-0.9-6.4-1.5l-4.6-0.7-4.9-1.6-5-1.6-3-2.6c-1.7-1.4-3-2.7-3.1-2.8-0.1-0.6 0.4-1.5 1.5-2.4 1.2-1 1.5-1.1 3.6-0.8 0.8 0.2 1.1 0.3 2 1.2 0.6 0.6 1.1 1 1.2 1 0.1 0 0.4-0.2 0.6-0.5l0.5-0.6 0.6 0.4c0.6 0.5 0.7 0.8 0.1 2-0.6 1.3-0.4 1.6 1.1 2.2 1.5 0.5 1.8 0.6 3.8 0.1 1.8-0.5 1.8-0.5 3.9-2 1.2-0.8 1.7-1.2 1.7-1.5 0-0.5-0.4-0.7-1.7-1-1.6-0.3-2-0.7-3.1-2.8l-1-1.9 1-1c0.6-0.6 1.3-1.3 1.7-1.5 0.7-0.4 0.8-0.8 0.3-1.7-0.1-0.4-0.3-1-0.3-1.2 0-0.5 0.5-1.5 0.7-1.5 0 0 0.5 0.5 1.1 1.1 0.9 1 1.1 1.1 1.4 0.9 0.2-0.1 0.4-0.5 0.5-0.8 0.1-0.8-0.4-4.1-0.8-4.9-0.3-0.6-0.3-0.6 0.2-1.1 0.2-0.2 0.5-0.4 0.6-0.3 0.1 0 0.4 0.7 0.7 1.4 0.6 1.6 2.4 4.6 2.8 4.8 0.3 0.1 0.8 0.5 1.3 0.9 0.5 0.3 1 0.7 1.2 0.7 0.1 0.1 1 0 2-0.1 1.6-0.1 1.8-0.1 3.2 0.4 1.3 0.4 1.7 0.6 2.8 1.7 1.5 1.3 1.7 1.3 3.3 0.9 1-0.3 1-0.3 1.4 0 0.3 0.3 0.7 0.4 2.6 0.4 2.4 0.1 2.1 0.2 6.7-1.8 1.8-0.7 2.1-1 2.9-1.8 0.5-0.5 0.8-1.1 0.8-1.2 0-0.4-1-1.5-1.3-1.5-0.2 0-1.3 0.6-2.5 1.5l-2.2 1.5h-3l-3 0.1-2-0.8c-1.7-0.8-2.1-1.1-2.8-1.9-0.5-0.5-0.9-1.1-0.9-1.2 0-0.6-0.5-1.6-0.7-1.6-0.2 0-0.5 0.4-0.8 0.8l-0.5 0.7-1.4-1.4c-0.9-0.9-1.6-1.8-1.9-2.4-0.4-0.9-0.4-0.9-0.1-1.6 0.3-0.6 0.5-0.7 3-1.8 2.6-1.2 2.6-1.2 3.2-2.1 0.2-0.5 0.6-1 0.7-1 0.3 0 3.7 2.1 3.7 2.3 0 0.1-0.8 0.5-1.8 1-2.5 1.1-2.5 1.3-0.1 2.8 1.4 0.9 3.6 1.8 4.3 1.8 0.1 0 0.5-0.4 1-0.8l0.9-0.8 2.2 0.5c2.7 0.7 2.6 0.7 4.6-1.2l1.4-1.4v-1.6c0-2.7 0.5-2.7 1.5 0 0.5 1.4 0.6 1.6 0.6 3.8v2.3l2 0.6c1 0.3 2.1 0.6 2.3 0.6 0.4 0 0.4-0.1 1.2 3.1 0.4 1.4 0.5 2.7 0.7 6 0.3 5.8-0.1 5.2 4.7 6.8l3.8 1.2 2.5-0.3 2.4-0.4 1 0.5c0.6 0.3 1.1 0.5 1.2 0.3-1.9-5.9-4.4-11.6-7.5-16.9-0.2 0.1-0.4 0.2-0.4 0.3-0.1 0.2-0.2 0.3-0.3 0.3-0.3 0-5.8-6.3-6.2-7.1-0.2-0.3-0.4-0.9-0.4-1.3-0.1-0.6-0.1-0.7 0.3-1 0.2-0.2 0.5-0.4 0.6-0.6-9.3-11.8-21.6-21.1-35.7-26.8l-0.7 0.3c-2.1 0.9-1.9 0.9-3.6-0.9l-1.4-1.4c-8.2-2.7-17-4.1-26.1-4.1zm36 19.2q0.1 0 0.2 0c0.5 0.1 2.4 2.2 2.4 2.6 0 0.2-0.2 0.4-0.4 0.6-0.3 0.1-0.5 0.3-0.5 0.3-0.2 0-3.2-2.2-3.2-2.3 0-0.1 0.3-0.4 0.7-0.7q0.5-0.5 0.8-0.5zm-7.4 0.8q0.2 0 0.5 0c0.8 0 0.9 0 2.5 1.3 2.6 2.1 3.4 3 3.4 3.5 0 0.3 0.5 1.2 1.2 2.3 2.1 3.1 2.5 4.1 2 5.1-0.1 0.2-0.3 0.3-0.4 0.3-0.5 0-2.9-2.1-3.5-3.1-0.6-0.8-0.9-1-3.1-2.2-1.4-0.7-2.8-1.6-3.2-1.9-0.9-0.7-0.9-0.7-1.8-0.5-0.6 0.2-0.8 0.1-1.6-0.2-1-0.6-2.3-2-2.3-2.5 0-0.2 0.3-0.5 0.5-0.5 2.3-0.7 2.7-0.7 3.5-0.5 0.4 0.1 0.5 0.1 1.1-0.5 0.5-0.4 0.7-0.6 1.2-0.6zm18.4 4.8c0.6 0 1.4 0.4 1.9 0.9 0.7 0.8 2.4 3.8 3.2 5.5 0.7 1.5 0.8 1.9 0.7 2.9 0 0.7 0 1.4-0.1 1.7-0.1 0.8-0.9 0.8-2 0.1-1.6-0.9-1.6-0.9-2.3-4.4-0.1-0.4-0.3-1-0.6-1.3-0.4-0.5-2.1-3.1-2.1-3.3 0-0.1 0.2-0.6 0.4-1.1 0.3-0.9 0.4-1 0.9-1zm-35.8 4.8c0.7 0 1.4 0.6 2.6 1.7 0.9 0.8 1 1.3 0.3 1.6-0.3 0.2-0.7 0.3-0.8 0.3-0.3 0-3.5-2.3-3.5-2.5 0-0.1 0.2-0.4 0.4-0.6q0.5-0.5 1-0.5zm-40.6 0c0.4 0 0.9 0.9 0.9 1.4 0 0.6-1.2 2-1.9 2.2-0.4 0.2-0.9 0.4-1.2 0.6-0.3 0.2-0.7 0.3-0.8 0.3-0.4 0-1.8-0.9-2.2-1.4-0.7-1-0.5-1.1 2.1-1.8 1.6-0.4 2.3-0.7 2.5-0.9 0.1-0.2 0.4-0.4 0.6-0.4zm27.4 0.1q0.1 0 0.2 0c0.5 0.1 1.4 1.6 1.4 2.3 0 0.3-0.2 0.7-0.6 1.1-0.7 0.8-1.2 0.8-1.6 0.1-0.3-0.5-0.4-0.8-0.3-1.8 0.1-1.2 0.4-1.7 0.9-1.7zm-4 3c0.2 0 0.3 0 0.4 0.1 0.7 0.3 0.8 1 0.4 1.7l-0.4 0.6 0.4 1c0.4 1 0.4 1.1 0.1 1.6-0.5 1.1-1.6 2.2-2.6 2.6-1.1 0.5-1.3 0.5-1.8 0.1-0.7-0.4-1-0.7-1-1.2 0-0.7-0.3-0.8-1.5-0.4-1.3 0.4-1.2 0.4-1.8-0.1-0.5-0.6-0.5-0.8 0.2-1.1 0.3-0.1 1.1-0.7 1.7-1.2 0.6-0.6 1.2-1 1.2-1 0 0 0.5 0.2 1 0.4 0.6 0.3 1.1 0.5 1.3 0.4 0.1 0 0.3-0.4 0.4-0.9 0.1-0.5 0.5-1.1 1.1-1.7 0.5-0.6 0.7-0.8 0.9-0.9zm-19.2 0.6q0.2 0 0.2 0c0.3 0.1 0.3 1 0.1 1.5-0.1 0.2-0.5 0.5-0.8 0.7-0.3 0.2-0.9 0.6-1.3 1-0.5 0.4-1 0.7-1.2 0.7-0.5-0.1-1.3-0.5-1.6-0.9-0.2-0.5 0.2-1.4 0.9-1.7 0.9-0.5 3-1.2 3.7-1.3zm36.9 0.7c0.3 0.1 0.8 0.1 1.7 0.3 1.1 0.2 2 0.4 2.1 0.4 0.4 0 1.4 1.1 1.4 1.5 0 0.5-1 1.4-1.8 1.7-0.8 0.2-0.8 0.2-2.3-0.7-2.4-1.4-2.8-2.2-1.8-2.9 0.2-0.2 0.4-0.3 0.7-0.3zm61.1 10.9q0.5 0 1.4 0.4c0.6 0.2 1 0.5 1 0.6 0 0.1-0.1 0.3-0.3 0.6-0.2 0.2-0.6 0.4-1.1 0.4l-0.7 0.1-0.4-0.8q-0.6-1.3 0.1-1.3zm2.1 4.6c0.2 0 0.4 0.2 0.5 0.4 0.1 0.2 0.8 1.3 1.6 2.5 0.8 1.1 1.4 2.2 1.4 2.4 0 0.1-0.1 0.8-0.2 1.4-0.2 0.5-0.4 1-0.5 1-0.1 0-0.8-0.5-1.4-1.2-1.2-1.2-1.7-1.4-2.5-1-0.3 0.2-0.5 0.2-0.9-0.2-0.6-0.6-0.6-0.9-0.3-2.1 0.3-1 1.8-3.1 2.3-3.2zm10.2 32.9c-0.3 0.1-0.4 0.6-0.2 2.8 0.1 1.3 0.1 2.8 0 3.5-0.1 1.1-0.1 1.2-1.2 2.5-1.2 1.3-2.9 4.2-2.9 4.9 0 0.2 0.6 0.9 1.4 1.7l1.5 1.4-0.2 0.7c-0.1 0.4-0.2 1.1-0.2 1.5 0 0.7-1.1 4.6-1.8 6.4-0.2 0.6-0.4 1.4-0.4 2 0 1.1 0 1.3-1.1 3-1.1 2-5 7.2-6.2 8.5-0.4 0.4-1.9 1.4-3.7 2.4-1.6 0.9-3.6 2.1-4.4 2.6-0.8 0.5-1.7 0.9-2 1-0.6 0-0.7 0.2-1.4 1.4-0.5 0.8-0.9 1.5-1 1.6-0.1 0.2-0.3 0.2-0.9 0q-1.4-0.5-2-0.1c-0.1 0.2-1.4 0.7-2.7 1.3l-2.5 1.1-0.7 1.3c-0.4 0.8-0.8 1.5-1 1.5-0.1 0.1-0.6 0.1-1 0.1-0.6 0-1.6 0.5-4.9 2.2-2.2 1.2-4.6 2.5-5.2 2.9-0.8 0.5-2.5 1.1-6.9 2.5-5.5 1.8-6 2-6.6 2.6-0.8 0.8-0.8 1-0.3 1.2 0.2 0.1 0.3 0.2 0.3 0.4 0 0.2-2.1 1.5-2.5 1.5-0.2 0-0.6 0.2-0.8 0.5-0.5 0.5-1.8 0.9-3.5 1.2-1.4 0.2-1.7 0.3-1.7 0.5 0 0.1 0.5 0.8 1.2 1.6 1.8 2 1.9 2.3 1.8 3.3 0 0.9 0 0.9 0.9 1.7 0.5 0.5 0.9 1 0.9 1.1 0 0.1-0.5 0.4-1.1 0.6-0.6 0.2-1.4 0.6-1.8 0.8l-0.5 0.3 0.1 1.1c0.1 0.9 0 1.1-0.2 1.4-0.5 0.5-0.8 0.4-1.5-0.2-0.6-0.6-0.6-0.6-0.3-1.3 0.4-0.9 0.4-1.3-0.1-1.9-0.5-0.7-0.8-0.7-1.5 0.1l-0.6 0.7-1.7-1c-0.9-0.5-2-1.1-2.4-1.3-0.5-0.2-2.3-1.4-4.1-2.8-3.1-2.4-3.3-2.4-5.3-3.2-2-0.7-2.2-0.7-2.6-0.5-0.5 0.4-0.5 0.5-0.1 1.6 0.3 0.8 0.3 0.9 0 1.2-0.6 0.7-1 0.7-3.2 0.3-1.1-0.3-2.2-0.4-2.4-0.4-0.2 0.1-1.8 1-3.6 2-2.9 1.7-3.4 2.1-3.7 2.7-0.5 1.1-0.5 1.6-0.1 2 0.6 0.5 0.8 0.5 1.8-0.2 0.5-0.3 1-0.5 1.1-0.5 0.1 0 0.6 0.4 1 0.8 0.4 0.4 1.3 0.9 2 1.2 1 0.5 1.3 0.5 2.3 0.5 0.7-0.1 1.4-0.2 1.7-0.2 0.3-0.1 0.7 0.1 2.2 1.5 2.2 2.2 2 2.4-0.8 1.1l-2-1-0.8 0.6c-1.3 1-1.4 1-2.9 0.4l-1.5-0.6-2.7 0.3c-2.1 0.3-3 0.5-3.4 0.8-0.6 0.4-0.7 0.4-1.1 0.1-0.3-0.2-0.5-0.3-0.5-0.4 0-0.1 0.4-0.5 0.8-1 0.5-0.5 0.9-0.9 0.9-1 0-0.1-0.3-0.5-0.6-0.9q-0.6-0.7-1-0.7c-0.2 0-1.1 0.3-2 0.7l-1.6 0.8-0.7-0.3c-0.4-0.2-0.8-0.3-1.1-0.3-0.5 0-1.8 0.7-1.8 1 0 0.3 0.8 1.4 2 2.7 0.5 0.5 0.9 1 0.9 1.2 0 0.1-0.1 0.6 0.1 1.1 6.8 1.7 13.9 2.6 21.2 2.6 47.3 0 85.6-38.3 85.6-85.6q0-1.3-0.1-2.7-0.1-0.4-0.3-0.5-0.1 0-0.1 0zm-51.7 76.5c0.5 0 0.7 0.2 0.7 0.6 0 0.4-3 2.4-4 2.7-0.5 0.2-2.1 0.7-3.5 1.3-3 1.1-3.9 1.3-4.8 0.9-0.9-0.4-0.8-0.5 1-1.9 1.1-0.8 1.8-1.2 3.7-1.8 1.3-0.5 3.2-1.1 4.2-1.3 1.3-0.3 2.2-0.5 2.7-0.5zm-30 1.7c0.2 0 0.3 0.1 0.6 0.2 0.4 0.2 1.5 0.4 2.5 0.5 1.4 0.1 1.9 0.2 2.4 0.5 0.5 0.4 0.7 0.8 0.4 1-0.1 0-1.2 0.1-2.5 0.2l-2.3 0.1-0.8-0.9c-1-1.1-1-1.1-0.6-1.4q0.1-0.2 0.3-0.2zm0.8 3.4c0.3-0.1 0.8 0 1.5 0.2 0.7 0.2 1.8 0.3 2.5 0.3 1.1 0 1.2 0.1 1.6 0.5q0.7 1-0.2 1.3c-1.4 0.6-4.7 0.4-5.5-0.3-0.5-0.5-0.7-1.1-0.5-1.6q0.1-0.4 0.6-0.4zm-34.4-118.9c2.1-1.6 2.2-1.8 2.1-2.2-0.1-0.3-1.8-0.3-2.5 0-0.3 0.1-1 0.2-1.7 0.3l-1.1 0.1-0.1 1.1c0 0.8 0 1.1 0.3 1.6 0.3 0.4 0.6 0.6 0.7 0.6 0.2 0 1.2-0.6 2.3-1.5zm57.7 9.7c0.4-1.1 0.4-1.2-0.1-1.7-0.5-0.5-0.9-0.5-1.4 0.2-0.4 0.7-0.3 1.2 0.3 1.9 0.5 0.6 0.8 0.5 1.2-0.4zm25.6 0.8c0.7-0.3 0.8-0.3 1.7 0q1.7 0.7 1.9-0.3c0.1-0.3 0.2-1.1 0.4-1.8 0.2-1 0.2-1.2 0-1.3-0.3-0.3-1.2-0.2-4.4 0.1-1.4 0.1-3.2 0.2-3.8 0.1-1-0.1-1.1 0-1.3 0.3-0.5 0.7 0.5 1.7 1.7 2 0.4 0 1.2 0.4 1.7 0.7 1 0.6 1 0.6 2.1 0.2zm-86.3 1.1c0.5-0.5 0.5-0.8-0.1-1.4-0.7-0.6-1-0.5-1.2 0.4-0.2 1.2 0.5 1.8 1.3 1zm3 8.7c0.4-0.2 0.7-0.5 0.8-0.8 0.2-0.4 0.2-0.5-0.6-1.4-0.5-0.5-1.5-1.6-2.3-2.5-1.2-1.5-1.3-1.5-2.1-1.5-0.5 0-0.7 0-0.7 0.2 0 0.3 2.8 5.7 3.2 6.2 0.3 0.3 1.1 0.2 1.7-0.2zm75.1 1.4c2.7-0.1 4.1-0.2 4.5-0.4 0.4-0.2 0.6-0.2 1.8 0.2l1.3 0.4 2.8-0.5c1.5-0.3 2.8-0.6 3-0.6 0.1-0.1 0.2-0.4 0.3-0.6 0.3-0.7-0.1-1.6-0.9-2.1-2.1-1.4-6.8-4-7.4-4.1-0.4-0.2-1.4-0.6-2.2-1.1-1.6-0.9-1.8-0.9-2.9-0.5-1 0.4-0.9 0.7 0.3 1.6 0.5 0.5 0.9 0.8 0.9 0.9 0 0.2-1.3 0.8-1.6 0.7-0.4-0.2-1.9 0.5-1.9 0.9 0 0.1 0.1 0.6 0.2 1.1 0.2 1.1 0 1.3-1.8 1.3-1.1 0-1.5 0.1-1.8 0.3-0.6 0.5-0.6 1.4 0 2.2 0.5 0.6 0 0.6 5.4 0.3zm-57.9 8.4c0.1-0.1 0.2-0.6 0.2-1 0-1-0.2-1.3-1.2-1.3-1.1 0-1.3 0.3-1.3 1.3 0 1 0.2 1.2 1.3 1.2 0.4 0 0.9-0.1 1-0.2zm28.7 2.3c0-0.5-1-1.3-1.5-1.3-0.6 0-0.4 0.8 0.3 1.3 0.7 0.6 1.2 0.6 1.2 0zm44.1 3.2c1.2-0.3 1-0.1 2.6-2.2 1-1.4 1.2-1.8 1.2-2.2-0.1-1-0.5-1-2.2-0.2-0.8 0.3-1.9 0.8-2.4 1-0.5 0.2-1.3 0.6-1.7 1-0.4 0.3-1.2 0.8-1.7 1.1-0.5 0.2-0.9 0.5-0.9 0.6 0 0.3 3.1 1.4 3.7 1.2 0.3 0 0.9-0.2 1.4-0.3zm-31.6 2.1c0-0.6-0.3-0.9-2.1-1.8l-1.2-0.6-0.4 0.4c-0.7 0.4-0.7 0.7 0 1.5 0.6 0.7 1.8 1.2 3 1.1 0.5 0 0.6-0.1 0.7-0.6zm49.2 0.5c0.5-0.6 0.4-1.9-0.1-2.4-0.2-0.3-0.6-0.5-0.9-0.5-0.6 0-1.5 0.9-1.5 1.4 0 0.7 0.4 1.6 0.7 1.8 0.6 0.3 1.4 0.1 1.8-0.3zm-54.8 0.5c0.4-0.4 0.2-0.7-1.1-1.7-0.6-0.5-1.2-0.9-1.2-1 0-0.1 0.3-0.5 0.5-0.7 0.3-0.3 0.7-0.8 0.9-1.2 0.2-0.6 0.2-0.7 0-1.2-0.2-0.4-0.5-0.6-1.2-0.7-1.8-0.4-1.8-0.4-3 1.4-0.6 0.9-1.1 1.7-1.1 1.8 0 0.1 0.1 0.4 0.3 0.7 0.2 0.5 0.2 0.5-0.4 1.3-0.3 0.4-0.6 0.8-0.6 0.9 0 0.1 0.2 0.3 0.6 0.5 0.4 0.2 1.1 0.3 3.2 0.3 2.5 0 2.8 0 3.1-0.4zm20.4 0.9c0.6-0.5 1.1-0.9 1.2-0.9 0.1 0 0.5 0.3 1 0.6 0.4 0.3 0.9 0.5 1 0.5 0.2 0 2.3-1.1 3.4-1.8q0.7-0.5 1.7-0.6c1-0.1 1.1-0.2 1-0.6 0-0.3-0.2-0.6-0.7-0.8-0.5-0.3-0.8-0.6-1.3-1.4q-0.9-1.9-1.5-1.9c-0.2 0-2 0.3-4 0.7l-3.6 0.8-2.3 1.7c-1.3 0.9-2.4 1.8-2.5 1.9 0 0.2-0.1 0.5 0 0.7 0.2 0.4 1 1.3 1.2 1.3 0.1 0 0.6-0.3 1.2-0.8 0.5-0.4 1-0.8 1.1-0.8 0.2 0 0.5 0.5 0.9 1.2 0.4 0.8 0.6 1.1 0.9 1.1 0.1 0 0.7-0.4 1.3-0.9zm28.4 3.2c1.9-0.8 2.3-1 2.3-1.3 0-0.2-0.2-1.4-0.5-2.7-0.4-1.5-0.5-2.9-0.6-4.2 0-1.7 0-1.8-0.4-2.1-0.4-0.4-0.7-0.4-1-0.2-0.2 0.1-2.3 4.1-2.8 5.4-0.2 0.5-0.4 0.7-0.8 0.8-0.9 0.2-4.2 1.8-4.2 2 0 0.3 1.7 0.7 2.6 0.7 0.6 0 0.7 0.1 1.5 1.3 0.6 0.7 1.1 1.2 1.3 1.2 0.1 0 1.3-0.4 2.6-0.9zm-10.6 1.1q0.6-0.8-0.1-1.3c-0.4-0.3-0.5-0.3-0.8-0.1-0.5 0.3-0.5 0.7-0.2 1.3 0.3 0.6 0.8 0.6 1.1 0.1zm-107.2 0.7c0.3-0.3 0.2-1.2-0.1-1.7-0.2-0.2-0.7-0.6-1.1-0.8-0.4-0.2-2-1.2-3.6-2.1-2.2-1.4-3-2-3.5-2.7-0.7-0.9-5.8-9.4-6.7-11.3l-0.4-0.8 0.4-2.6c0.3-2.4 0.4-4.6 0.1-5.4-0.1-0.3 0-0.6 0.5-1.2l0.7-0.7 0.6 0.8c0.4 0.5 1.1 2 1.7 3.3 1 2.1 1.2 2.4 1.6 2.5 0.4 0 0.6-0.1 1-0.5 0.8-1 7.2-6.6 7.5-6.6 0.2 0 0.7 0.5 0.8 0.9 0.1 0.8-0.1 1.1-1.2 1.8-0.6 0.4-1.2 0.9-1.2 1 0 0.2 0.4 0.6 0.7 1.1 1 1.2 1.1 1.4 1.1 3 0 2.8 0.2 3.2 1.2 4.3 0.5 0.5 1 0.9 1.2 0.9 0.1 0 0.4-0.5 0.7-1.1 0.5-1 0.7-1.2 1.6-1.6 1-0.5 1-0.5 1.2-1.6 0.2-0.6 0.3-1.1 0.4-1.1 0.1-0.1 0.3 0.2 0.5 0.5 0.6 0.9 1.5 1.6 2.6 2.1l1.1 0.3 0.6-0.4c0.4-0.3 0.9-0.7 1.1-0.9 0.3-0.4 0.3-0.4 0.1-1.3q-0.3-1-0.9-1.7c-0.4-0.3-0.6-0.7-0.6-0.9 0-0.2 0.2-0.6 0.6-1 0.7-0.9 0.6-1.2-0.2-1.7-0.4-0.3-0.5-0.3-1 0-0.3 0.1-1.3 1-2.2 1.9-1.2 1.1-1.8 1.6-2.1 1.6-0.3 0-0.5-0.1-0.6-0.2 0-0.1 0.6-0.9 1.4-1.8l1.4-1.7-0.1-1.2c0-0.6-0.3-2.5-0.6-4.3-0.4-1.9-0.6-3.7-0.6-4.6 0-1.3 0-1.6-0.3-1.9l-0.4-0.4-1.2 0.5c-0.7 0.3-1.9 0.7-2.7 1-1.7 0.5-2.1 0.8-6.4 4.9-0.9 0.9-1.7 1.6-1.7 1.6-0.1 0-0.5-0.4-1-1l-0.8-1v-1.3c0.1-1.9 0.1-1.9-4.6-2.9-2.1-0.4-4-0.8-4.3-0.8-0.6 0-0.9 0.4-2 2.1-1 1.5-1.2 2-0.8 2.9l0.3 0.6-0.9 0.9c-0.8 0.8-0.9 0.9-1.3 0.7-0.3-0.2-0.7-0.2-2.2 0.2-1 0.2-1.9 0.5-2.1 0.7-0.4 0.3-0.4 0.4-0.1 1.7 0.4 1.6 0.9 2.1 1.8 2 1.1-0.2 1.6 0.2 2.4 1.7 0.3 0.7 0.7 1.6 0.8 1.9 0.1 0.4 0.6 1 1.4 1.6 1.4 1 1.5 1.3 1.7 2.4 0.2 0.9 0.9 2.1 5.5 8.1 5.5 7.2 6.4 8.1 9.8 10 1.4 0.8 2.7 1.5 2.9 1.5 0.1 0 0.4-0.1 0.5-0.2zm5.1 2.8c0.1-0.3-0.1-0.7-0.8-1.7-0.8-1.1-1-1.2-1.5-1.2-0.8 0-1.2 0.3-1.2 1-0.1 0.6 0 0.7 1.4 1.5 0.9 0.5 1.7 0.9 1.8 0.9 0.1 0 0.3-0.2 0.3-0.5zm115.7 1.1c3.6-1 3.8-1.1 4.1-1.9 0.6-1.6 0.6-2.3 0-2.7-0.3-0.1-0.5 0-1.1 0.5-1.1 0.8-3.1 1.8-4.2 2-1.3 0.4-1.5 0.5-1.8 1.2-0.4 0.8-0.2 1.5 0.3 1.5 0.3 0 1.5-0.3 2.7-0.6zm-77.1 48.8c1-1.3 1.6-1.9 2.2-1.9 0.2 0 1.2 0.5 2.2 1 2 0.9 2.6 1 4.4 0.5 0.7-0.3 0.8-0.4 0.2-1.2-0.6-0.7-0.6-1 0.1-1.6l0.5-0.5 0.6 0.6c0.8 0.6 1.2 0.7 2 0.1 1.7-1 2.9-1.5 3.5-1.4 0.7 0.1 1.4-0.2 1.4-0.6 0-0.3-0.5-0.6-1.2-0.6-0.4 0-2.4-1-2.4-1.2 0-0.2 2.3-1.5 2.6-1.5 0.1 0 1.1 0.9 2.2 1.9 1.1 1 2.1 1.8 2.2 1.8 0.2-0.2 2.2-3.8 2.2-4.1 0-0.1-0.2-0.4-0.5-0.7l-0.5-0.5 0.5-0.3c0.3-0.3 0.7-0.4 0.8-0.3 1 0.4 1.8 0.5 2.3 0.3 0.5-0.2 0.5-0.2 0.4-1 0-0.5 0.1-1.1 0.2-1.3 0.2-0.4 0.3-0.5 1.1-0.4 1 0.2 0.8 0.6 1.6-4 0.3-1.8 0.6-3.5 0.8-3.8 0.7-1.4 3.2-5.2 3.5-5.5 0.7-0.6 1.5-1.1 1.8-1.1 0.6 0 0.9 0.9 0.9 2.2-0.1 1.2-0.1 1.2 1 2.8 0.6 0.8 1.3 1.9 1.5 2.3l0.4 0.7h2.6c2.3-0.1 2.9-0.2 4.1-0.5 1.5-0.5 1.8-0.8 2.1-1.7 0.2-0.6 0.2-1-0.3-3.5-0.6-3.3-0.7-3.4-0.2-4.2 0.3-0.4 0.5-0.6 0.9-0.6 0.3 0 1.1-0.2 1.7-0.6 1-0.5 1.2-0.6 1.5-0.4 0.2 0.1 0.4 0.2 0.4 0.2 0 0.1-0.3 0.5-0.7 1-0.4 0.5-0.7 1-0.6 1.1 0.2 0.4 1.3 0.7 2.7 0.7 1.6 0 1.7 0.1 1.9 1.3 0.1 0.8 0 0.9-1 2.4-0.9 1.4-1.1 1.7-1.7 1.8-0.4 0.1-0.8 0.2-1 0.2-0.2 0-0.6 0.4-1 0.8-0.5 0.6-0.9 1.3-1.5 3.1-0.5 1.4-0.9 2.6-0.9 2.8q0 1.3 2.7 0.6c0.8-0.3 1.3-0.6 2.5-1.8 0.9-0.8 2.2-2 3-2.7l1.3-1.2h1.3q1.2 0 1.4 0.3c0.2 0.1 0.5 0.5 0.8 0.8 0.2 0.3 0.5 0.6 0.6 0.6 0.2 0 0.7-0.5 3.9-3.3 1.3-1.2 2.4-2.2 2.4-2.4 0.2-0.3-0.5-1-0.8-0.9-0.1 0.1-1.4 0.5-2.9 1-1.6 0.5-3.1 1.1-3.5 1.4-0.5 0.3-1 0.6-1.1 0.6-0.1 0-0.4-0.3-0.6-0.7-0.2-0.6-0.2-0.8-0.1-1.6 0.5-2.2 0.5-2.1 2.1-3.2 1.7-1.1 1.7-1 1.7-3.6 0.1-1.9 0-2.3-0.9-3l-0.5-0.4-1.6 0.4-1.7 0.4-0.3-0.4c-0.1-0.2-0.5-0.8-0.8-1.3-0.3-0.5-0.7-1-0.8-1-0.1-0.1-0.9 0.3-1.8 0.7-1.1 0.6-1.7 0.8-2 0.7-0.7-0.1-1.8-1.8-3.1-4.4-1.2-2.3-1.2-2.5-1-2.8 0.2-0.2 0.4-0.8 0.4-1.6 0.1-0.8 0.2-1.9 0.3-2.5 0.4-1.9 0-2.4-1.2-1.6-0.5 0.3-0.7 0.3-1.3 0.2-2.1-0.3-1.9-0.4-2.7 0.4-0.4 0.4-0.7 0.8-0.7 1 0 0.2 0.3 0.8 0.6 1.2 0.5 0.8 0.5 0.9 0.3 1.6-0.3 0.9-0.4 1-1.2 0.6-0.4-0.1-0.9-0.2-1.1-0.2-0.7 0.1-0.7 1.4-0.1 2.7 0.6 1.1 0.7 1.2 2.2 0.7 0.9-0.2 0.9-0.2 1.5 0.2 0.5 0.3 0.7 0.5 0.6 0.8-0.3 1-0.3 1.8 0 2.5 0.2 0.4 0.6 1.4 0.9 2.3l0.5 1.5-0.6 0.6c-0.9 0.7-1.3 0.7-2.5 0.4-1.2-0.3-2.5-0.4-2.8-0.1-0.2 0.2-0.4 0-1-0.5-0.5-0.5-0.9-0.9-0.9-0.9 0-0.1 0.4-0.6 0.8-1.2 0.8-1 1.4-2.4 1.4-3.2 0-0.4-1.1-1.5-1.4-1.5-0.2 0-1.1 0.6-1.2 0.8 0 0.1 0 0.5 0.2 0.9 0.1 0.3 0.2 0.8 0.2 1 0 0.6-0.6 1.2-1.2 1.2-0.7 0-1.3-0.6-2-1.9-0.3-0.6-0.6-1.2-0.8-1.3-0.1 0-0.5 0.2-0.8 0.4-0.8 0.6-1.2 0.6-1.4 0.1-0.3-0.5-0.2-0.6 2.7-2.1 2.7-1.3 2.5-0.9 1.7-4.2l-0.6-1.9 0.7-1.1c0.4-0.6 0.7-1.2 0.7-1.4 0-0.1 0.2-0.9 0.5-1.8 0.5-1.6 0.4-1.8-0.4-2.3-0.6-0.3-1.2-0.1-2.7 1-0.9 0.7-1.1 0.8-1.7 0.6-0.8-0.1-1.4-0.4-3.2-1.6l-1.5-1-2 0.1c-1.1 0.1-2 0.2-2 0.2-0.1 0.1 0.1 1 0.3 2.2 0.4 2.2 0.4 2.3-0.6 3.5l-0.4 0.6-0.9-1.2c-0.5-0.7-1-1.2-1.1-1.2-0.1 0-0.7 0.8-1.3 1.8l-1.1 1.7-1.2 0.4c-1.3 0.5-1.3 0.4-2.4 3.7-0.6 1.7-0.6 1.7-1.7 2.5-1.3 1.1-1.7 1.4-1.7 1.7 0 0.1 0.4 0.6 0.9 1.1 0.9 0.8 0.9 0.9 0.9 1.8 0 0.7 0.1 0.8 0.4 0.9 0.2 0.1 0.5 0.4 0.6 0.7 0.2 0.5 0.2 0.7 0 1.3-0.2 0.5-0.4 0.9-0.5 0.9 0 0.1-0.5-0.4-0.9-1.1-0.4-0.6-0.8-1.2-1-1.2-0.1-0.1-0.8 0.2-1.6 0.5l-1.3 0.7-0.7-0.7c-0.6-0.6-0.6-0.6-0.3-1 0.3-0.5 0.3-0.5 0-1.1-0.4-0.7-0.7-0.8-1.1-0.3-0.1 0.2-0.5 0.5-0.8 0.6-0.3 0.2-0.6 0.7-1.1 2.2-0.6 1.5-0.8 1.9-1.2 2.1-0.2 0.1-0.7 0.3-1.2 0.5l-0.7 0.4-0.7-0.4c-0.4-0.2-0.9-0.5-1.2-0.7-0.6-0.3-0.6-0.3-2.8 0.4-1.2 0.3-2.4 0.6-2.6 0.6-0.7 0-1.5 0.9-1.5 1.7 0 1.1 1.3 2 2.7 1.8 0.9-0.1 1.3-0.1 3.7 0.1 1.5 0.1 2 0.2 3.8 1 1.1 0.4 2.2 0.9 2.3 1 0.4 0.4 2.5 3.6 2.7 4.2 0.2 0.7 0.3 0.6-1.9 2.1-1.7 1.1-2.2 1.7-1.8 2.2 0.2 0.2 0.4 0.2 1.6 0.2 2.2-0.2 2.2-0.1 0.7 1.8-0.7 0.9-1.3 1.7-1.3 1.9 0 0.3 0.6 0.8 1.6 1.2 0.4 0.2 0.7 0.4 0.7 0.5 0 0.1-0.5 0.4-1.1 0.7l-1.2 0.6-1.2 2.4-1.2 2.4-1.5-0.1-1.5-0.1-1.6 1.3c-1.2 1.1-1.6 1.6-1.7 2.1-0.3 0.8-0.1 1.3 0.5 1.6 0.4 0.3 0.4 0.3 1.3-1zm62.8-44.1c1.2-1.4 1.3-1.9 0.6-2.6l-0.4-0.4-0.6 0.4c-1.1 0.7-1.9 3.1-1.2 3.7 0.3 0.3 0.4 0.2 1.6-1.1zm-67.1 7.4c0.3-0.3 0.5-0.5 0.5-0.6 0-0.3-0.7-1-1-1-0.2 0-0.6 1-0.6 1.6 0 0.4 0.5 0.4 1.1 0zm-13.7 2.7c0.2-0.1 0.4-0.4 0.4-0.5 0-0.6-3.3-2.4-4-2.1-0.4 0.1-1 1.1-1 1.5 0.1 0.3 0.4 0.5 1.6 1 1.6 0.6 2.2 0.6 3 0.1zm97.2-0.5c1.3-1.3 5.9-7.3 5.9-7.6 0-0.3-0.8-0.7-1.4-0.7-0.2 0-0.7 0.4-1.1 1-0.5 0.6-1.8 2.2-3 3.7-1.7 2.1-2.2 2.8-2.3 3.3-0.1 0.6 0 0.8 0.2 1.1 0.4 0.4 0.6 0.3 1.7-0.8zm-11.2 2.4c0.3-0.3 0.3-0.4 0-0.8-0.3-0.5-1.3-0.7-1.9-0.4-0.5 0.2-0.4 0.4 0.3 1 0.6 0.7 1.2 0.7 1.6 0.2zm-78.1 3.7c0.7-0.6 0.7-0.7 0.8-1.9v-1.2h1.2c1 0 1.1 0 1.4-0.4 0.1-0.3 0.2-0.6 0.2-0.8-0.1-0.2-3.1-2.3-4.1-2.9-0.7-0.3-1.5-0.3-1.8 0-0.1 0.2-0.1 0.6 0.1 1.8 0.2 0.9 0.3 2.5 0.3 3.5 0.1 2.7 0.5 3.1 1.9 1.9zm84.1 0.7c0.7-0.9 1.4-3 0.9-3-0.3 0-2.7 1.6-2.7 1.8 0 0.1 0.1 0.5 0.3 1 0.4 1 0.7 1.1 1.5 0.2zm-74.7 12.2c0.7-0.5 1.4-1.8 1.3-2.3-0.1-0.2-1-0.9-2-1.6-1-0.6-1.9-1.4-2.1-1.6q-0.3-0.3-1.3-0.4c-0.9-0.2-1.1-0.1-2 0.4-0.6 0.4-1.1 0.8-1.1 1 0 0.2 0.3 0.7 0.7 1.3 0.6 0.7 1 1 2.2 1.6 0.9 0.4 2 1 2.5 1.4 1.1 0.7 1.2 0.7 1.8 0.2zm-15.1 0c0-0.5 0.2-0.8 0.8-1.3 0.8-0.7 1.1-0.7 2.7-0.4 0.9 0.2 1 0.2 1.3-0.1 0.3-0.3 0.3-0.3-0.1-0.9q-1-1.9-1.9-1.9c-0.8 0-4.6 2.3-5.1 3.1-0.3 0.5-0.3 0.6-0.1 1.1 0.2 0.3 0.6 0.7 0.9 1 0.6 0.5 0.7 0.5 1 0.3q0.4-0.3 0.5-0.9zm-33.3 3.3c0.3-0.2 0.4-0.4 0.4-0.9 0-0.6-0.2-1-1.2-2.2-0.8-1.2-1.2-1.8-1.3-2.4-0.2-1-0.5-1.9-0.6-1.9-0.1 0-0.4 0.2-0.7 0.3-0.5 0.3-0.6 0.2-2.1-0.2-1.5-0.4-1.8-0.4-2.5-0.3-1 0.3-1 0.3-1.7-0.3-0.5-0.5-0.7-0.9-1.2-2.3-0.6-1.9-0.6-2.1-0.2-2.6 0.4-0.7 0.3-1.6-0.6-3.7-0.5-1.1-1-2-1.1-2.1-0.3-0.1-5.1 2.1-5.5 2.5-0.6 0.7-0.4 1.3 1.6 4.3 3.1 4.5 4.4 6.2 4.7 6.3 0.2 0 1.2 0.2 2.3 0.4 1.7 0.2 2.2 0.3 3.1 0.1 0.6-0.1 1.2-0.3 1.4-0.3 0.4-0.2 1.3 1 2 2.8 1 2.7 1 2.6 2 2.6 0.5 0 1.1 0 1.2-0.1zm92.1-0.1c0.2-0.4 0.2-0.6 0.1-0.9-0.2-0.4-0.3-0.5-0.9-0.5-0.7 0-1.5 0.4-1.5 0.8 0 0.4 1.1 1 1.6 1 0.2 0 0.5-0.2 0.7-0.4zm-7.7 0.7c0.9-0.2 1.4-0.5 2-1 0.4-0.3 0.7-0.7 0.7-0.8 0-0.2-0.2-0.6-0.5-1-0.5-0.6-0.7-0.7-1.8-0.8-0.7-0.2-1.6-0.2-2.2-0.2-0.8 0-1.1 0-2 0.7-1 0.7-1.2 1-0.7 1.4 0.2 0.2 0.4 0.1 0.8-0.1 0.7-0.3 1-0.3 1.5 0.1 0.3 0.2 0.3 0.4 0.2 0.6-0.2 0.2-0.2 0.3 0 0.7 0.3 0.3 0.6 0.7 0.8 0.7 0 0 0.5-0.2 1.2-0.3zm-41.1 0.7c0.7-1 0.6-1.3-0.5-2.2-1.3-1-1.6-1-2.4 0.4-0.4 0.7-0.6 1.3-0.6 1.4 0.3 0.6 1.3 1 2.8 1.2 0.1 0 0.4-0.3 0.7-0.8zm-40 2.5c0.7-0.3 0.8-0.4 0.8-1.3 0.1-1-0.1-1.5-0.8-1.9-0.4-0.3-0.4-0.3-1.2 0.3-0.4 0.3-0.8 0.7-0.8 0.8 0 0.2 0.3 2 0.4 2.3q0.2 0.5 1.6-0.2zm73.8 5.9c1-0.7 1.2-1.2 0.4-1.6-0.7-0.3-1.5-0.3-1.9 0-0.4 0.4-0.3 0.5 0.3 1.2 0.6 0.8 0.6 0.8 1.2 0.4zm-59.7-0.1c0.6-0.5 0.7-0.6 0.7-1.3 0-0.9-0.3-1.7-0.6-1.7-0.1-0.1-0.3-0.1-0.4-0.1-0.1 0-0.3-0.1-0.5-0.1-0.1 0-0.5-0.3-0.8-0.7-0.8-1.1-0.5-1.2 2.2-0.8 1.2 0.1 2.7 0.3 3.4 0.3 1.5 0 10.6-1.1 11.2-1.3 0.7-0.3 2-1.7 2-2.2 0-0.3-0.8-1.3-1.3-1.6-0.2-0.1-0.5 0-1.3 0.6l-0.9 0.7-0.5-0.4c-0.2-0.3-0.8-0.6-1.4-0.9-1.1-0.4-1.1-0.4-2.8 1.2-0.6 0.6-1.4 1.1-1.7 1.2-0.3 0.1-1.7 0.2-3 0.3-1.4 0-2.5 0.2-2.7 0.3-0.2 0.2-0.4 0.2-0.8-0.2-0.3-0.2-0.7-0.7-0.8-1-0.2-0.7-2.2-2.2-3.1-2.5-1-0.3-2.7-0.5-3.7-0.5-0.7 0-1 0.1-1.9 0.8-0.6 0.4-1.1 0.8-1.1 0.9-0.1 0.3 1.1 2.1 3.5 5.1 2.3 3 3.2 3.9 4.2 4.2 0.9 0.4 1.3 0.3 2.1-0.3zm44.3-2.8c-0.4 0.7-1 0.7-1.5 0-0.5-0.5-0.5-0.9-0.1-1.7q0.5-1 1.4 0.1c0.5 0.6 0.5 0.9 0.2 1.6zm3.8-4.2c-1.1 0.7-2.4 0.4-4.1-0.7q-1.3-0.8-0.7-1.1c0.3-0.2 0.3-1.1 0-2-0.2-0.6-0.4-1.1-0.4-1.3 0-0.3 1.2-1.1 1.7-1.1 0.1 0 0.7 0.3 1.2 0.6 1.1 0.8 1.3 0.7 1.6-0.6 0.2-1.5 0.9-2.5 2-3.3 0.8-0.5 1.2-1.1 1.7-1.8 0.7-1.3 1.1-1.4 1.4-0.4 0.2 0.5 0.5 0.9 0.9 1.1 0.7 0.5 0.7 0.9 0.1 1.9l-0.6 0.7 0.5-0.1c1-0.3 1.2-0.2 2 1 0.4 0.6 0.7 1.3 0.7 1.5 0 1.2-1.7 2.6-4.5 3.8-1.2 0.4-2.3 1-2.5 1.1-0.2 0.2-0.7 0.5-1 0.7zm13.1-15.6c-0.9 1.2-1.6 2.1-1.6 2.1-0.3-0.1-1.1-0.7-1.2-1-0.2-0.4 1.6-4.4 2.3-5.3 0.9-1 1.2-1 1.8 0.3 0.7 1.2 0.6 1.3-1.3 3.9zm-9 0.9c-0.5 0.2-0.9 0.4-1 0.4-0.4 0-1.1-0.5-1.1-0.8 0-0.2 0.3-0.8 0.7-1.4 0.7-0.9 0.7-1.1 0.6-1.7-0.1-0.4-0.1-0.9 0.1-1.5 0.2-0.9 0.2-1-0.4-2.9-0.9-2.6-0.9-2.8 0.2-3.4 0.5-0.2 1.1-0.4 1.2-0.4 0.5 0 1.1 1.4 1.1 2.2 0 0.8 0.3 0.9 0.9 0.6 0.6-0.4 1-0.4 1.5 0.2 0.6 0.5 0.7 1.1 0.2 1.1-0.3 0-1 1.2-1.6 2.5-0.4 0.9-0.4 1-0.1 1.7 0.2 0.5 0.2 0.7 0.1 1-0.4 0.8-1.5 2-2.4 2.4zm21.2-1.1c-0.4 0.4-0.6 0.4-1.1 0-0.2-0.1-0.7-0.2-1.2-0.3-0.8 0-0.9-0.1-1-0.5 0-0.4 0.2-0.7 1.4-1.7 0.7-0.6 1.6-1.2 1.8-1.3 0.7-0.1 3.6 2 3.6 2.7 0 0.1-0.2 0.4-0.6 0.8-0.5 0.6-1.2 0.8-1.5 0.3-0.3-0.3-0.9-0.3-1.4 0zm-31.4-1.2c-0.1 0.3-0.6 0.2-1.7-0.2q-1.8-0.7-0.8-1.4c0.7-0.5 1.2-0.4 1.9 0.5 0.3 0.5 0.6 1 0.6 1.1zm47.5-1.4c-0.2 0.4-0.5 0.7-0.6 0.7-0.3 0-1.1-0.8-1.1-1 0-0.3 1.4-0.9 1.8-0.9q0.7 0-0.1 1.2zm-22.1-3c-0.9 0.5-1.6 0.9-1.7 0.9-0.2 0-1.5-1.2-1.8-1.6-0.3-0.4-0.3-0.4 0-0.7 0.2-0.1 1.1-0.6 2-1.1 1.4-0.7 1.7-0.7 2.1-0.6 0.7 0.3 1.6 2.2 1.1 2.2-0.1 0-0.9 0.4-1.7 0.9zm-6.7-0.4c-1.2 0.9-1.4 0.8-1-0.6 0.6-1.8 0.8-2 1.5-1.3 0.6 0.6 0.4 1.3-0.5 1.9zm6.1-10.6c-0.4 0.6-0.7 1.1-0.8 1.1 0 0-0.6-0.2-1.1-0.5-0.6-0.4-1.4-0.6-2.1-0.7-1-0.1-1.2-0.2-1.9-0.9-1.1-1.1-1.1-1.5 0.3-2.9l1.1-1.2-1.5-0.8c-0.8-0.5-1.4-1-1.4-1.1 0-0.1 0.6-0.4 1.4-0.7 1.5-0.5 1.8-0.5 3.2 0.1 0.8 0.3 0.9 0.4 2.1 2.9 0.7 1.5 1.3 2.8 1.3 3.1 0 0.3-0.3 1-0.6 1.6zm23.2-4.4c1-1 1.3-1.7 0.8-1.8-0.1-0.1-0.1-0.3 0-1.1 0.2-0.5 0.2-1.1 0.1-1.2-0.1-0.3-1.1-0.7-1.5-0.6-0.3 0.1-0.9 1.1-0.9 1.6 0 0.2-0.1 0.9-0.3 1.6-0.2 0.8-0.3 1.5-0.3 1.7 0.2 0.4 0.6 0.9 0.9 0.9 0.1 0 0.6-0.5 1.2-1.1zm-43 53.6c0.1-0.3-0.9-2.2-1.5-2.8-0.4-0.3-0.6-0.7-0.8-1.5-0.1-0.6-0.3-1.3-0.5-1.6-0.5-0.5-1.9-1.3-2.2-1.1-0.3 0.1-2.7 3.8-2.7 4.2 0 0.2 1.1 0.7 3.5 1.7 3.6 1.4 4 1.5 4.2 1.1zm-53.8 4.6l1.7-0.3v-0.7c0.1-0.5-0.1-0.9-0.7-2-1.1-1.8-3.7-5.6-4.2-6-0.1-0.2-0.8-0.5-1.3-0.6-0.6-0.2-1.3-0.5-1.6-0.7l-0.6-0.4-0.3 0.4c-0.1 0.2-0.4 0.7-0.5 1.1-0.2 0.6-0.2 0.9 0.1 2.4 0.4 1.7 0.4 1.7 1.6 2.9 0.9 0.9 1.3 1.1 2.2 1.4 0.6 0.2 1.1 0.4 1.2 0.5 0 0-0.2 0.4-0.6 0.7-0.3 0.3-0.6 0.6-0.6 0.7 0 0.3 1 0.9 1.4 0.9 0.3 0 1.3-0.2 2.2-0.3zm96.1-128c-1.4-2.1-1.5-2.2-3.7-3.9-2.8-2.2-3.3-2.2-4.5-0.7-0.3 0.3-0.6 0.5-0.8 0.5-0.4 0-2.1-1-2.4-1.4-0.1-0.2-0.9-0.6-1.6-1-1.5-0.6-3.1-2-3.5-3-0.2-0.4-0.2-0.5 0.1-0.8 0.2-0.2 0.4-0.4 0.4-0.4 0.1 0 1.3 0.5 2.6 1.2l2.5 1.1 2.3-0.1 2.2-0.1 2.4 1.2c1.3 0.6 2.7 1.3 3 1.5 0.8 0.6 3.4 4 3.4 4.5 0 0.3-0.1 0.9-0.2 1.5-0.3 0.8-0.3 1.1-0.1 1.3 0.2 0.2 0.2 0.3 0 0.5-0.1 0.2-0.3 0.3-0.4 0.3-0.1 0-0.9-1-1.7-2.2z"/></svg>