<svg version="1.2" xmlns="http://www.w3.org/2000/svg" viewBox="0 0 256 256" width="256" height="256"><style>.a{opacity:.5}</style><path class="a" d="m138.6 63.4c5.9 7.8 7.8 15.5 32.8 32.6 17.5 12.1 16.4 26.5 15.7 34.4-0.7 8.4-8.3 14.1-14 18.4-5.1 4.1-15.3 5.9-15.3 5.9 0 0 11.4-9.7 12.7-15.6 2-8.8-1.7-13.7-4.7-16.1-5.7-4.8-14.2-8.8-20.3-13.7-10.9-8.8-14.2-15-14.2-15v88.6c0 0-1.6 9.6-15 16.7-6.5 3.4-9.2 4.8-18.4 6.2-5.3 0.7-10.6 0.2-13.3-0.7-6.1-2.2-5.7-1.9-10.8-7.6-1-1.1-3.7-11.5 8.5-21 7.3-5.9 10.1-7.4 14.8-8.5 22.7-5.2 27.2-0.2 27.2-0.2v-124.2l7.3 0.5c0 0 1.1 11.5 7 19.3z"/></svg>