<svg version="1.2" xmlns="http://www.w3.org/2000/svg" viewBox="0 0 256 256" width="256" height="256"><style>.a{opacity:.5}</style><path fill-rule="evenodd" class="a" d="m38.3 98.9c0-21.4 17.4-38.7 38.8-38.7 4.5 0 8.7 0.7 12.6 2 3-18.3 19-32.3 38.3-32.3 19 0 34.8 13.5 38.2 31.6 4.2-1.6 8.9-2.6 13.9-2.6 21.4 0 38.8 17.4 38.8 38.8 0 12.6-6 23.8-15.2 30.8 8.5 7.1 14 17.8 14 29.8 0 21.4-17.4 38.8-38.8 38.8-4.5 0-8.9-0.8-12.9-2.2-3.5 17.8-19.1 31.2-38 31.2-19 0-34.8-13.5-38.2-31.6-4.2 1.6-8.9 2.6-13.9 2.6-21.4 0-38.8-17.4-38.8-38.8 0-12.2 5.6-23.2 14.5-30.2-8.2-7.1-13.3-17.5-13.3-29.2zm140.6 29.1c0-27.8-22.8-50.3-50.9-50.3-28.1 0-50.9 22.5-50.9 50.3 0 27.8 22.8 50.3 50.9 50.3 28.1 0 50.9-22.5 50.9-50.3z"/></svg>