<svg version="1.2" xmlns="http://www.w3.org/2000/svg" viewBox="0 0 256 256" width="256" height="256"><style>.a{opacity:.5}</style><path fill-rule="evenodd" class="a" d="m128 217.6c-6.7 2.2-12.3 5.7-24.9 4.1-10.3-3.3-15.1-4.5-19.6-12.8-1.5-7.2-0.6-9.9 1.1-14.2-2.3-3-2.9-4.2-10.9-16.3-5.5-13.5-9.4-9.9-15.4-18.5-9.3-9.9-11.7-22.3-11.2-33.5 1.2-8.6 1.5-10.6 5.9-16.6 5-7.2 8.7-6.4 15.8-8 0.4-4.9 0.2-5.6 0.3-8.9-5.3-4.4-8.5-8.7-10.6-13.8-1.8-9-1.4-14.7 5.7-24.5 4.6-4.8 5.9-5.8 9.7-7.6 1.6-0.2-1.3 6.1-0.2 14.2 2.8 8.1 5.4 10.7 11 12.2 3.3-3.8 3.3-11.6 10-21.1 6.2-8.4 11.5-13.5 15.8-15.1 2.2 2.9 2.8 7.8 5.7 10.4 3.5-3.2 7.3-11.1 11.8-12.9 0 28.2 0 61.6 0 99.9-6.8 5.5-17.2 5.8-17.2 5.8 0 0-0.1 16.8-0.1 19.9-9-3.5-12.5-11.2-13.5-22.1-8.9-5.1-13.1-7.3-16.5-15.3-6.4 2-9 12.8-8.1 23.7 9 13.2 16.2 24.9 25 44.3 3.8-5.7 8.8-18.1 14.3-16.1 0 4.1 0.1 7.5 0.1 18.2 4.7-0.8 7.7-0.9 11-1.2 2.3-0.2 3.1-0.2 5-0.2 1.9 0 2.7 0 5 0.2 3.3 0.3 6.3 0.4 11 1.2 0-10.7 0.1-14.2 0.1-18.3 5.5-2 10.5 10.5 14.3 16.2 8.8-19.4 16-31.1 25-44.3 0.9-10.9-1.7-21.7-8.1-23.7-3.4 8-7.6 10.2-16.5 15.3-1 10.9-4.4 18.3-13.5 21.9 0-3.2-0.1-19.7-0.1-19.7 0 0-10.4-0.3-17.2-5.8 0-38.3 0-71.7 0-99.9 4.5 1.8 8.3 9.7 11.8 12.9 2.9-2.6 3.9-9.5 6.6-10.6 4.5 1.7 8.8 6.7 14.9 15.3 6.7 9.5 6.7 17.3 10 21.1 5.6-1.5 8.2-4.1 11-12.2 1.1-8.1-1.8-14.4-0.2-14.2 3.8 1.8 5.1 2.8 9.7 7.6 7.1 9.8 7.5 15.5 5.7 24.5-2.1 5.1-5.3 9.4-10.6 13.8 0.1 3.3-0.1 4 0.3 8.9 7.1 1.6 10.8 0.8 15.8 8 4.4 6 4.7 8 5.9 16.6 0.5 11.2-1.9 23.6-11.2 33.5-6 8.6-9.9 5-15.4 18.5-8 12.1-8.6 13.3-10.9 16.3 1.7 4.3 2.6 7 1.1 14.2-4.5 8.3-9.3 9.5-19.6 12.8-12.6 1.6-18.2-1.9-24.9-4.1q0 0 0 0zm-11.4-112.4c0-2-0.1-4.9-0.1-8.4-11.6-5.1-15.4-8-21.5-16.6-5.3 2.7-5.9 19.3-0.2 25.1 9.8 0 12.3-0.1 21.8-0.1zm44.6 0.1c5.7-5.8 5.1-22.4-0.2-25.1-6.1 8.6-9.9 11.5-21.5 16.6 0 3.5-0.1 6.4-0.1 8.4 9.5 0 12 0.1 21.8 0.1z"/></svg>