<svg version="1.2" xmlns="http://www.w3.org/2000/svg" viewBox="0 0 256 256" width="256" height="256"><style>.a{opacity:.5}</style><path fill-rule="evenodd" class="a" d="m185.3 36.6l-10.1 15.2c8 2.2 16.1 7.6 20.4 14.3 5 7.7 6.5 21.3 8.1 35.2l-10.6-14.2-15 11.6-13.9-20.8-17.9 14.6-10.4-16.7-16.7 9.3c6.3-21.9 22.4-31 44.5-34l-2.7-18.9zm-40.7 66.3l18-14.8 13.9 20.7 15.2-11.8 3.1 4.1h-0.2c0.7 22.1 1.5 62.2-12.3 82.6-19.1 28.3-49.3 34.2-69.9 33.5-20.6-0.7-42.7-11.8-52.4-27.1-10.6-16.7-9.7-39.3 0.7-52 18-21.9 42.2-24.4 49.7-28.9 8.3-4.9 12.4-13.3 15.7-20l7.3-4zm-33.5 21.3c0 4.4 2.6 8.2 10.1 8.2q0.3 0 0.5 0c-1.8-1.4-2.8-3.3-2.8-5.5 0-5 5.8-8.9 10.8-8.9 4.5 0 8.1 3.1 8.9 6.5 1.1-1.4 1.7-2.9 1.7-4.5 0-5.6-6.2-10-13.5-10-8.6 0-15.7 7.1-15.7 14.2zm35.2-2.3c1.7-1.2 3.9-2 6.5-2 6.3 0 10.9 4.9 10.9 9.3 0 2.2-1.3 4.2-3.3 5.8 1.9 0.8 3.8 1.2 5.5 1.2 6.4 0 8.8-3.6 8.8-9.4 0-7.3-8.1-14.7-19-14.7-5.8 0-9.4 3-9.4 9.8z"/></svg>