<svg version="1.2" xmlns="http://www.w3.org/2000/svg" viewBox="0 0 256 256" width="256" height="256"><style>.a{opacity:.5}</style><path fill-rule="evenodd" class="a" d="m128.4 70c46.5 0.3 53.7 38.2 69.9 33.7 2.8-0.8 2.6-0.2 3.6-3.1 0.3-2.3-4.4-2.9-3.4-8.2 2.9-3.9 8.6-3 11.8-0.6 2.9 5.5 4.2 6.4 3 14-3.5 7.5-7.5 8.7-21 10-8.8 12.7-10 16.6-24.3 25.3-15.3 8.3-28.1 8.7-33.9 9.4 0.1 11.4 1.7 23.6 3.8 32.3 3.2 8.6 7.8 19.1 6.1 29.7-2 12.2-12 16.5-15.6 16.5 0-2.4-0.1-5.4-0.1-8.7 0 3.3 0 6.3 0 8.7-4.1 0-14-4.2-16-16.3-1.7-10.6 2.9-21.1 6.2-29.8 2.1-8.6 3.6-20.9 3.8-32.2-5.9-0.7-18.7-1.1-34-9.4-14.2-8.7-15.5-12.7-24.3-25.3-13.4-1.3-17.4-2.6-21-10-1.2-7.6 0.1-8.5 3-14 3.3-2.4 8.9-3.3 11.9 0.5 0.9 5.3-3.7 6-3.4 8.2 0.9 2.9 0.7 2.4 3.5 3.2 16.2 4.4 24.1-33.5 70.7-33.9m-0.4 18.6c-11.1 0.4-21.5 9.7-21.5 22.2 0 12.5 10.1 21 21.2 21.3q0 0 0-0.1c11.2-0.2 21.6-8.7 21.6-21.3 0-12.4-10.3-21.7-21.3-22.2q0 0 0 0.1zm-30.3 21.4c0.3-10.8 7.5-20.9 10-22-21.1 9-18.1 13.3-26 19-3.8 2.7-7.6 2.9-7.6 5.4 0.5 7 26.9 23.8 37.6 23.6 4.2-0.1-14.6-4.4-14-26zm-27.7-19.3c-1.5 0.3-10.8-41.6-9.3-41.5 0.9-1.7 35.7 14.1 39.3 17.5 1.5 1.4-7.4 3.6-15.9 10.2-7.6 6-13.7 14.2-14.1 13.8zm58.1-27.8c-13.5 0-18.7 3.2-19 1.9-0.2-0.1-0.4-1 0.1-2.4 8-17.9 16.7-35.3 18.9-35.3 0 12.8 0 16 0 35.8zm15.9 72.9c10.7 0.3 37.1-16.5 37.6-23.5 0-2.5-3.7-2.7-7.6-5.5-7.9-5.6-4.9-9.9-26-19 2.5 1.1 9.7 11.2 10 22 0.6 21.6-18.2 26-14 26zm27.6-59.1c-8.5-6.6-17.4-8.7-15.9-10.1 3.7-3.5 38.4-19.3 39.3-17.5 1.6-0.2-7.8 41.8-9.3 41.5-0.4 0.3-6.5-7.8-14.1-13.9zm-43.6-49.6c1.8 0 10.6 17.2 18.5 35.1 0.5 1.4 0.3 2.3 0.2 2.5-0.4 1.2-5.2-1.8-18.7-1.8 0-19.8 0-23 0-35.8z"/></svg>