<svg version="1.2" xmlns="http://www.w3.org/2000/svg" viewBox="0 0 256 256" width="256" height="256"><style>.a{opacity:.5}</style><path fill-rule="evenodd" class="a" d="m98.2 89.8c-3.9 8-8.8 19 0.6 30.7 6.6 7.7 15.4 5.2 16.5 11.1 0.2 2.9 0.3 4.5-2.7 6.3-2.7 1-5 1-7.3 0.4l-4 21.5-13.6-2.9 10.8-22.2q-2.4-1.7-4.2-3.5l-21.2 22.6-13.6-8.5 30.1-19.9c-1-1.8-1.8-3.5-2.3-5.2l-39.3 13.4-10.5-17.5 48.7-3.9q-0.1-1.3-0.1-2.3 0.1-1.9 0.4-3.5l-53.9-6.6-7.8-21.7c0 0 53.3 17.7 64.4 20.9 3.4-6.3 8.3-9.8 8.6-10.1 1.2-0.6 1.4-0.5 0.4 0.9zm23.4 74.6c0 0 3.6-5.2 2.4-9.7-5.3-6.6-10.6-5.5-10.5-8.1 6.1-4.4 4.5-6.9 7.2-12.1 5-6.4 7.3-12.7 7.3-12.7 0 0 2.3 6.3 7.3 12.7 2.7 5.2 1.1 7.7 7.2 12.1 0.1 2.6-5.2 1.5-10.5 8.1-1.2 4.5 2.4 9.7 2.4 9.7l-6.4 14.5zm36.6-75.5c0.3 0.3 5.2 3.8 8.6 10.1 11.2-3.2 64.4-20.9 64.4-20.9l-7.8 21.7-53.9 6.6q0.3 1.6 0.5 3.5-0.1 1-0.1 2.3l48.6 3.9-10.4 17.5-39.4-13.4c-0.5 1.7-1.2 3.4-2.3 5.2l30.2 19.9-13.7 8.5-21.2-22.6q-1.8 1.8-4.1 3.6l10.8 22.1-13.7 2.9-4-21.5c-2.3 0.6-4.5 0.6-7.2-0.4-3.1-1.8-3-3.4-2.8-6.2 1.1-6 10-3.5 16.5-11.2 9.5-11.6 4.6-22.7 0.6-30.7-0.9-1.4-0.7-1.5 0.4-0.9z"/></svg>