<svg version="1.2" xmlns="http://www.w3.org/2000/svg" viewBox="0 0 256 256" width="256" height="256"><style>.a{opacity:.5}</style><path fill-rule="evenodd" class="a" d="m97.2 199.1c-24.1 0-41.2-18.4-41.2-42.5 0-11.6 4.6-22.2 12-30l0.2-0.2q0.5-0.5 1.1-1.1l28.8-28.8 25.6-26.1c8.5-8.9 20.8-14.4 33.9-14.4 24 0 41.4 18.1 41.4 42.1 0 11.7-4.8 22.6-12.3 30.4l-0.2 0.2q-0.5 0.5-1 1.1l-25.7 25.8h0.1l-28.9 29.1c-8.4 8.9-20.7 14.4-33.8 14.4zm-23.3-66.1c-6.1 6.1-9.9 14.6-9.9 24 0 18.8 15.2 34 34 34 9.3 0 17.7-3.7 23.8-9.7h0.1l27.5-27.4-48.1-48.1z"/></svg>