<svg version="1.2" xmlns="http://www.w3.org/2000/svg" viewBox="0 0 256 256" width="256" height="256"><style>.a{opacity:.5}</style><path class="a" d="m113.4 141.7c1.7 6-3.1 8-5.7 10.5-3.7 3.6-12.3-5.8-17.8-12-9-10.2-5.6-18 0.2-29.1 7.5-14.1 15.5-17.8 33.4-14.6 20.3 3.5 29.3 8.7 42.9 25.2 10 12.3 14.4 20.7 3.6 32.6-12.1 13.3-15.4 16.6-32.4 29.3-16.9 12.6-21.2 21-40 14.4-20.5-7.3-21.1-8.6-41.3-16.4-10.3-4-16.4-9-17.8-21.2-3.1-25.7-2.9-28.7-3.5-55.3-0.2-10.5 2-13.3 9.6-20.7 16.6-16.1 21-18.4 43.9-34.7 6.2-4.3 8.1-4.1 15.6-3.1 36.4 5 40.3 7.5 74.7 17.9 7.9 4.2 8.3 4.6 13.8 11.7 13.7 27.9 15.5 31.8 26.5 62.2 2.6 9.6 2.4 12.1-2.6 22.8-19.4 21.6-24.8 28.8-47.6 49.7-2.9-3.9-3.1-4.9-7.5-10.8 12.1-16.1 19-16.8 31.3-37.8 5.1-13 3.3-8.5 7.8-19.4-0.1-21.6-1.5-23.7-10-44.4-6.1-7.7-7.6-8-17.2-11.9-27.2-11-24-9.7-49.8-17-10.2-2.9-11.2-1.1-21.9 2-19.8 7.8-21.1 8.1-36.4 20.4-4.5 3.6-5.1 4.2-6.5 9.7-4.4 16.5-4.4 20.3-5.4 39-0.3 4.4 0.4 5.2 3.2 8.6 21.9 18 22.9 17.4 45.4 32.4 6.4 1.6 7.8 1.3 14.1-1 19.8-15.6 18-16.8 35.4-29.9 3-5.1 3.2-6.7 1.4-12.2-2.8-8.7-3.4-10.1-7.7-17.4-2.4-4.2-5.2-5-9.7-6.6-7-2.6-7-2.7-16.3-3.1-7.2-0.3-10.5 0.1-14.4 5.1-2.7 3.4-3.8 2.5-3.2 7.1 0.8 6.4 10.1 11.4 11.9 18z"/></svg>