<svg version="1.2" xmlns="http://www.w3.org/2000/svg" viewBox="0 0 256 256" width="256" height="256"><style>.a{opacity:.5}</style><path class="a" d="m131.2 131.4c-6.7 0-19 0.9-27.1 3.4-1.8 0.6 3.8-10 4.9-11.4 2.8-3.8 4.5-6.2 11.3-9.9 9.9-5.4 7-3.4 32-11.2 24.9-7.8 52.1-38 36.2-75.2-0.5-0.7-1.1-0.3-1.2-0.3-1.1-0.1-8.6 15.7-34.1 25-25.2 9.2-33.7-1.3-64.6 7.1-31.3 8.6-39.9 25-39.5 40.1 3.9 19 29.9 11.8 33.4 29.9 0.7 4.5-1.4 8.4-3 8.8-16.4 4.3-23.5-4.6-23.5-4.6 1.5-3.5 1.4-7 0.3-11.3-1.9 2.1-5.5 6.4-8.5 7.9-3.2 1.5-7.1 2.1-10.1 4.2-3.4 2.5-4.6 6.5-4.3 8-3.1 2.8-6.3 4.6-9.7 4.9-0.6 0.3-1.7 1.4-1.7 2 0 0.7 0.5 4.3 4.3 5.7 6.7 2.4 12.6 0.9 15.6-0.3 6.6 4.3 12.1 1.9 12.1 1.9-1.3-0.9-2.3-1.9-2.3-2.9 3.5 0.8 8.6 1.3 12.4 3.6 0 0 8.7-0.3 6.4 13-0.2 1-2.2 6.9-4.3 8.9-2.1 2-5.1 4.1-7.8 7.2-2.7 3.2-4.1 6.2-4.7 8.6-0.7 3.2-1.6 11.6-0.4 11.4 1.2-0.1 3.1-5.6 7.4-10 4.7-4.8 7.1-4.2 13-7.5 4.4-2.5 10-5.4 14.9-14.3 2.9-4.9 2.2-10 2.2-10 0 0-0.2-0.4 1.8-1 1.7-0.3 8.1-0.2 8.9-0.3 2.2 0.1 6.4-0.2 6.3 0.2-0.6 1.1-1.6 2 1.8 7.3 3 4.5 20.7 7.1 22.1 8.1 1.4 1 2.1 5.4 1.1 9.2-0.9 3.1-4.2 8.9-5.8 10.8-1.5 1.8-3.8 3.4-3.8 3.8 1.3 1.2 9.1-4.6 10.7-6.2 1.9-2 3.9-3.2 6.4-6.9 4.1-5.9 5.9-15.9 4.1-19-1.4-2.5-6.5-2.6-6.7-4.8-0.5-5.3 4.2-9.2 7.8-14.5 5.4-7.8 1-13.3 1-13.3-3.4-3.3-10.2-6.1-15.3-6.1zm22.3 8.4c3.5 2.5 15.1 12.2 38.1 9.1 35.5-6.7 44.1-36.4 42.1-46.7-1.3-1.6-12.9 18.1-41.5 19.4-8.2 0.4-14.6-3.7-31.7 0.6-12.7 4.2-10.7 13.1-7 17.6zm-18.8-11.7m16.5 14.7"/></svg>