<svg version="1.2" xmlns="http://www.w3.org/2000/svg" viewBox="0 0 256 256" width="256" height="256">
	<title>25e - Chrom</title>
	<style>
		.s0 { opacity: .5;fill: #000000 } 
	</style>
	<path id="path828" fill-rule="evenodd" class="s0" d="m158.6 116.4c0 17.1-14.5 31.9-30.6 31.9-16.1 0-30.7-14.8-30.7-31.9 0-25.9 24.8-43.6 30.7-84.9 5.8 41.3 30.6 59 30.6 84.9zm-62.2-53.7l2.8 4.1c0.7 1 0.9 2.5 0 3.5-27.9 35.7-19.8 92.6 28.8 92.6 48.5 0 56.7-56.9 28.7-92.6-0.8-1-0.6-2.5 0-3.5l2.8-4.1c0.6-0.8 1.8-1.4 2.7-1.4q0.5 0 0.8 0.2c31.4 16.4 63.9 34 77.1 67.9-15.4-16.4-32.8-30-53.7-37.6-1.2-0.4-3.4 0.6-1.9 3.5 23.8 45.2-2.8 89.5-43.9 98.2-1.4 0.3-2.2 1.5-2.5 3.5-1.8 10.5-5.3 20.2-10.1 29-4.8-8.8-8.4-18.5-10.1-29-0.4-2-1.2-3.2-2.6-3.5-41-8.7-67.7-53-43.9-98.2 1.6-2.9-0.6-3.9-1.9-3.5-20.9 7.6-38.3 21.2-53.6 37.6 13.1-33.9 45.6-51.5 77-67.9q0.3-0.2 0.8-0.2c0.9 0 2.1 0.6 2.7 1.4zm10.4 55c0 10.4 8.1 20.4 21.2 20.5 13.1-0.1 21.1-10.1 21.1-20.5 0-20.8-17.4-33.3-21.1-48.3-3.8 15-21.2 27.5-21.2 48.3z"/>
</svg>