<svg version="1.2" xmlns="http://www.w3.org/2000/svg" viewBox="0 0 256 256" width="256" height="256"><style>.a{opacity:.5}</style><path class="a" d="m59.5 142.9l-18.5 13-1.4-2.1c-1.1-1.5-3.2-1.9-4.8-0.8-1.6 1.1-1.9 3.2-0.8 4.8l25.2 36c1.1 1.6 3.2 2 4.7 0.9l0.1-0.1c1.5-1 1.9-3.2 0.8-4.7l-1.4-2 18.5-13c8.8-6.2 10.9-18.3 4.8-27.2-6.2-8.8-18.4-10.9-27.2-4.8zm-15.7 32.1l-3.1 2.1c-1.8-1.1-4.2-1.1-6 0.2-2.5 1.8-3.2 5.3-1.4 7.8 1.8 2.5 5.3 3.1 7.8 1.4 1.9-1.3 2.7-3.6 2.3-5.7l3-2.1zm125.2-123.7c-20.8 0-30.4 11.2-34.4 20.3-9.2-0.5-18.9-1-19.5-0.7-1.2 0.5-3.9 2.8-2.1 5.8 1.3 2.2 12.9 5.1 18.6 6.5-0.4 3.2-0.8 7.1-1.2 11.2-4.6-3.1-9.9-5.4-13.3-3.7-7.2 3.7-7.4 14.7-3.1 20 3.2 3.8 10.8 5.1 15 5.5-0.1 1.6-0.1 2.8-0.1 3.2 0 2.5 1.2 6.8 6.5 6.8 5.3 0 6.5-6 10.2-9.5 3.7-3.6 11.4-9.8 18.3-9.8 5.8 0 11.3 6.4 11.3 14.5 0 8.1-8.3 11-12.3 12-4 0.9-11 1.2-10.9 4.1 0.1 2.2 1.6 4.5 19.3 1.5 2.8-0.5 6.2-1.2 9.9-2.1 4.1 41.8 22.6 57.2 39 56.9v-53.4c-5.6 8.1-20.6 9.6-30-6.5 12.3-5 24.4-14.6 24.4-33.7 0-26.8-15.7-48.9-45.6-48.9zm-62.8 67.5c-5.8 0-16.5 5.7-16.5 14.9 0 5.9 8.2 8.8 14.1 4 0.2 9 2.5 11.5 6.3 9 16.5 25.3 53.2 33.9 72.8 23.5l-6.7-22.1c-10 6.5-10.2 9.3-29.5 9.3-19.9 0-31.7-9-31.7-17.4v-14.1c0-2.7-3-7.1-8.8-7.1z"/></svg>