<svg version="1.2" xmlns="http://www.w3.org/2000/svg" viewBox="0 0 256 256" width="256" height="256">
	<title>25e - Chrom</title>
	<style>
		.s0 { opacity: .5;fill: #000000 } 
	</style>
	<path id="Shape 1" fill-rule="evenodd" class="s0" d="m128 223.5c-10.9-1.4-12.6-24.1-12.6-28.5 10.1 0 12.6 0 12.6 0 0 0 2.5 0 12.6 0 0 4.4-1.7 27.1-12.6 28.5zm0-31.5h-21.6l-16.4-42h11l15 30h12v-0.1h12l15-30h11l-16.4 42h-21.6zm0-16h-9l-32.6-61.2-14.7 55.2 8 13-50.2-0.1 11-12.9 24.2-93-9.7-10h45l-8 10 36 61.9 36-61.9-8-10h45l-9.7 10 24.2 93 11 12.9-50.2 0.1 8-13-14.7-55.3-32.6 61.3h-9zm0-44l-13-23c0 0 1.5-24-7-42 7.6-15.2 18.1-30 20-30 1.9 0 12.4 14.7 20 30-8.5 17.9-7 42-7 42l-13 23z"/>
</svg>