<svg version="1.2" xmlns="http://www.w3.org/2000/svg" viewBox="0 0 256 256" width="256" height="256">
	<title>25e - Chrom</title>
	<style>
		.s0 { opacity: .5;fill: #000000 } 
	</style>
	<path id="Shape 1" class="s0" d="m48 219c-1.3 0.2-3.7-5.6-3-6-0.6-1 25.2-3.9 33.1-12.5-10.2-4-22.4-14.3-32.9-33-12.1-21.7-16.5-58.7-1.2-84.5 10.1-17 37.9-38.7 73.5-45.2 1.9-0.3 3.6 3.7 1.8 4.9-5 3.4-21 5.8-30.6 19.8-8.8 12.7-4.4 32.6-5.7 49.5-1.1 14.6-5.7 18.1-10.1 22.1-10.2 9.1-13.4 15.4-11 30.1 2.8 17.3 20 31.4 23.9 30.9 2.7-0.4 18.7-12.7 20.5-27.8 2.4-19.1 2.9-33.2-20.2-40.8-2-0.6 1-2.4 3-2.9 9.4-2.6 16.5 3.1 23.7 9.4 8.7-10.7 23.6-20.6 22.2-32.3-2.6-21.4-21.6-16.4-24.7-15.6-3.9 1-5.8-1.5-5-4.3 2.3-7.7 16-12.2 25.2-9.8 16.8 4.5 22.5 18 21.8 37.4 6.9-6.3 26.3-17.4 39.6-14.7 18.6 3.8 29.6 16.5 30.7 34.3 1.1 18.2-12 38.2-27.6 38-12.4-0.1-29-11.3-27.9-25.6 0.5-7.1 5.9-17.3 13.5-17.3 3.4 0.1 7.6 3.5 5.4 9.9-2.4 6.9-10.4 2.2-11.3 2.9-4.1 5.3-0.2 17.2 12.5 18.9 10.1 1.3 21.6-5.7 20.8-21.8-0.8-15.8-9.9-21.5-25.2-22.8-29.1-2.4-65.1 36.5-64.5 51.5 0.8 21.5 18.9 17.3 23.4 8.8 1.8-3.6 1.4-13.1-2.9-16.8-6.3 9.2-10.1 2.3-10.8 1.3-0.8-1.1 2.7-7.1 7-7.4 6.3-0.3 11.7 6.1 14.4 10.8 3.3 5.9 3.8 19.1-2.4 26.6-8.5 10.2-24.3 11.5-30.8-0.5-11.8 10.2-13.9 14.5-30.2 22.3-17.8 8.4-22.9 10.2-38 12.2z"/>
</svg>