<svg version="1.2" xmlns="http://www.w3.org/2000/svg" viewBox="0 0 256 256" width="256" height="256"><style>.a{opacity:.5}</style><path fill-rule="evenodd" class="a" d="m99.5 105c16.3 0 29.5 13.2 29.5 29.5 0 13-7.5 22-17.7 27.1-13.4 6.7-69.2-5.6-69.3-7.8-0.1-2.8 8.6-14.4 18.3-24.2 5.9-6 13.3-13 20.1-17.6 6.8-4.6 11.8-7 19.1-7zm23.7 29.7c0-13.3-10.7-24-24-24-13.3 0-24 10.7-24 24 0 13.3 10.7 24 24 24 13.3 0 24-10.7 24-24zm29.1-21.5c11.7 37.6-17.4 64.5-17.6 66.2-0.1 0.9 33.5 32.6 35 32.6 1.3 0 6.8-5.7 6.8-6.7 0-0.7-29-24.9-28.7-27.9 23.4-31.9 15.9-54.9 17.2-55.7 1-1.3 41.7-0.7 42.1 0.1 0.5 1.1 1 10.5-0.1 11.8-1.4 1.6-30.4 0.1-32.8 0.1-0.4 28.3-13.7 41.4-13.1 43.4 0.8 2.4 28.6 26.2 28.6 28.2 0 1.7-16.7 20.8-19.8 20.8-3.5 0-48.5-43.3-48.6-45.9 0-4.6 21.6-17.9 23.5-46.9 1.1-16.6-9-31.5-17.3-39-12.2-10.9-30.4-10.3-31.8-11.4-1.4-1.1-1-48.6-0.3-49.7 0.9-1.3 10.3-1 11.7-0.4 0.8 1.9-0.4 39.3-0.5 41.1 20.3 2.5 38.4 15.6 45.7 39.3zm-13.6-36c0.2-3.5 3.4-2.9 16.3-11.6 15.4-10.4 18.1-13.2 20.2-11.1 2.4 2.4-0.5 5.1-8.7 20.8-8 15.3-8.4 20-11 20.4-2.1 0.4-3.4-5.2-7.9-9.9-4.1-4.5-9.2-7-8.9-8.6z"/></svg>