<svg version="1.2" xmlns="http://www.w3.org/2000/svg" viewBox="0 0 256 256" width="256" height="256">
	<title>34 - Ivysaur</title>
	<style>
		.s0 { opacity: .5;fill: #000000 } 
	</style>
	<path id="Shape 1" fill-rule="evenodd" class="s0" d="m102.4 213.3l-4.1-24.3c-5.1-1.7-41.5-7.5-48-48.4-9-56.6 106.7-104.6 110.1-102.9 3.1 1.6 65.2 85.8 46.3 122.1-14.8 28.5-55.7 32.7-80.7 33.7l2 23.9zm12-43.2c2.3-4.9 23.4-23.3 64.5-17.6-4.1-6.3-38.9-11.6-61.8 0.5 1.5-7.2 1.5-14.5 3.3-18.8 3.6-8.4 40.3-19.9 62.3-9-11-17.3-46.7-12.7-58.2-4.9 1.2-6.2 1.1-10 3.5-12.8 10.9-12.7 37.8-14.4 47-14.4-6.1-4.5-31.6-5.5-42 1.8 3.2-12.9 12.6-30.6 14-34-3.4 2.8-14.3 16.8-22.5 33.9-7-7.2-22.1-11.7-29.2-9.7 9.2 1.8 25 15 23.7 20.8-0.5 2.7-1.3 4.3-4.6 12.1-6.6-4.1-25.7-14-39.5-5.6 16-0.6 35.2 12.2 35.1 18.5 0 3.6-1 9-3.4 18.8-8.1-7.5-31.8-12.8-39.7-6.6 4.6 1 20.8-2.1 38.3 20.2 1.3 1.7 0.1 21.9 7.1 31.8 0.4-16.8 1.2-23.1 2.1-25z"/>
</svg>