<svg version="1.2" xmlns="http://www.w3.org/2000/svg" viewBox="0 0 256 256" width="256" height="256">
	<title>36 - Diddy Kong</title>
	<style>
		.s0 { opacity: .5;fill: #000000 } 
	</style>
	<path id="Shape 1" fill-rule="evenodd" class="s0" d="m200.5 138.8c2.3 0.6 3.8 2.3 3.7 3.8-0.1 1-0.7 2.2-1.9 3.2l-24 19.5 2 30.8c0 0.3 0.2 1.1 0.1 1.7-0.1 0.9-0.1 1.4-0.6 1.9-0.5 0.6-1.2 0.7-2 0.6-0.8-0.1-1.5-0.2-2.4-0.8l-26.5-16.3-28.6 11.9c-0.9 0.4-1.8 0.6-2.6 0.6q-1.3-0.1-1.9-1.1-0.5-1-0.4-2.3c0-0.3 0.3-1.8 0.5-2.4l7.3-29.6-19.8-23.2c-0.9-1.2-1.4-3.1-1.3-4 0.1-1.6 1.3-3.2 3.7-3.4l30.9-1.3 16-26.6c0.9-1.6 2.4-2.2 3.7-2.1 1.2 0.1 3 1.1 3.6 2.9l10.8 28.9zm-32.9-3.1l-9.6-24.4c-0.5-1.5-1.1-3.3-2.1-3.4-1-0.1-1.8 1.6-2.6 3l-13.5 22.3-25.8 1.5c-1.9 0.1-3.4 0.4-3.5 1.7-0.1 0.7 0.7 2 1.5 3l16.8 19.9-6.7 25.3c-0.1 0.5-0.4 1.1-0.4 1.3-0.1 0.7-0.3 1.3 0 1.9 0.3 0.5 1.1 0.3 1.8 0.4 0.6 0 1.6 0.1 2.4-0.3l23.5-10.3 22 14.5c0.7 0.4 1.3 0.9 2 0.9 0.6 0.1 1.5 0.5 1.9 0 0.4-0.5 0.5-1.4 0.6-2.1 0-0.5-0.1-1.2-0.1-1.5l-2.1-26.1 19.9-16.6c1-0.8 2.3-2.2 2.4-3 0.1-1.2-1.4-1.4-3.3-1.9zm14.5 9.3q2 0.6 1.9 1.9-0.1 0.9-1.2 1.7l-15.5 12 2 19.5q0 0.3 0 0.8-0.1 0.8-0.5 1.3-0.5 0.5-1.2 0.4-0.7-0.1-1.4-0.6l-16.2-10.9-18.3 7.9q-0.9 0.4-1.6 0.3-0.7 0-1.1-0.6-0.3-0.6-0.2-1.4 0-0.2 0.1-0.7l6-18.9-13.2-14.8q-0.8-1.1-0.7-1.9 0.1-1.4 2.2-1.5l19.6-0.7 10-17.4q0.9-1.5 2-1.4 1.1 0.1 1.6 1.7l6.5 19zm-69.7-79.9q2.3-0.5 3 0.9 0.3 0.8-0.2 2.3l-7.8 19.4 11.1 17.6q0.2 0.3 0.4 0.8 0.4 0.8 0.2 1.6-0.1 0.7-0.9 1-0.7 0.3-1.7 0.2l-20.6-1.3-13 16.3q-0.6 0.9-1.3 1.2c-0.5 0.2-1.7 0.1-2.1-0.2q-0.7-0.4-1-1.2-0.1-0.2-0.3-0.8l-4.7-20.4-19.4-7.7q-1.4-0.7-1.7-1.5-0.7-1.4 1.3-2.7l17.4-11.1 1.1-20.4c0-1.3 0.7-2.1 1.4-2.4 0.8-0.4 2.2-0.2 3.1 0.7l15.4 12.9zm-20.9 8.7l-13.2-11.3q-1.2-1-2.1-0.6-1 0.4-1 2l-0.7 17.4-14.6 9.1q-1.6 1.1-1.1 2.2 0.3 0.7 1.4 1.2l16.3 6.2 4 16.7q0.1 0.5 0.2 0.7 0.3 0.7 0.8 1 0.5 0.3 1.2 0 0.6-0.2 1.1-0.9l10.9-13.4 17.2 1.4q0.8 0.1 1.4-0.2 0.6-0.3 0.8-0.9 0.1-0.6-0.2-1.2-0.2-0.4-0.3-0.6l-9.6-14.6 6.4-16.2q0.5-1.1 0.1-1.8-0.5-1.2-2.3-0.7zm10.8 1.1q1.4-0.3 1.8 0.5 0.2 0.5-0.1 1.4l-4.7 11.6 7 10.6q0.1 0.1 0.2 0.4 0.2 0.5 0.1 0.9-0.1 0.5-0.5 0.7-0.5 0.1-1.1 0.1l-12.4-1-7.7 9.8q-0.4 0.5-0.8 0.7-0.5 0.2-0.9 0-0.4-0.3-0.6-0.7 0-0.2-0.1-0.5l-3.1-12.3-11.7-4.5q-0.8-0.3-1.1-0.8-0.3-0.9 0.8-1.6l10.6-6.6 0.5-12.6q0-1.1 0.7-1.4 0.7-0.3 1.5 0.4l9.6 8.2z"/>
</svg>