<svg version="1.2" xmlns="http://www.w3.org/2000/svg" viewBox="0 0 256 256" width="256" height="256"><style>.a{opacity:.5}</style><path fill-rule="evenodd" class="a" d="m217.2 78.4c-24.1 3.7-33.6 7.1-44.3 22.8 34.3 2.4 45.5 20.3 54.6 41-15.9-0.6-32.8-1-49.7 12.2 33 8.7 38.7 35.2 38.7 47.9 0 0-16.3-10.5-46.7-10.5-33.8 0-41.6 12.9-69 12.9-15.1 0-29.1-8.2-39.8-19.8-12.6 0-18.8-3.3-18.8-7.3 0-3.5 5.9-6 9.4-6.8-6.9-10.5-10.8-21.7-10.8-31.9 0-7.3 1-13.6 2.5-19.1-11.2-23.2-9.9-29.5-9.5-30.3l2.2-4c0.4-0.6 7.5-4.6 31.7 2.5 13.9-16.4 41.7-37.1 82.5-37.1 22.8 0 48.9 7.4 67 27.5zm-158.6 76.4c-0.1-5.9 0.4-7.8 4.3-10.3-5.7-10.2-4.8-22.4-9.1-22.4-3.8 0-7.4 10.5-6.3 22.8 0.8 8.8 4.4 19.2 8.7 25 3.3 0 3.4-0.4 8.8 1.1-3-3.4-6.3-9.1-6.4-16.2zm43.6 21.8c7.6-0.2 24.2-7 24.2-34.1 0-19.9-6.1-37.8-18.6-37.8-32.8 0-31.8 45.7-33.5 47.2-1.4 1.4-4.1 1-5.4 0.4 3.2 4.4 4.7 13 1.4 19.5 17.5 0 12.8 5.3 31.9 4.8zm12.2-12.8c-5.2 1.5-9.2-4.2-10.8-14.9-1.6-10-0.5-17.6 4.1-18.6 4.6-1 9 4.1 10.6 13.9 1.8 11.8 1.7 18-3.9 19.6z"/></svg>