<svg version="1.2" xmlns="http://www.w3.org/2000/svg" viewBox="0 0 256 256" width="256" height="256"><style>.a{opacity:.5}</style><path fill-rule="evenodd" class="a" d="m39 128c0-49.2 39.8-89 89-89 49.2 0 89 39.8 89 89 0 49.2-39.8 89-89 89-49.2 0-89-39.8-89-89zm81.2-2.7l-3.2-34.4c-0.6-12.2-10.7-21.9-23-21.9-12.7 0-23 10.3-23 23 0 4.9 1.5 9.4 4.1 13.1l19.4 29.9c-9.5 6.9-15.4 16.6-15.4 27.5 0 20.8 21.8 37.7 48.9 37.7 27.1 0 48.9-16.9 48.9-37.7 0-10.9-5.9-20.6-15.4-27.5l19.4-29.9c2.6-3.7 4.1-8.2 4.1-13.1 0-12.7-10.3-23-23-23-12.3 0-22.4 9.7-23 21.9l-3.2 34.4q-3.8-0.5-7.8-0.5-4 0-7.8 0.5z"/></svg>