<svg version="1.2" xmlns="http://www.w3.org/2000/svg" viewBox="0 0 256 256" width="256" height="256"><style>.a{opacity:.5}</style><path fill-rule="evenodd" class="a" d="m146.4 100.8l22.6 6.7v48.1l-130.6 71.4 71.2-71.8-22.6-6.7v-48.1l130.6-71.4zm-54.5 2.6v41.4l21.6 6.4 19.2-19.4 3.6 3.5-70.3 70.9 98-53.6v-41.4l-21.6-6.4-19.2 19.4-3.6-3.5 70.3-70.9zm58.5-43.4l-68.5 37.5v54.7l18.1 5.4-21.7 22c-13.5-13.1-21.9-31.3-21.9-51.6 0-39.5 32-71.6 71.5-71.6 7.9 0 15.4 1.3 22.5 3.6zm49.1 68c0 39.5-32 71.6-71.6 71.6-7.8 0-15.4-1.3-22.4-3.6l68.5-37.5v-54.8l-18.2-5.3 21.7-22c13.6 13.1 22 31.3 22 51.6z"/></svg>