<svg version="1.2" xmlns="http://www.w3.org/2000/svg" viewBox="0 0 256 256" width="256" height="256"><style>.a{opacity:.5}</style><path fill-rule="evenodd" class="a" d="m26.8 131.3q-0.7-0.3-1.2-0.5c-0.9 2.6-2.9 4.5-5.2 4.5-3.2 0-5.7-3.3-5.7-7.4 0-4.1 2.5-7.3 5.7-7.3 2.3 0 4.2 1.7 5.1 4.3q0.6-0.1 1.3-0.3c4.2-0.9 10.9-1.5 10.9-1.5 9.3-38 56.6-51 146-32.1v19.5l15-5.8 0.1 50.2-15.1-7.4v18.4c-110.3 20.4-134.1-2.1-146.6-32.6zm78.3-3.5c0-11.1-8.7-20.8-21.6-20.8-11 0-20.6 8.7-20.6 20.8 0 12.2 6.8 22.4 20.3 22.4 14.4 0 21.9-6.4 21.9-22.4zm-20.9 18.8c-9.7 0-17.6-8-17.6-17.8 0-9.8 7.9-17.8 17.6-17.8 9.7 0 17.5 8 17.5 17.8 0 11.4-7.8 17.8-17.5 17.8zm28.6 3.4h25.5v-24.4h-25.5zm31.2 2.5h25.5v-24.4h-25.5zm-17-31.8h26.5v-25.6h-26.5zm74.7 36.3v-57.4l21.7-32.9 1 25.7 16.7 8.2-14.9 28.6 14.9 14.4-12.5 14.8 7.9 31.5zm27.9 20.1l-5.8-20.1 10.9-13.2-14.4-14.2 14.2-26.6-14-6.5v-16.4l-15 22.9v51z"/></svg>