<svg version="1.2" xmlns="http://www.w3.org/2000/svg" viewBox="0 0 256 256" width="256" height="256"><style>.a{opacity:.5}</style><path fill-rule="evenodd" class="a" d="m112 211c-1.5 0-2.5-0.9-2.5-2.7v-19.7-12.1l-4.8-0.1-0.1 12.1c-21.6 0-40.4 5.2-48.2 21.6-0.6 1.3-2.4 1.2-2.4-0.5 0-18.9 11.6-39.3 36.5-42v-3.5c-45.9-18.9-48.5-59.5-48.5-63.1 0-4.6 17.6-57 86-57 68.4 0 86 52.4 86 57 0 3.6-2.6 44.2-48.5 63.1v3.5c24.9 2.7 36.5 23.1 36.5 42 0 1.7-1.8 1.8-2.4 0.5-7.8-16.4-26.6-21.6-48.2-21.6l-0.1-12.1-4.8 0.1v12.1 19.7c0 1.8-1 2.7-2.5 2.7h-16zm-4-127.2c-2.8 0-5 2.3-5 5v21.9c0 2.8 2.2 5 5 5 2.8 0 5-2.2 5-5v-21.9c0-2.7-2.2-5-5-5zm35 5v21.9c0 2.8 2.2 5 5 5 2.8 0 5-2.2 5-5v-21.9c0-2.7-2.2-5-5-5-2.8 0-5 2.3-5 5z"/></svg>