<svg version="1.2" xmlns="http://www.w3.org/2000/svg" viewBox="0 0 256 256" width="256" height="256"><style>.a{opacity:.5}</style><path fill-rule="evenodd" class="a" d="m115.5 221.3c1.5-14.9 8.3-34.2-21.9-61-15.6-13.9-34.6-28.6-34.7-51.6 0-41.4 60.9-64.9 84.3-71.8-8.7 26 2.1 43.3 26.7 66.9 13.3 13 25.1 22.2 25.1 46.2 0 33.6-38.3 53.7-79.5 71.3zm48.3-99.9c-20.9-9.3-53.4-22.9-75.3-38.5-3.4 3.4-6.3 7.1-8.5 11.1 27.6 19.8 58.8 32 95.5 43q0.1 0 0.2 0.1c-2.6-6.1-6.9-10.8-11.9-15.7zm-31.6 75.4c10.6-5.6 20.1-11.1 27.6-17-17-5.7-28.3-10.4-41.3-16 9.9 11.8 12.8 22.1 13.7 33zm45.4-41.2c-29.2-10.5-76.2-26.9-101.2-43.7q-0.3-0.2-0.5-0.4c0.5 5.3 2.8 10.6 6.1 15.6 19.2 12.9 66.9 31.6 91.3 38.7 2.1-3.2 3.6-6.6 4.3-10.2zm-53-95c-6.3 2.4-14.7 6.3-22.9 11.7q0.3 0.1 0.6 0.2c11.7 7.6 16.2 9.9 33.7 18.5-6.8-9.7-10.5-19.1-11.4-30.4z"/></svg>