<svg version="1.2" xmlns="http://www.w3.org/2000/svg" viewBox="0 0 256 256" width="256" height="256"><style>.a{opacity:.5}</style><path fill-rule="evenodd" class="a" d="m76.3 48.9l23.8 23.7c35.5-29.2 74.1-39.4 91.1-22.4l7.8 7.8c17 17 6.8 55.5-22.4 91.1l13.1 13.1 7.7 35.2-35.2-7.7-13.1-13.1c-35.6 29.2-74.1 39.4-91.1 22.4l-7.8-7.8c-17-17-6.8-55.6 22.4-91.1l-23.7-23.8c-2.5-2.4 1.7-10.5 9.3-18.1 7.6-7.6 15.7-11.8 18.1-9.3zm-4 120.2c10.5 10.5 40.7-2.6 67.4-29.4 26.8-26.7 39.9-56.9 29.4-67.4-8.6-8.6-30.5-1.3-52.9 16.4l16.5 16.6c2.4 2.4-1.7 10.5-9.3 18.1-7.6 7.6-15.7 11.7-18.1 9.3l-16.6-16.5c-17.7 22.4-25 44.3-16.4 52.9z"/></svg>