<svg version="1.2" xmlns="http://www.w3.org/2000/svg" viewBox="0 0 256 256" width="256" height="256"><style>.a{opacity:.5}</style><path class="a" d="m137.1 199.3c-11 17.9-67.3 33.6-91.1-16.3-17.3-45.2 18.5-73.7 33-73.7-6.7 6.7-24.2 32.2-7.9 63.5 13.2 25.1 41.6 34.1 66 26.5zm-13.1-40.3c7.5 3.8 10.2 8.1 10.2 15.7 0 11-10 17.9-21.4 17.9-25.7 0-37.1-19.2-37.1-38.6 0-30.7 27.3-53.4 68-53.4 24.8 0 37.8 2.5 49.4-16.1 7.7-12.1 6.4-26.2-0.5-33.8 8.7 3.6 25.6 21.7 22.7 44.2-6.5 51.9-69 44.7-76.4 43.8-29.2-3.6-37.7 8.3-39.3 20.3-1.1 8.1 2.9 20.7 15.2 20.7 11.4 0 16.5-11.7 9.2-20.7zm18-123c-9.5 4.6-14.3 14.7-14 25.8 0.5 16.8 14.6 27.1 29.3 27.1 35.5 0 33.4-38.4 25.3-42 0.5 20.8-17.5 24-27.8 21.3-10.3-2.7-19.7-11.9-12.8-32.2z"/></svg>