<svg version="1.2" xmlns="http://www.w3.org/2000/svg" viewBox="0 0 256 256" width="256" height="256"><style>.a{opacity:.5}</style><path fill-rule="evenodd" class="a" d="m89.6 127.1c-3.1 1-13.9 1.7-18.2-2.3 1.6-3.1 10-9.1 17.9-15.9-5.9-7.3-10.7-11.1-13.2-19.5-1.7-5.5-19.8-26.4-22.8-31.4 8.7 3.9 38.1 30.5 46.8 40q1-1.2 1.7-2.5 0.3-1.7 0.5-3.5c-5.5-6.3-10.2-11.9-14-17.1-0.2-0.2-4.9 0.2-5.2-0.1-25.6-43.1-20.6-40.7-37.7-49 22.4 4.6 14.5 0 45.5 32.8 7.1 0.8 8-2.6 13.1 5q0.3-0.1 0.5 0c11.3 2.9 17.9 9.1 23 17.8q1.8 0.3 3.3 0.2c-3.9-5.9-3.8-6.7-7.6-13.4 0.2-3.5 0.1-3.1 0.5-6.3-2.3-4.7-4.6-9.5-6.2-21.9 4 4.2 9.5 10.6 18 15.4 0.4 2.5 0.4 4.1 0.4 7.1 3.2 2.8 9.4 9 14.4 15q1.2 0.1 2.5 0.3c7 1.2 4.1 4.3 9.2 5.1 8.2 1.3 15.2-8.4 22.6-3.6 2.6 1.7 3.7 4.8 1 9.7-1.1 2 3 10.1-5.5 11.2 9.8 5 1.7 10 4.4 16.7-1.2 0.8-2.3 0-4.3-0.9 3.1 2.8 5.8 6.4 8.7 9.7 0.5-0.9 0.7-0.8 1.2-1.6 2.5 0.6 8.5 7.4 10.3 15.2-0.5 2.9-1.4 3.2-1.8 5.2 9 61.1 14.7 14 12.3 59.3-3.8-4.5-5.4-15.4-9.6-14.9-3.2-3.8-12.8-19.8-23.9-40.9-3.1 0.4-6 0.4-8.5-0.1 6.5 7.4 17.7 23.3 18 25.5 0.7 4.6 0.6 9.5 0.4 15.8 5 3.7 6.9 10.9 20.4 35.5-7.3-4.1-18-12.6-28.2-22.6-1.9-2.3-1.6-5.3-1.7-8.2-4.8-5-13.5-14.4-20.8-28.3-2.1-1.2-4.1-2.7-5.9-4.4 0.4 2 0.9 5.7 0.9 9.3 7.5 8.7 13.8 16.3 15.3 20.2-0.3 4.8 0.8 6.7 0.6 10.9 4.1 9.3 14.7 24.2 22.2 29-8.8 0.3-25.8-12.4-32.3-21.3-2.4-0.1-3.4-0.5-6.1-1.1-8-17.6-13-22.7-24.4-46.2-0.5 7.4-1.9 13.4-4.6 17.9-5.5-5-9.5-10.4-11.6-23.7-1.8 8.9-5.9 16.6-9.1 20.7-3.8-5.8-4.9-14.7-1.8-32.3-4.9 3.8-7.7 5.6-11.9 6.4-2.4-9.5-1.2-21.3 1.3-23.9zm30.5-40.4c1.6-0.1 2 0.2 3.2 0.5-0.5-4-5.2-9.5-7.7-10.6 0.6 4.8 0.5 17.8 0 21.8 3.2-1.5 3.8-6.9 4.5-11.7zm-8.8 24.7c-4.8 5.2-2.6 17.9-0.6 20.1 0.4-2.6 1.5-3.6 3.7-4.8 2.6 8.1 7.7 13.4 12.6 17 0.8-4.6 0.9-6.8 1.8-9.5 1.8 7.8 3.8 10 5.3 11.2 1-7.2 2-18.1 4.8-22.2 1.5 2.1 2.4 3.2 4.6 5.6 1.5-1.9 2.3-3 3.6-4.6 0.9 2 5.2 4.3 7.2 6.6 0.4-3.8 1.2-12.2 3.8-16.5 13.5-7 22.2-3.6 22.2-7.4 0-3.9 0-2.8-20.5-2.8-1.2-0.8 4.6-3.4 8.4-3.8 0.7 0.6 1.1 0.9 2.2 1.8 1.1-1.4 1.7-2.5 2.1-3.4 1.1 0.4 1.3 0.5 2.7 0.6 0.7-0.6 0.9-1.5 1-2.5 1.3-1.9 5.3-0.6 5.4-3.9 0.2-4.3-5.2-4.9-9.4-4.3-14.5 2.2-31.2 14.5-36.4 15.4-6.1 1.1-12.8 0.5-16.2-1.6-1.3 7.3 4.2 10.5 6.7 11.7-1.1 4.6-4.1 9.1-6.3 10.9-2-2.4-2-6.9-2.6-9-1.6 1.4-2.9 4.2-4.2 5.7-2.5-1.9-1.9-8.2-1.9-10.3zm41.2-18.1c-1.9 0.8-6.6 1-9-0.2-3.3-1.7-4.2-3.5-5-5-1.2 1.6-0.8 5.2 0.2 5.9-5.1 2.5-9.5 1.6-10.5-1.1-1.6 2.2-0.3 4 0.4 4.3 5.1 2.3 10.3-1 13.6 0 1.4 0.4 1.1 1 1.9 1.3 3.3-1.7 7.5-2.7 8.4-5.2zm-9.2-7.1c0 3 6.2 5.1 9.2 2.5 0-2.9-6.5-4.7-9.2-2.5z"/></svg>