<svg version="1.2" xmlns="http://www.w3.org/2000/svg" viewBox="0 0 256 256" width="256" height="256"><style>.a{opacity:.5}</style><path class="a" d="m178.3 47.8c-2.7 15.8-6.4 31.5-13.7 44.2 0 0 0.8-7.1-10.2-14.8-10.9-7.7-26.8-11.5-46.1-6.7-18 4.4-29.6 18.5-35.3 33.8-5 13.2-6.6 33.9-9.6 47.4-3.1 13.4-13.1 30.6-13.1 30.6 0 0 30.2 15.5 64.6 16.5 27.3 0.7 40.1-3.1 45.5-5.7-9.3 1-18.4-3.1-23.2-11.2-6.4-11.2-1.9-26 10.2-33 12.1-7 27.1-3.5 33.6 7.8 4.8 8.3 3.6 18.5-2.2 26.1 3.7-1.4 11.6-5 17.7-13.4 8.3-11.4 10.7-32.3 7.3-46.3-3.5-14-15.6-30-33.1-28.6 8.4-14.2 17.6-24.9 26.5-34.5z"/></svg>