<svg version="1.2" xmlns="http://www.w3.org/2000/svg" viewBox="0 0 256 256" width="256" height="256"><style>.a{opacity:.5}</style><path fill-rule="evenodd" class="a" d="m205.5 42.1c0.9 0.5 1.4 1.3 1.4 2.6 0 2-0.8 2.7-1.2 3q0 0.1 0 0.3c0.4 0.2 1.1 0.6 1.1 1.4 0.1 0.4-0.5 0.6-1.1 0.5-0.1 5.8-0.2 12.6-0.3 14.4 2.3 0.8 4.3 1.9 5.9 3.4 0 0-0.3 1.7-1.2 2.4-0.9 0.7-0.6 21.4-1.5 25.6-0.7 3.4-20.4 20.2-36.3 27.4 0 0-5.7 24.1-7.4 43.5-1 11.9 2.8 32.7 2.8 32.7-1 0.8-2.3 1.3-3.8 1.7-0.3 2.5-0.8 5.9-0.9 7.8-0.1 2.9-0.2 4.1 0.3 6.2 0.4 1.5 3 4.4 0.4 6.3-2.5 1.8-8.9 1.1-11.1 1.2-2.3 0.1-2.5 0.5-5.1 0.9-2.6 0.4-9.1 1.4-10.6 0.3-1.4-1-0.7-2.9 1.8-4.5 2.5-1.7 6.2-0.7 10.9-2.7 4.8-1.9 4.8-6.4 4.9-8.9 0-1.5 0-3.9 0-5.8q-0.3 0-0.6 0c-3.5-24.5-5.2-49-4.9-73.5l-4.7-2.9c-1.9 2.4-4.1 5.2-6.3 5.2 0 0 0.4-1.3-0.5-2.5-1.2-1.7-2.8-4-4-5.3-1.9-2.3-7.1-5.9-9.9-7.7-2.8-1.9-5.6-9-8-10.1-0.7-0.3-4.7-1.1-5.9-4.3-1-2.9 0.4-9.2 0.8-11-1.7 0-11.1 0.2-15.1 0.2-4.3 0-9.3-0.6-9.3-0.6 0 0-4.1 0.6-8 0.6-3.8 0-5.5-0.4-9.6-1.2-4.1-0.7-12.4-2-12.4-2 0 0-1.4 2-5.4 2-2.9 0-4.3-0.3-5.5-0.6 0 0-1 0.6-3 0.6-2.4-0.1-2.9-2-2.9-2 0 0-3.8 0.3-5.6-0.6-1.7-0.9 0.1-1.5 0.9-1.5 0.7-0.1 5 0 6.6-0.2 1.6-0.2 1.5-0.4 3.5-1 1.9-0.5 3.1-0.7 7.2-0.9 4-0.2 22.5-1.3 26.9-1.3 4.5 0.1 4.9 0.5 8.3 0.6 3.3 0.1 5.8 0 9.4-0.5 5.9-0.8 4.5-2 8.9-2.6 3-0.4 6.1-0.4 7.9-0.4l5.5-4.6-0.2-4.6c-0.1-1.4-1.5-3.1-2.4-3.2l-4.2-0.1c-0.7 0-2.1-0.6-2-1.6 0 0 0.2-1.5 0-2.2 0-0.4-0.6-0.4-0.7-0.8-0.2-0.4 0.2-0.8 0-1.2-0.2-0.4-0.6-0.4-0.8-0.8-0.2-0.5 0.2-1.7 0.2-1.7 0 0-2.3 0.1-2.4-1.1-0.1-1.1 3.1-4.2 3.1-4.2 0 0-1.3-1.9-1.3-3.9-0.1-2 1.1-5.4 3-7.1 1.8-1.8 4-2.1 4-2.1 0 0 1.1-0.6 2.8-0.5 1.6 0.1 2.4 0.3 2.4 0.3 0 0 0.2-1.1 3-1.1 2.9 0 3.9 1.3 3.9 1.3 0 0 1.4-0.7 2.8-0.7 1.5 0 2.8 0.8 2.8 0.8 0.6-0.9 1.1-1 1.7-1.2 0 0 3.3 3.3 3.3 5.2 0.1 1.9-0.7 1.7-0.7 1.7 0 0 0.6 0.6 0.6 1.2 0.1 0.6-1.5 2-2.5 1.6 0 0 0.3 0.5-0.4 0.7-0.5 0.3-0.9 0.1-0.9 0.1 0 0 0.5 2-0.1 2.8-0.2 0.3-0.6 0.5-0.6 0.5 0 0 0.3 3.9-0.1 5.8-0.2 1.3-0.8 2.8-1.5 3.8-0.8 1-2.7 2.4-2.7 2.4l2.1 3.8c0.7-1.1 2.3-3.6 4.7-4.6 6.2-2.6 13-1.6 18-3.3 5-1.6 8-3.4 14.1-6.2 6.1-2.8 9.5-2.9 14.8-5.5 5.3-2.6 6.5-3.9 9.2-4.5 2.7-0.6 3.2-0.1 3.8-0.3q0.2-0.1 0.6-0.3c0.8-1.5 0.7-3.1 1.1-4.3 0.5-1.3 0.4-2 1.1-2.8 0.7-0.7 4-3.2 5.1-3.2 1 0 1.6 4.5 2 9.5zm-30.5 18.4c-8 4.1-12.1 4.1-19.1 7.5-7 3.5-9.2 3.3-11.3 5.1-2 1.8-4.3 3.4-4.8 6.9-0.5 3.4 1.1 11.5 2.5 14.4 1.5 2.9 5.4 5.6 5.4 5.6 1.1-0.2 1.6-0.4 2.2-0.6l-0.1 2.4q1.5 0 2.3-0.5l1 1.9c0 0 2.3-1.2 7.9-1.9 5.6-0.7 8 0.4 8 0.4l24.6-11.5c0 0-0.8-2.1-0.8-3.6 0-1.5 0.8-3.1 0.8-3.1l0.4-19.3q0.9-0.2 1.8-0.3l1.2-8.7c0 0-3.8-2.4-3.7-5q0-0.6 0.2-1.2c-3 1.6-11.6 7.9-18.5 11.5z"/></svg>