<svg version="1.2" xmlns="http://www.w3.org/2000/svg" viewBox="0 0 256 256" width="256" height="256"><style>.a{opacity:.5}</style><path fill-rule="evenodd" class="a" d="m146.6 50.5c57.9 2.6 73.1 48.6 71.5 80.4-1.7 31.7-7.3 52.4-17.6 60.1-10.2 7.8-28.6 17.3-58.2 17.3-20.1 0-36.1-6.4-49-13.2-18-9.6-25.8-32.9-25.8-32.9-2.2 1.5-9.1 1.3-11.7-0.2-3.5-1.9-14.2-10.9-17.4-23.4-3.1-12.5 4.2-49.5 26.4-67.5 14.7-12 28.2-20.6 64.7-21 5.2 0 10.9 0.1 17.1 0.4zm-86 65c11 7.6 19.7 17.5 14.5 40.9 6.7 2.8 9 7.1 11.9 11.1 0.3-6.5-1.7-11.7-5.3-16.2q0.6-3.1 1-6.1c5.4 1.5 9 3.3 13 5.1-3.6-3.8-7.8-7.3-12.7-10.3 0.2-7.9-1.3-14.4-4.2-19.2 3.9-11 8.5-19.2 14.7-25.4-8.1 2.8-14.3 9.6-20.8 18.8q-1.6-1-3.5-1.8c0-19 6-30.4 12.8-40.7-11.3 9.3-19.9 15.6-21.4 43.8zm32 66.5c16.3 21.1 93.4 20.8 104.2-3.8-40.2 12.7-58.1 13.7-104.2 3.8z"/></svg>