<svg version="1.2" xmlns="http://www.w3.org/2000/svg" viewBox="0 0 256 256" width="256" height="256"><style>.a{opacity:.5}</style><path fill-rule="evenodd" class="a" d="m149.4 34.4c7.9 4 11.3 15.7 11.3 15.7 0 0 15.5 1.9 18.8 7.2 2.8 4.7 4.6 19 4.6 19 0 0 13.6 7.2 16.2 12.6 1.9 4.1 1.8 20.3 1.8 20.3 0 0 5.4 9.6 8.2 15.9 1.5 3.6-1.1 18.1-5.8 22.8-6.3 6.3-22.9 30.6-73.3 50.3 0 8.5-5.8 24.8-15.8 24.8-5.4 0-74.4-71.1-74.4-75.7 0-10.6 18-15.5 23.9-15.5-1.1-11.5 1-57.4 1.7-60.8 1.2-6.3 9.4-14.6 12.2-16.8 2.1-1.6 18.9-0.6 21.6-0.6 4.6 0-10 11.3-9.5 11.8 0.3 0.3 6 0.4 6.5-0.2 23.4-23.7 42.5-35.5 52-30.8zm-84.4 103.3c-3.2 0-17 3.3-17 9.5 0 1.8 66.4 69.1 68.2 69.1 6.1 0 9.3-14 9.3-17 0-3.2-57.3-61.6-60.5-61.6zm103.3 29.2c7.1-10.1-54.9-92.3-81.4-65.9-4.3 4.4-15 25.1-15 30 0 4.3 56.8 60.5 59.3 60.5 3.4 0 27.7-11.3 37.1-24.6z"/></svg>