<svg version="1.2" xmlns="http://www.w3.org/2000/svg" viewBox="0 0 256 256" width="256" height="256"><style>.a{opacity:.5}</style><path fill-rule="evenodd" class="a" d="m47.1 146.8c0.4-2.8 1.1-5.8 2.7-9.4 0.3 13.8 13.4 30.3 25.4 42.6 12.3 12.1 28.8 25.1 42.7 25.5-3.7 1.5-6.7 2.3-9.5 2.6-10.1 1.2-23.8-6.1-39.5-21.8-15.7-15.7-23-29.4-21.8-39.5zm10.6-24.2c2.4-11.3 43.2-74.1 60.6-67.7-9.3 12.8 4.4 37.9 19.9 53.4l-60.2 60.3c-22.9-22.9-22.3-36.8-20.3-46zm72.6-67.5c23-14 37-9.6 58.2 11.6 21.3 21.2 25.6 35.2 11.6 58.2-5 8.2-24.6 5.7-50-19.8-25.4-25.4-28-45-19.8-50zm24.7 1.3c-2.1 8.5 8.1 23 14.5 29.4 6.3 6.3 20.8 16.5 29.3 14.5 5.6-1.4-0.8-15.7-14.5-29.4-13.7-13.7-28-20.1-29.3-14.5zm-68.4 120.8l60.3-60.2c15.5 15.5 40.6 29.3 53.4 20 6.4 17.3-56.4 58.1-67.7 60.5-9.2 2-23.1 2.6-46-20.3z"/></svg>