<svg version="1.2" xmlns="http://www.w3.org/2000/svg" viewBox="0 0 256 256" width="256" height="256"><style>.a{opacity:.5}</style><path fill-rule="evenodd" class="a" d="m213.7 57.6l-13.4 13.5v8.5h8.5l4.9-5v27l-26.5 26.6c-13.2 13.1-14.1 24.5-14.1 27 0 26.7-22.5 47.7-49.3 47.7-2 0-4.3-0.2-4.3-0.2v-10.4l-13.1-5.6-1.7 3.3-28.3-10-32.3 32.3v-21.6l26.2-26.2-0.2-6 9.3-9.3-0.6-3.3c0 0 16.4-18.7 24.4-25.5 11-9.4 30.2-8 39.7-17.6l25.4-25.4 5.6-2.4 39.8-39.8zm-58.1 60v9.3h9.3l16-16v-9.3h-9.3zm-63.3 19.2l4.7 2.8c4.7-8.1 13-13.9 22.6-15.2l-0.7-5.4c-11.4 1.5-21.1 8.3-26.6 17.8zm38.1-12c9.9 2.1 18.1 9 22 18.2l5-2.2c-4.6-10.7-14.2-18.8-25.9-21.3zm-35.8 30.4c0 16.2 13.1 29.3 29.3 29.3 16.2 0 29.3-13.1 29.3-29.3 0-16.2-13.1-29.4-29.3-29.4-16.2 0-29.3 13.2-29.3 29.4zm56.7 0c0 15.1-12.3 27.4-27.4 27.4-15.1 0-27.4-12.3-27.4-27.4 0-15.2 12.3-27.5 27.4-27.5 15.1 0 27.4 12.3 27.4 27.5zm-50.2 0c0 12.6 10.2 22.8 22.8 22.8 12.6 0 22.8-10.2 22.8-22.8 0-12.6-10.2-22.8-22.8-22.8-12.6 0-22.8 10.2-22.8 22.8zm54.6-6.2q0.5 3 0.5 6.2c0 17.8-14.4 32.3-32.3 32.3q-2.7 0-5.3-0.5l-0.5 3q2.8 0.5 5.8 0.5c19.5 0 35.3-15.8 35.3-35.3q0-3.5-0.6-6.8zm-67.1 6.4c0.1 9.9 4.3 18.9 10.9 25.3l2.1-2.2c-6.2-5.8-10-14.1-10-23.3q0-0.9 0-1.7z"/></svg>