<svg version="1.2" xmlns="http://www.w3.org/2000/svg" viewBox="0 0 256 256" width="256" height="256"><style>.a{opacity:.5}</style><path fill-rule="evenodd" class="a" d="m79.7 131.6c1.4-20.7 10.4-42.3 48.3-42.5 37.9 0.2 46.9 21.8 48.3 42.5 45.4 0 23.6 76.4-48.3 76.7-71.9-0.3-93.7-76.7-48.3-76.7zm24.7 58.4c0 8 10.8 14.5 23.6 14.8 12.8-0.3 23.6-6.8 23.6-14.8 0-8.1-10.8-14.6-23.6-14.9-12.8 0.3-23.6 6.8-23.6 14.9zm16.1-58.4c-17.1-5.8-24.8-15.6-27.8-21-4.3 4.6-7 16.1-6.6 25.1 11.7 1.3 21.7 6.5 31.7 13.1 0 0-0.6-11 2.7-17.2zm-0.1 59.9c0-2.2 3.4-4 7.6-4 4.2 0 7.6 1.8 7.6 4 0 2.2-3.4 4-7.6 4-4.2 0-7.6-1.8-7.6-4zm-43.5-77.6c-4.6-1.4-10.2-11.4-3.6-21.1-12.5-22.6-12-36.5-3.2-43.5 9.7-7.7 33.3 4.2 42.3 19.4v15.4c-15 1.6-31.4 15.3-35.5 29.8zm40.8-30.3l0.1-14.4c0 0 2.7-1.6 10.2-1.7 7.5 0.1 10.2 1.7 10.2 1.7l0.1 14.4h-10.3zm20.4 65.1c10.1-6.5 20.1-11.7 31.8-13 0.4-9-2.4-20.6-6.6-25.1-3.1 5.4-10.8 15.2-27.8 21 3.3 6.2 2.6 17.1 2.6 17.1zm5.5-64.6v-15.4c9-15.2 32.6-27.1 42.2-19.4 8.9 7 9.4 20.9-3.1 43.5 6.6 9.7 1 19.7-3.6 21-4.1-14.5-20.5-28.1-35.5-29.7z"/></svg>