<svg version="1.2" xmlns="http://www.w3.org/2000/svg" viewBox="0 0 256 256" width="256" height="256"><style>.a{opacity:.5}</style><path fill-rule="evenodd" class="a" d="m100.9 212.5c-40.4-6.4-45.2-47.9-16-49.4 4.8 14.1 22.8 25.5 43.1 12.6 20.3 12.9 38.3 1.5 43.1-12.6 29.2 1.5 24.4 43-16 49.4-4.8 4.3-14.4 10.7-27.1 10.7-12.7 0-22.3-6.4-27.1-10.7zm6.2-25.9c-4.5 6.5-9.2 11.9-12.3 11.1-3-0.7-3.6-10.6-3.6-15.4-6.6-1-9.4-2.8-12.6-4.8 0.4 26.4 31.4 34.6 49.4 34.6 18 0 49-8.2 49.4-34.6-3.2 2-6 3.8-12.6 4.8 0 4.8-0.6 14.7-3.6 15.4-3.1 0.8-7.8-4.6-12.3-11.1-7 1.5-12.4 1.6-20.9 1.6-8.5 0-13.9-0.1-20.9-1.6zm2.2-11.1c-10.3 0-19-7.7-21.5-23.9h-7.8v-10h7.4c0.7-18 8.4-28.8 22.1-28.8 9.9 0 15.5 5 18.5 12.7 3-7.7 8.6-12.7 18.5-12.7 13.7 0 21.4 10.8 22.1 28.8h7.4v10h-7.8c-1.8 15.7-11.2 23.9-21.5 23.9-8.2 0-15 0.1-18.7-8.6-3.7 8.7-10.5 8.6-18.7 8.6zm12.9-31.6c0-11.7-3.6-20.1-12.7-20.1-9.7 0-12.9 9.3-12.9 20.1 0 10.8 4.2 20.6 12.9 20.6 9.5 0 12.7-9 12.7-20.6zm-4-35.2c-1.3-45.9-38.9-44.3-55.2-30.1-0.7-39.5 50.3-41.4 65-24.5 14.7-16.9 65.7-15 65 24.5-16.3-14.2-53.9-15.8-55.2 30.1-4.2 0.9-7.1 2.2-9.8 5.4-2.7-3.2-5.6-4.5-9.8-5.4zm28.3 55.8c8.7 0 12.9-9.8 12.9-20.6 0-10.8-3.2-20.1-12.9-20.1-9.1 0-12.7 8.4-12.7 20.1 0 11.6 3.2 20.6 12.7 20.6z"/></svg>