<svg version="1.2" xmlns="http://www.w3.org/2000/svg" viewBox="0 0 256 256" width="256" height="256"><style>.a{opacity:.5}</style><path fill-rule="evenodd" class="a" d="m68 179.6c-33.9-25.7-33.7-63.7-3.5-68 0-4.6 5.3-38.7 48.1-45.4-2.8-2.9-4.8-8.5-4.8-12.4 0-8.2 2.7-11.8 6.2-15-1.8 9.8 1.8 19.7 7.7 23.8-0.4-12 7-23.1 15.6-24.9-3.6 3.5-7.2 20.2-5.7 24.6 6.4-11.7 15.7-15.6 26.8-13.8-6.6 2.4-15.6 8.4-18.3 17.3 45 5.8 50.4 41.1 50.4 45.8 30.2 4.3 30.4 42.3-3.5 68 0.2 19.2-18.4 31.9-59.5 12.3-41 19.6-59.8 6.9-59.5-12.3zm23-40c-0.2 10.2-3.9 25.7-7.7 26.8-4.5-1.2-8-25.5-8.7-31.2-4-0.3-6.1-1.1-7.4-2.4-2.6 14.7-0.4 35.5 15.3 48.8 10.9-5.3 27.4-8.7 44.5-8.8q0 0 0 0c17.5 0 34.4 3.3 45.5 8.8 15.7-13.4 17.9-34.2 15.3-48.8-1.3 1.3-3.4 2.1-7.4 2.4-0.7 5.7-4.2 30-8.7 31.2-3.8-1.1-7.5-16.6-7.7-26.8-11.8 2.4-24.7 4-36.5-5.4-11.8 9.5-24.7 7.8-36.5 5.4zm-1.5-30.8c0 4.5 3.5 7.7 7.9 7.7 4.7 0 6.5-1.8 8.2-5.9l-10.9-9.8c-2.7 0.5-5.2 4.5-5.2 8zm76 0c0 4.5-3.5 7.7-7.9 7.7-4.7 0-6.5-1.9-8.2-5.9l10.9-9.8c2.7 0.5 5.2 4.5 5.2 8zm-14.4-25.7l-25.2 5.4 17 17.1-3.3 26.7 32.3-12.9 26.7 15.6 1.8-11.2c-3.1-4.5-11.4-6.1-16.2-5.7 1-20.7-16.4-39.5-30.6-41.8z"/></svg>