<svg version="1.2" xmlns="http://www.w3.org/2000/svg" viewBox="0 0 256 256" width="256" height="256"><style>.a{opacity:.5}</style><path fill-rule="evenodd" class="a" d="m53.8 158.9c0-17.9 6.5-30.3 23.8-32.5 2.2-9.7 4.1-14.9 10.3-20.6-1.3-5.7-2.4-9.7-2-14.1 4.4-0.3 7.5 1 13.4 2.9 6.3-4.9 10.7-6.8 19.1-8.6-5.2-20.2-23.3-28.1-32.3-31.3 2.1-3.9 7.9-6.5 17.1-6.5 6 0 11.9 3 16.2 6.3 0.8-9.9 5.7-23.1 8.6-25.4q0 0 0 0.1c2.9 2.2 7.8 15.4 8.6 25.3 4.3-3.2 10.2-6.2 16.2-6.2 9.2 0 15 2.6 17.1 6.4-9 3.3-27.1 11.2-32.3 31.3 8.4 1.8 12.8 3.7 19.1 8.7 5.9-2 9-3.3 13.4-2.9 0.4 4.3-0.7 8.3-2 14 6.2 5.7 8.1 10.9 10.3 20.6 17.3 2.2 23.8 14.7 23.8 32.6 0 32.6-39.1 59.2-74.2 59.2q0-0.1 0-0.1c-36.3-0.2-74.2-26.7-74.2-59.2zm23.7-8.9c-2.8 29.1 15.8 50.7 50.8 50.7q0 0 0 0c34.8-0.1 53-21.6 50.2-50.7-2.7 1.6-5.8 4-9.7 6.4 0.1 4.5-2.2 11.6-5.2 13.8-3.2-1.2-5.9-4.6-7.6-7.6-7.1 2.5-16.2 4.3-28 4.1q0 0 0-0.1c-29.9 0.5-42-11.5-50.5-16.6zm34.5-18.7c-4.7-4.7-9.8-11.2-14.4-15.7-4.4 4.4-3 12.2-0.2 15 3.2 3.2 10.2 5.1 14.6 0.7zm46.6-0.6c2.8-2.8 4.2-10.7-0.2-15.1-4.6 4.5-9.7 11-14.4 15.7 4.4 4.4 11.4 2.6 14.6-0.6z"/></svg>