<svg version="1.2" xmlns="http://www.w3.org/2000/svg" viewBox="0 0 256 256" width="256" height="256"><style>.a{opacity:.5}</style><path fill-rule="evenodd" class="a" d="m88.5 168.7c0.4-26.2 8.7-45.1 27.9-48.5q0.2-0.1 0.4-0.1c-0.5-35.5-8.3-64.5-24.7-88.1 18.8 4.9 29.4 23.4 32.3 40.3 0.2-10.1-1.6-31.2-4.7-35.4 16.4 7.1 19.7 34 18.7 49.1 4.1-5.2 4.4-11.1 3.6-18.1 6 5 10.3 24.5-1.6 52.5 18.4 3.9 26.4 22.6 26.8 48.3 4.6-0.6 8.4-0.2 11.4 0.8 30.7-34.6 29.1-66.9 16.9-91.6 21.2 7.2 44 63.9-12.7 93.8 14.8 11.6-3.9 49.4-55 49.4-62.7 0-76.6-57.2-39.3-52.4zm-5.9 14.2c-1.2 16.8 14.9 30.4 45.2 30.4 30.4 0 46.5-13.6 45.3-30.4-5.1 4.9-17.7 11.5-45.3 11.5-27.6 0-40.1-6.6-45.2-11.5zm40.7-9.8c4.2-20.5 3.4-45-10.4-45-11.7 0-20.1 23.8-6.3 50.3 3.2-2.7 9.3-5.7 16.7-5.3zm25.8 5.3c13.8-26.5 5.3-50.3-6.3-50.3-13.8 0-14.6 24.5-10.4 45 7.3-0.4 13.4 2.6 16.7 5.3z"/></svg>