<svg version="1.2" xmlns="http://www.w3.org/2000/svg" viewBox="0 0 256 256" width="256" height="256"><style>.a{opacity:.5}</style><path fill-rule="evenodd" class="a" d="m89.5 181.3c-43.7-10.6-52.1-59.7-24.8-70.9-0.9-5.9-1.1-11.6-0.3-16.1-3.5-3.6-6.5-13.8-4.2-17.4 4.5-7.1 23-4.7 30.4-4.7 6.3-8.2 20-16.2 37.8-16.2 17.9 0 31.5 8 37.9 16.2 7.3 0 25.9-2.4 30.4 4.7 2.3 3.6-0.7 13.8-4.2 17.4 0.8 4.5 0.6 10.2-0.3 16.1 27.3 11.2 18.9 60.3-24.8 70.9-9.9 11.6-19.4 18-39 18-19.5 0-29-6.4-38.9-18zm32.1-77.4c-10.3-22.1-42.4-29.8-53-23-1 0.7 0 6.7 3.4 11.9-1.8 14.6 0.9 22.7 11.2 26.9 14.6 5.9 32.2 2.6 37-5.3l8.2 0.2 8.3-0.2c4.8 7.9 22.3 11.2 37 5.3 10.3-4.2 13-12.3 11.2-26.9 3.4-5.2 4.4-11.2 3.4-11.9-10.6-6.8-42.7 0.9-53 23zm-19.6 42.2c-5.9 12.9-12.7 19.2-16.2 18-2.8-1-6.4-9.7-7-22.2-4.9-0.9-8.3-2.5-13-5.3 1.8 24.2 18.6 42.4 62.6 42.4 44.1 0 60.8-18.2 62.6-42.4-4.6 2.8-8 4.4-12.9 5.3-0.6 12.5-4.2 21.2-7.1 22.2-3.4 1.2-10.3-5.1-16.1-18-9.1-0.4-19.6-1.8-26.5-8.5-6.8 6.7-17.3 8.1-26.4 8.5zm-21.6-50.5c1.3-5.9 9.4-7 19.7-1.1 7.3 4.3 12 9.7 10.8 14.7-1.1 5-10.5 6.2-19.9 3-11.8-4.1-11.9-11-10.6-16.6zm85.5 16.6c-9.4 3.2-18.8 2-20-3-1.1-5 3.6-10.4 10.9-14.7 10.3-5.9 18.4-4.8 19.7 1.1 1.2 5.6 1.2 12.5-10.6 16.6z"/></svg>