<svg version="1.2" xmlns="http://www.w3.org/2000/svg" viewBox="0 0 256 256" width="256" height="256"><style>.a{opacity:.5}</style><path fill-rule="evenodd" class="a" d="m127.9 221.6q-0.1 0-0.2 0-0.1 0-0.2 0 0 0 0 0c-37.6-0.2-66.1-22.2-66.1-50.4 0-7.2 3.1-18.2 22.8-18.2 0-17.6 3.2-41 23.4-41q0.5 0 1 0c-8.6-8.6-13.2-22.5-13.2-36.8 0-24 19.2-40.4 34.1-40.4-7.2 7.2-10.5 16.9-9.7 27.7 3.5-9.2 10.5-20.7 24.2-24 11.3-2.7 24 2.6 27.1 9-11.7-2.1-23.4 13.6-24.1 18.1 2.8-1 7-4.3 15.1-2.9 10.6 1.9 11.8 12.8 11.8 18.6-2-2.1-5.9-2.6-8-2.4-6.1 0.6-11.2 6.1-15.6 12.8 9.4 0 14.2 4.5 14.9 16.3-3.8-2.5-7.4-2.8-10.3-2.2-5.6 1.1-7.2 3.6-8.7 6.2q0.8 0 1.6 0c20.2 0 23.5 23.4 23.5 41 19.6 0 22.7 11 22.7 18.2 0 28.2-28.4 50.2-66.1 50.4q0 0 0 0zm-14.6-33.9c-7 0-8.8-1.9-13-4.4-3.6 5.6-7.1 11.1-9.9 10.4-2.9-1.4-2.9-14.2-2.6-19.8-2.9-1.9-5-4.8-6.6-6.9-1.5 2-3 8.6-2.7 16 0.6 15.7 27.4 29.1 49 29.2q0-0.3 0-0.7 0.2 0.7 0.2 0.7 0 0 0 0 0 0 0 0 0 0 0.2-0.7 0 0.4 0 0.7c21.7-0.1 48.4-13.5 49.1-29.2 0.3-7.4-1.2-14-2.8-16-1.5 2.1-3.7 5-6.6 6.9 0.4 5.6 0.4 18.4-2.6 19.8-2.7 0.7-6.3-4.8-9.9-10.4-4.2 2.5-6 4.4-13 4.4-7.2 0-11.2-3.7-14.4-6.9-3.1 3.2-7.2 6.9-14.4 6.9zm9.4-28.3c-0.2-11.5-0.3-14.9-1-23.7-2-13.7-11.6-18.2-17.9-16.5-9.2 2.6-12.4 14-8.5 28.4 2.6 9.2 3.8 12.8 10.3 20.7 4.3-6.6 13.9-8.9 17.1-8.9zm27.1 8.9c6.6-7.9 7.8-11.5 10.3-20.7 3.9-14.4 0.8-25.8-8.5-28.4-6.2-1.7-15.9 2.8-17.8 16.5-0.7 8.8-0.9 12.2-1.1 23.7 3.2 0 12.9 2.3 17.1 8.9z"/></svg>