<svg version="1.2" xmlns="http://www.w3.org/2000/svg" viewBox="0 0 256 256" width="256" height="256"><style>.a{opacity:.5}</style><path class="a" d="m139 206.4v-18.2c-5.5-33.5-44.1-22.4-46.4-50.1 6 15.1 35.3 13.3 34.3-1.3-1.5-20.6-34.9 4.3-36.8-15.5 5.8 6.1 10.4 1.3 10.5-0.7 0.4-7.4-22.2-5.9-31.7 1 20.6-27.5 47.7 0.4 50.6-14.7 0.9-5-12.6-1.4-10.4-14.6 6.4 13.3 32.2 6.4 26.4-5.9-4.7-9.9-26.9-7.4-36.2 0.1-11.2 9-49.5 6.4-55.3-8.2 11.8 10 49.9 11.8 55-3.9 1-3.1-21.9-14-39.7 1.6 6.3-12.8 21.7-16.3 30.7-14.1 16.2 4 34.4 8.6 37-1.3 0.6-2.5-4-6.4-16.1-3.7 4-6.2 17.6-9.4 25.9-7.2 13.4 3.4 15.3 6.4 24 6.7h7.3l0.3 57 13.1-57h29l-17.8 71.8 20 78.2h-29.3l-14.8-63.5 0.4 63.5z"/></svg>