<svg version="1.2" xmlns="http://www.w3.org/2000/svg" viewBox="0 0 256 256" width="256" height="256"><style>.a{opacity:.5}</style><path fill-rule="evenodd" class="a" d="m120 147l-24.8 13.8 16.8-22.8-26.9-6.8 26.5-6.7-14.9-25.5 23.3 16.1 8-39.7 8 39.7 23.3-16.1-14.9 25.5 26.5 6.7-26.9 6.8 16.8 22.8-24.8-13.8-8 40.6zm-85.5 7.3c7 6.2 16.9 9.3 16.9 9.3-22.7-21.3-21.3-48.3-21.3-48.3 5.6-63.6 83.2-74.3 83.2-74.3-55.7 28.4-56.5 65.2-56.5 65.2 16.3-35.9 51.7-36.3 51.7-36.3 0 0-36.9 15.6-36.6 57.5 0 0-0.8 25.4 27.5 45.8 0 0 15.7 11.9 19 29.7 0 0-14.3-19.1-40.7-15.6 0 0 17.8 23 41.5 28.4 0 0-24.3 2.3-49.7-15.1-27.4-18.7-35-46.3-35-46.3zm152.1 46.3c-25.4 17.4-49.7 15.1-49.7 15.1 23.7-5.4 41.5-28.4 41.5-28.4-26.4-3.5-40.7 15.6-40.7 15.6 3.3-17.8 18.9-29.7 18.9-29.7 28.4-20.4 27.6-45.8 27.6-45.8 0.3-41.9-36.7-57.5-36.7-57.5 0 0 35.5 0.4 51.8 36.3 0 0-0.8-36.8-56.5-65.2 0 0 77.6 10.7 83.2 74.3 0 0 1.4 27-21.3 48.3 0 0 9.9-3.1 16.8-9.3 0 0-7.5 27.6-34.9 46.3z"/></svg>