<svg version="1.2" xmlns="http://www.w3.org/2000/svg" viewBox="0 0 256 256" width="256" height="256"><style>.a{opacity:.5}</style><path fill-rule="evenodd" class="a" d="m128 195c-0.6 6-5 18.4-11.4 18.9-4.8-0.7-10.5-11-11.4-22.5-0.4 3.5-6.9 17-11.4 18.1-3.3-0.7-11.5-9.2-11.5-16.4 0-7.2 5-13.2 5.3-16 0.6-6.2-6.6-28.9-6.6-28.9 0 0-31.3-0.8-32.2-14.7-1.6-23 66.5-94.3 79.2-94.3 12.7 0 80.8 71.3 79.2 94.3-0.9 13.9-32.2 14.7-32.2 14.7 0 0-7.2 22.7-6.6 28.9 0.3 2.8 5.3 8.8 5.3 16 0 7.2-8.2 15.7-11.5 16.4-4.5-1.1-11-14.6-11.4-18.1-0.9 11.5-6.6 21.8-11.4 22.5-6.4-0.5-10.8-12.9-11.4-18.9zm0-52.5c4.1 7.3 11.6 11.8 19.8 11.8 12.7 0 23-10.8 23-24 0-13.3-10.3-24-23-24-8.2 0-15.7 4.4-19.8 11.7-4.1-7.3-11.6-11.7-19.8-11.7-12.7 0-23 10.7-23 24 0 13.2 10.3 24 23 24 8.2 0 15.7-4.5 19.8-11.8zm-6.3-20.3c0 7-5.6 12.6-12.5 12.6-7 0-12.6-5.6-12.6-12.6 0-6.9 5.6-12.5 12.6-12.5 6.9 0 12.5 5.6 12.5 12.5zm12.6 0c0-6.9 5.6-12.5 12.5-12.5 7 0 12.6 5.6 12.6 12.5 0 7-5.6 12.6-12.6 12.6-6.9 0-12.5-5.6-12.5-12.6z"/></svg>