<svg version="1.2" xmlns="http://www.w3.org/2000/svg" viewBox="0 0 256 256" width="256" height="256"><style>.a{opacity:.5}</style><path fill-rule="evenodd" class="a" d="m130.9 197.6c-6.6 0-13-1.1-19-2.9l-10.9 27.2c-16.5-5.8-30.9-16.2-42-29.8l19.8-20.7c-9.4-12.3-15.1-28-15.1-45.1q0-5.2 0.7-10.2l-27.1-7.2c3.1-18.5 10.8-35.2 22-48.8l22.2 17.8c3.2-3.7 6.8-7 10.7-9.9l-13.5-25.9c9-6.2 19-10.9 29.8-13.7l8.5 28.2c4.5-1 9.1-1.6 13.9-1.6 19 0 36.2 8.4 48.4 21.8l21.9-18.3c7.2 8.4 13 18 17.2 28.6l-24.4 14.7c2.7 7.6 4.1 15.9 4.1 24.5 0 26.7-13.8 49.9-34.2 62.1l11 27.2c-9.5 5.2-20 8.9-31.1 10.5l-5-29q-3.9 0.5-7.9 0.5zm49.6-70.9c0-29.3-22.1-53.1-49.6-53.1-27.5 0-49.6 23.8-49.6 53.1 0 29.4 22.1 53.1 49.6 53.1 27.5 0 49.6-23.7 49.6-53.1zm-41.8 44.4c-27.8-15.7-41.1-12.2-49.1-31.4 18.4-0.8 14.4 6.4 34.2 9.5 0.8-44.2-8.3-36.5-8.3-65.4 13.3 8.8 13.3 41.4 26.1 48 13.6-11.9 6.9-35.1 17-43.1 4.6 8.6-1.4 38.3-0.9 40.5 3.8 18.5 0.8 27.9-1.7 35.2z"/></svg>