<svg version="1.2" xmlns="http://www.w3.org/2000/svg" viewBox="0 0 256 256" width="256" height="256"><style>.a{opacity:.5}</style><path fill-rule="evenodd" class="a" d="m128.4 196.9c-54.4 0-98.4-7.6-98.4-27.4 0-10.8 10.9-17.6 28.5-21.7-0.7-1.2-1.1-2.2-1.1-2.8 0-8.3 0.6-8.2 5.6-17.7 4.5-8.5 9.7-23.1 12-25.4 4.3-4.2 29.3-10.1 34.9-8.8 23.7 5.5 23.9 12 34.9 14.7 0.8 0.2 2.9-3 2.2-3.3-5.6-2.9-9.9-4.4-12.3-7.1-0.9-0.9 5.1-3.3 8-5 6.5-3.9 15.7-8.9 24.5-8.9 10.1 0 17.3 14.2 20.9 18.2 2.5 2.8 7.2 5.4 7.4 8.2 0.2 2-2.7 28.1-4 31-0.4 0.8-1.7 2.7-3.6 5.1 23.6 3.9 38.8 11.2 38.8 23.5 0 19.2-44 27.4-98.3 27.4zm75.8-30.3c0-5.5-9.1-9.2-23.6-11.6-7.1 8.5-15.2 17.6-16.4 17.6-13.8 0-28.4 6.8-32.6 6.8-2.5 0-9.2-2.9-11.5-3.2-6-0.7-27.1-0.6-44.9-11.5-3.1-1.9-6.4-4.7-9.2-7.6-8.5 2.3-13.5 5.4-13.5 9.5 0 11 33.9 14.7 75.9 14.7 41.9 0 75.8-4.7 75.8-14.7zm-5.9-93.4c2.9-2.8 1.4-8.5 3.2-11.6 1.8-3.2 14.8-0.9 15.6 0.4 3 5.4-0.2 10.7-0.2 13.8 0 2.9 8 5.7 8 11.6 0 5.2-7.2 11.8-13.7 11.8-5.1 0-4.1-1.4-7.8-1-4.1 0.5-6.6 4.8-9.8 4.9l-12.7-14.7c5.2-6.2 13.2-10.9 17.4-15.2zm-10.8 15l7.6 9c2.4-0.1 4.7-3.2 7.3-3.7 2.3-0.4 4.2 1.4 8 1.4 4 0 11-5.7 10.7-7.6-0.4-2.7-8.2-8.4-8.1-9.4 0.2-2.7 1.7-10.7 1.3-12-0.3-1-9.1-2.2-9.8-0.3-0.9 2.6 0 8.1-2.1 10.2-3.3 3.2-11 7.7-14.9 12.4z"/></svg>