<svg version="1.2" xmlns="http://www.w3.org/2000/svg" viewBox="0 0 256 256" width="256" height="256"><style>.a{opacity:.5}</style><path fill-rule="evenodd" class="a" d="m93 166.4c-11.9-2.1-28 10.2-38.7 9 4.1-4.2 9.8-9.9 13.4-15.8-14.1-1.2-20.6 1.2-29.7-2.8 4.6-3.7 7.4-5 11.2-8.7-8.8-6.3-23-14.8-27.2-21.9 31.9 4.2 45.5-2.1 55.7 3.1 4.5 2.3 5.8 17.9 9 17.3 12.8-2.1 28.7-3.2 32.1-3.9 2.4-0.6 5.7-8.2 8.9-8.2 3.2 0 6.4 7.6 8.8 8.2 3.4 0.7 19.3 1.8 32.1 3.9 3.2 0.6 4.6-15 9-17.3 10.3-5.2 23.8 1.1 55.7-3.1-4.1 7.1-18.4 15.6-27.2 21.9 3.8 3.7 6.6 5 11.2 8.7-9.1 4-15.6 1.6-29.6 2.8 3.5 5.9 9.2 11.6 13.3 15.8-10.7 1.2-26.8-11.1-38.7-9-9.9 1.7-10.7 10.2-34.6 10.2-24 0-24.8-8.5-34.7-10.2zm24.7-29.8c-28.1-3.4-72.6-20.4-77.3-24.3 7.1 1.5 53.5 10.8 75.7 13.9 1.7 0.3 7.5-7.1 7.4-8.6-0.5-3.7-19.8-5.5-19.8-6.3 0-0.9 18.6 0.5 19.9-4 0.6-1.9-0.8-9.8-3.1-13.7l7.2-0.1 7.1 0.1c-2.3 3.9-3.7 11.8-3.1 13.7 1.3 4.5 19.9 3.1 19.9 4 0 0.8-19.3 2.6-19.7 6.3-0.2 1.5 5.6 8.9 7.3 8.6 22.2-3.1 68.6-12.4 75.7-13.9-4.6 3.9-49.2 20.9-77.3 24.3-2.1 0.3-5.6-10.9-9.9-10.9-4.4 0-7.9 11.2-10 10.9zm-5.6-16.8c0 1.3-28.1-4.5-29.3-5.7-1.1-1.1 17.4-41.1 21.1-41.1 1.1 0 15.3 32.3 13.8 32.6-3.7 0.8-22 0.1-23.8 6.1-1.1 3.4 18.2 6.6 18.2 8.1zm-5.4 46.8c0.9-0.9-0.6-15-2-15-1.7 0-7 9.1-7 11 0 1.8 7.9 5.1 9 4zm54.7-54.9c-1.8-6-20.1-5.3-23.7-6.1-1.6-0.3 12.6-32.6 13.7-32.6 3.7 0 22.2 40 21.1 41.1-1.1 1.2-29.3 7-29.3 5.7 0-1.5 19.3-4.7 18.2-8.1zm-3.7 50.9c0-1.9-5.4-11-7-11-1.4 0-3 14.1-2 15 1 1.1 9-2.2 9-4z"/></svg>