<svg version="1.2" xmlns="http://www.w3.org/2000/svg" viewBox="0 0 256 256" width="256" height="256"><style>.a{opacity:.5}</style><path class="a" d="m219.9 51.2c-1.4 0-10.3 8.5-40.1 11.3-30.8 2.9-25.9-3.3-54.9-3.3-29 0-44.3 20.3-43.8 37.6 0.3 14.4 12.6 22 16.9 24.2q-2.7 0.9-5.4 1.6c-18.9 5-23 3.5-23 3.5 3.9-4.3 6.3-11.4 4.7-17.6-2.8 3-8 9.4-12.4 11.5-4.7 2.3-10.5 3.1-14.7 6.2-5.1 3.6-6.9 9.5-6.4 11.7-4.4 4.1-9.1 6.7-14.2 7.1-0.8 0.4-2.4 2-2.4 3 0 0.9 0.7 6.2 6.3 8.2 9.8 3.6 18.4 1.3 22.7-0.3 9.6 6.2 17.8 2.7 17.8 2.7-2-1.3-3.5-2.7-3.4-4.2 5.1 1.1 10.4 1.5 15.7 1.5 2.2 7 4.8 9.2 4.3 10.3-0.6 1.1-2.6 0.9-5.2 3.3-2.6 2.4-10.1 11.7-9.8 15.8 0.4 4 3.8 10.3 6.1 12.1 2.2 1.9 6.6 3.2 8 3 1.5-0.2 4.6-1.4 5-2.5 0.3-1.1-0.6-4.2-1.5-5.1-1-0.9-7.7-4.1-7.7-6.1 0-2.1 7.3-9.2 9.1-10.7 1.9-1.5 7.2-2.9 8.3-3.8 1.1-0.9 1-2.3 1.2-3.4 0.2-1.1-1.2-10.2-1.2-10.2 0 0 7.6 3.5 16.3 2.4 8.7-1.1 16.2-8.5 21.2-10.5 5-2 9.9-2.8 11-2.6-2.9 3.5-5 13.5-3.6 20.5 1.5 7 8.4 9.6 8.4 10.5 0 1-2.3 3.7-5.2 5.9-3 2.3-12.8 6.3-13.5 7.1-0.8 0.7-2 3.3-1.8 4 0.1 0.8 3.1 4.7 5.7 4.8 2.5 0.2 7.5-0.3 17.3-8.1 9.8-7.7 10.3-15.7 9-18.8-1.3-3.2-5.8-2.7-6-5.2-0.6-6.2 15.8-15.4 15.7-29-0.1-10.3-8.9-16.5-8.9-16.5 3.7 0.9 5.9 3 10 6 4.1 2.9 19 12.3 35.1 10.6 16.1-1.6 30.3-32.2 29.2-33-1.1-0.7-15.6 11.3-39.6 11.4-28.5 0.1-36-11.4-54.8-11.2-9.8 0.1-18.7 3-27.6 6.5-1.5-1.6-4-4.3-4.3-6.3-0.3-3-1.3-7.1 11.6-8.9 13-1.9 26.8 7.9 54.2-5 23.9-11.3 41.5-41.3 40.7-41.9q-0.1-0.1-0.1-0.1z"/></svg>