<svg version="1.2" xmlns="http://www.w3.org/2000/svg" viewBox="0 0 256 256" width="256" height="256"><style>.a{opacity:.5}</style><path fill-rule="evenodd" class="a" d="m128 218c-48.1 0-87-38.9-87-87 0-23.1 9-42.9 23.7-57.3-7.1-12.2-1.2-27.5 9.2-31.7 14.3-5.8 23.1-1 30.9 9.8l0.1 0.1q0 0 0 0 0 0 0 0l7 10.9q0 0 0 0l15.8 24.5 15.9-24.6 0.1-0.2 0.1-0.2 6.8-10.6q0 0.1 0 0.1l0.3-0.5c7.8-10.8 16.6-15.6 30.9-9.8 10.5 4.3 16.4 19.6 9.2 31.9 14.9 14.3 24 34.3 24 57.6 0 48.1-38.9 87-87 87zm0-68.1c-9.7 0-18.7-6.1-22.8-11.5l-34.9-55.7q-4.1 4-7.5 8.7c7.9 2.6 11.8 9.8 11.6 19.9-0.3 10.2-6.9 19.6-17.1 17.9-2.7-0.4-4.7-1.4-6.2-2.9q-0.1 1.8-0.1 3.7c0 12.2 2.8 23.7 7.9 34 0.1-6.3 2.5-11.5 6.1-15.5 8.8-9.9 26.9-8.3 38.8 3.6 12.7 12.7 14.1 30.2 3.9 40.2-3.8 3.7-9 5.9-14.5 6.4 10.5 5.3 22.3 8.3 34.8 8.3q4.1 0 8.2-0.4c0.1-16.4 8.7-28.5 21.6-29.7 8.5-0.8 16.3 6.1 18.9 12.8 10.2-8.3 18.1-19.1 23-31.5-2.6 1.2-5.4 1.9-8.3 1.9-11.3 0-21.5-11-21.5-25.9 0-14.9 9.7-27 21.8-27 3.9 0 7.6 1.3 10.7 3.6-3.1-11.3-9.1-20.8-17.1-28.5l-34.8 55.6c-4 5.4-12.9 11.9-22.5 12z"/></svg>