<svg version="1.2" xmlns="http://www.w3.org/2000/svg" viewBox="0 0 256 256" width="256" height="256"><style>.a{opacity:.5}</style><path fill-rule="evenodd" class="a" d="m78.9 182c-4.5 0-21.6 2.8-22.8 1.6-0.3-0.4 9.2-22.9 9.2-22.9-2.5-6.2-2.9-9.7-2.9-19.9 0-15.1 6.8-31.3 11.2-37.5 0-8.5-2.3-19-1-20.3 2.4-2.7 5.5 11.5 10.6 19.5-5.9 8.1-8.6 19.2-8.6 35 0 30 29.6 45.2 53.4 45.2 23.8 0 53.4-15.2 53.4-45.2 0-15.8-2.7-26.9-8.6-35 5.1-8 8.2-22.2 10.6-19.5 1.3 1.3-1 11.8-1 20.3 4.4 6.2 11.2 22.4 11.2 37.5 0 10.2-0.4 13.7-2.9 19.9 0 0 9.5 22.5 9.2 22.9-1.2 1.2-18.3-1.6-22.8-1.6l-8.1 7.5c0 0 0.4 17.5-1 17.5-2.9 0.1-10.1-8.5-13.4-9.2-15.3-3.3-22.5 15.8-26.6 28.5-4.1-12.7-11.3-31.8-26.6-28.5-3.3 0.7-10.5 9.3-13.4 9.2-1.4 0-1-17.5-1-17.5zm39.1-26c11.9-14.8 4.7-63.6-10.7-79.5 20.7-24.6 15.9-42.9 20.7-46.5 4.7 3.6 0 21.9 20.7 46.5-15.5 15.9-22.7 64.7-10.7 79.5-8.5 12.2-7.2 21.4-10 22-2.9-0.6-1.5-9.8-10-22z"/></svg>