<svg version="1.2" xmlns="http://www.w3.org/2000/svg" viewBox="0 0 256 256" width="256" height="256"><style>.a{opacity:.5}</style><path fill-rule="evenodd" class="a" d="m122.1 179.8v35.5c0 0 0.2 5.6-5.8 5.6-5.9 0-5.7-5.6-5.7-5.6 0 0 0.1-36.6 0-39.6 0-1.3-0.8-2.6-1.9-3.2q-3.4-1.8-6.4-4.1-1.6-1.3-3-2.9l-9.5 6.3q1.5 3.6 2.2 7.3 0.6 3.5 0.6 7.1 0 3.2-0.5 6.3c-0.2 1.6-0.4 2.5-0.5 2.7-0.9 3.7-4.7 6-8.4 5-3.7-0.9-5.9-4.6-5-8.3q0 0 0.1-0.1 0.5-2.8 0.5-5.6 0-3.1-0.7-6.2-0.5-1.6-1.1-3.1-0.7-1.5-1.7-2.8c-1.4-1.8-3.1-3.4-5-4.6q-1.9-1.2-4-2-2.5-0.9-5.2-1.3-1-0.1-1.5-0.2h-0.3c-3.8 0-6.9-3.1-6.9-6.9 0-3.8 3.1-6.9 6.9-6.9q1.6 0.1 3.1 0.3c3.7 0.4 7.4 1.4 10.9 3q3.5 1.6 6.7 3.9 1.2 0.9 2.3 2l9.8-6.6c-2.6-4.6-4.6-8.8-5.1-9.9-0.7-1.6-2.2-2.6-3.8-2.6 0 0-20.3 0-28.4-0.1-8-0.2-15.1-11.4-16-13.1-1-1.8-1.4-3.5-0.5-4.9 0.9-1.3 3.3-0.9 3.3-0.9 0 0 36.1 0.9 39.6 0.9 3.6 0.1 3.1-3.7 2-5.8-1-2-4.1-2.1-4.1-2.1 0 0-27.5-3.3-36.5-4.8-11.3-1.8-16.9-14-17.4-15.3-0.5-1.3-1.3-5.2-0.5-6.2 0.9-1 3.2-0.5 3.2-0.5 0 0 47.1 7 49.5 7.3 2.4 0.2 2.8-1.4 2.6-3.8-0.2-2.4-3.3-3.4-3.3-3.4 0 0-35.6-14-40.9-16.3-5.4-2.2-7.5-7.7-7.5-7.7l-4.6-12.1c0 0-1.1-2.6 0.3-3.8 1.3-1.1 4.1-0.2 4.1-0.2l70 26.4c4 1.5 3.9 3.5 3.9 4.7v9.7c0.1 2.9 0.8 5.7 2.3 8.1 1 1.7 2.2 3.2 3.7 4.5 0 0 0.3-11.8 12.5-17.3h0.2l1.5-23c0 0 0.5-12.8 5.8-12.8 5.3 0 5.8 12.8 5.8 12.8l1.5 23h0.2c12.2 5.5 12.5 17.3 12.5 17.3 1.5-1.3 2.7-2.8 3.7-4.5 1.5-2.4 2.2-5.2 2.3-8.1v-9.7c0-1.2-0.1-3.2 3.9-4.7l70-26.4c0 0 2.8-0.9 4.1 0.2 1.4 1.2 0.3 3.8 0.3 3.8l-4.6 12.1c0 0-2.1 5.5-7.5 7.7-5.3 2.3-40.9 16.3-40.9 16.3 0 0-3.1 1-3.3 3.4-0.2 2.4 0.2 4 2.6 3.8 2.4-0.3 49.5-7.3 49.5-7.3 0 0 2.3-0.5 3.2 0.5 0.8 1 0 4.9-0.5 6.2-0.5 1.3-6.1 13.5-17.4 15.3-9 1.5-36.5 4.8-36.5 4.8 0 0-3.1 0.1-4.1 2.1-1.1 2.1-1.6 5.9 2 5.8 3.5 0 39.6-0.9 39.6-0.9 0 0 2.4-0.4 3.3 0.9 0.9 1.4 0.5 3.1-0.5 4.9-0.9 1.7-8 12.9-16 13.1-8.1 0.1-28.4 0.1-28.4 0.1-1.6 0-3.1 1-3.8 2.6-0.5 1.1-2.5 5.3-5.1 9.9l9.8 6.6q1.1-1.1 2.3-2 3.2-2.3 6.7-3.9c3.5-1.6 7.2-2.6 10.9-3q1.5-0.2 3.1-0.3c3.8 0 6.9 3.1 6.9 6.9 0 3.8-3.1 6.9-6.9 6.9h-0.3q-0.5 0.1-1.5 0.2-2.7 0.4-5.2 1.3-2.1 0.8-4 2c-1.9 1.2-3.6 2.8-5 4.6q-1 1.3-1.7 2.8-0.6 1.5-1.1 3.1-0.7 3.1-0.7 6.2 0 2.8 0.5 5.6 0.1 0.1 0.1 0.1c0.9 3.7-1.3 7.4-5 8.3-3.7 1-7.5-1.3-8.4-5-0.1-0.2-0.3-1.1-0.5-2.7q-0.5-3.1-0.5-6.3 0-3.6 0.6-7.1 0.7-3.7 2.2-7.3l-9.5-6.3q-1.4 1.6-3 2.9-3 2.3-6.4 4.1c-1.1 0.6-1.9 1.9-1.9 3.2-0.1 3 0 39.6 0 39.6 0 0 0.2 5.6-5.7 5.6-6 0-5.8-5.6-5.8-5.6v-35.5c0 0 0.4-4-5.9-4-6.3 0-5.9 4-5.9 4zm-11.5-51.5c0 9.7 7.8 17.5 17.4 17.5 9.6 0 17.4-7.8 17.4-17.5 0-9.6-7.8-17.4-17.4-17.4-9.6 0-17.4 7.8-17.4 17.4z"/></svg>