<svg version="1.2" xmlns="http://www.w3.org/2000/svg" viewBox="0 0 256 256" width="256" height="256"><style>.a{opacity:.5}</style><path fill-rule="evenodd" class="a" d="m106.4 133.3c-7.8-1.7-12.4 9.2-15.1 14.1-2.8-5.9-7.8-14.7-11.6-14.1-4.5 0.7-3.8 22.3-3.1 28.3-2.9-4.3-12.8-11.5-16.1-8.2-8.8 8.8 7.3 37.8 26.8 53.9-14.6-5.7-50.8-34.3-51.3-76.7-0.6-50 34.7-75.6 56.7-87.2-5.9 8.2-17.9 22.8-11 43 9.9 29.3 40.9 17.9 37.7 2.7-1.5-7.2-14.4 4.8-19 8 4.1-10 21.6-51.6 27.3-64.1 5.7 12.5 23.1 54.1 27.3 64.1-4.7-3.2-17.5-15.2-19-8-3.2 15.2 27.7 26.6 37.7-2.7 6.8-20.2-5.2-34.8-11-43 21.9 11.6 57.2 37.2 56.6 87.2-0.4 42.4-36.6 71-51.3 76.7 19.6-16.1 35.7-45.1 26.8-53.9-3.2-3.3-13.1 3.9-16.1 8.2 0.7-6 1.5-27.6-3.1-28.3-3.8-0.6-8.8 8.2-11.5 14.1-2.7-4.9-7.4-15.8-15.1-14.1-15 3.4-15.9 90.6-21.3 90.6-5.4 0-6.4-87.2-21.3-90.6zm1.1 32.3c2.8 15.9 5.7 13.6 5.7 29.6 0 14.6-9 20.2-14.5 20.2 9.9-10.1 3.8-34-2-34-7.5 0-2.6 11.8-5.2 14.4-2.2 2.2-7.8-3.1-7.8-13.4 0-19.1 19.8-35.1 24.4-39.1-0.3 2.8-2.7 10.6-0.6 22.3zm39.8-22.3c4.6 4 24.4 20 24.4 39.1 0 10.3-5.6 15.6-7.8 13.4-2.6-2.6 2.2-14.4-5.2-14.4-5.8 0-12 23.9-2.1 34-5.4 0-14.5-5.6-14.5-20.2 0-16 2.9-13.7 5.7-29.6 2.1-11.7-0.2-19.5-0.5-22.3z"/></svg>