<svg version="1.2" xmlns="http://www.w3.org/2000/svg" viewBox="0 0 256 256" width="256" height="256"><style>.a{opacity:.5}</style><path fill-rule="evenodd" class="a" d="m125.8 210.8c-1.6-4.7-5.9-10.8-5.9-22.2 0-12.7 6.2-20.2 6.2-24.1 0-2.9-3.7-12.4-9.7-19.3-3.7 3-6.8 6.7-9.2 11.1 0.2 14.2-1.2 18.7-4.5 24.1-7.7 12.6-21.9 19.1-23.2 18-1.9-1.6 8.3-23.2 22-41.2-1.5-5.3-4.4-9.5-5.8-10.8-1.9 1-16.3 8-18.4 8-5.7 0-13.2-5.7-12.1-6.8 1.6-1.6 16.2 2.6 27.4-5.7-4.8-8.8-24.1-4.8-35.6-16.8-8.2-8.5-8.1-14.3-8.1-22.6 0-6.4-8.5-18.3-7.9-24.1 0.3-2.7 17.5 13.8 17.8 23.9 0.3 7.4 2.5 11.9 5.6 15.5 7.4 8.4 17.6 10.8 23.8 13 2.8 1 6.4 3.5 8.9 8.1 2 3.5 5.6-6.3 6.6-9.1-2.3-6-31-25.2-37.8-38.1-3.2-6-4.3-18.7 4.3-27.8 2.5-2.5 0.9-20.4-4.9-29.5-1.5-2.4 16.2 6.5 16.2 33 0 7.1-11.9 18.9-3.1 30.4 6.7 8.7 18.9 17 27.5 26.3 2.1-5.9 1.2-16.5-8.5-17.5-13-1.5-8.9-29.4-5.3-29.4 3.2 0-1 16.2 14.7 25.2 5.6 3.2 6.6 17.9 3.1 25.7l7.2 8.6 7.4-7.5c-2.1-3.1-8.5-11-8.5-22.9 0-11.9 9.4-34.7 12-35 2.6 0.3 12 23.1 12 35 0 11.9-6.4 19.8-8.5 22.9l7.4 7.5 7.2-8.6c-3.5-7.8-2.5-22.5 3.1-25.7 15.7-9 11.5-25.2 14.7-25.2 3.6 0 7.7 27.9-5.3 29.4-9.7 1-10.6 11.6-8.5 17.5 8.6-9.3 20.8-17.6 27.5-26.3 8.8-11.5-3.1-23.3-3.1-30.4 0-26.5 17.7-35.4 16.2-33-5.8 9.1-7.4 27-4.9 29.5 8.6 9.1 7.5 21.8 4.3 27.8-6.8 12.9-35.5 32.1-37.8 38.1 1 2.8 4.6 12.6 6.6 9.1 2.5-4.6 6.1-7.1 8.9-8.1 6.2-2.2 16.4-4.6 23.8-13 3.1-3.6 5.3-8.1 5.6-15.5 0.3-10.1 17.5-26.6 17.8-23.9 0.6 5.8-7.9 17.7-7.9 24.1 0 8.3 0.1 14.1-8.1 22.6-11.5 12-30.8 8-35.6 16.8 11.2 8.3 25.8 4.1 27.4 5.7 1.1 1.1-6.4 6.8-12.1 6.8-2.1 0-16.5-7-18.4-8-1.4 1.3-4.3 5.5-5.8 10.8 13.7 18 23.9 39.6 22 41.2-1.3 1.1-15.5-5.4-23.2-18-3.3-5.4-4.7-9.9-4.5-24.1-2.4-4.4-5.5-8.1-9.2-11.1-6 6.9-9.7 16.4-9.7 19.3 0 3.9 6.2 11.4 6.2 24.1 0 11.4-4.3 17.5-5.9 22.2-1.4 3.9-0.2 10.1-2.2 11.7-2-1.6-0.8-7.8-2.2-11.7zm-4.9-104.4c0 10.3 4.5 15 7.1 18 2.6-3 7.1-7.7 7.1-18 0-6.7-4.4-16.5-7.1-19.8-2.7 3.3-7.1 13.1-7.1 19.8zm0 35c2.7 3.4 5.5 6.8 7.1 11.3 1.6-4.5 4.4-7.9 7.1-11.3-2.7-2.3-4.8-4.6-7.1-7-2.3 2.4-4.4 4.7-7.1 7zm3.7 47.7c0 4.9 1.7 9.4 3.4 12.6 1.7-3.2 3.4-7.7 3.4-12.6 0-5.6-1.9-11.9-3.4-14.1-1.5 2.2-3.4 8.5-3.4 14.1zm-24.4-14.6c2.3-3.9 3.8-12.1 3-11-1.8 2.4-10.4 15.7-11.6 18.9-0.9 2.4 5.9-3.3 8.6-7.9zm13.7-33.6c-2.3-2.9-3.7-5-5.6-7.2-1.9 3.9-5.1 7.6-8 10.1 2.2 3 2.9 4.3 4.4 7.8 2.3-4.3 5.9-8.4 9.2-10.7zm50.5 41.5c-1.2-3.2-9.8-16.5-11.6-18.9-0.8-1.1 0.7 7.1 3 11 2.7 4.6 9.5 10.3 8.6 7.9zm-13.1-30.8c1.5-3.5 2.2-4.8 4.4-7.8-2.9-2.5-6.1-6.2-8-10.1-1.9 2.2-3.3 4.3-5.6 7.2 3.3 2.3 6.9 6.4 9.2 10.7z"/></svg>