<svg version="1.2" xmlns="http://www.w3.org/2000/svg" viewBox="0 0 256 256" width="256" height="256"><style>.a{opacity:.5}</style><path fill-rule="evenodd" class="a" d="m128 218c-22.5 0-43-8.2-58.7-21.8l10.8-15 10.9 14.8h96c-15.8 13.7-36.4 22-59 22zm-22-72.7v-25.3h-14v-15h14v-13h-14v-15h14v-16h-38.1c15.9-14.3 37-23 60.1-23 23.1 0 44.2 8.7 60.1 23h-74.1v16h10.3l-10.3 14v81h89v-80h-58v58h27v-22h-12v-18h19v48h-42v-65h0.1l11.8-16h53.3c10 14.5 15.8 32.1 15.8 51 0 19.4-6.1 37.3-16.5 52h-101.4l-9.7-13.2zm-68-17.2c0-19 5.9-36.5 15.8-51h15.2v15h-15v13h15v15h-15v25.9l15.5 21-12.3 16.7c-12-15.3-19.2-34.6-19.2-55.6zm54.3 8l-12.3 16.6-12.2-16.6zm110.7 79c-5.8 0-10.5-4.7-10.5-10.5 0-5.8 4.7-10.5 10.5-10.5 5.8 0 10.5 4.7 10.5 10.5 0 5.8-4.7 10.5-10.5 10.5zm-4.4-10.5c0-2.4 2.4-4.5 4.4-4.5 2 0 4 1.5 4 4 0 1-0.9 2.3-2 2.3-0.7 0-1.7-0.4-2-1.3 0.8 0.2 1.2-0.1 1.5-0.7 0.9-1.4-1.2-2.5-1.8-2.3-1.7 0.7-2 1.8-2 3 0 2 2 4.2 4.5 4.2 2.6 0 4.7-2.3 4.8-5.2 0.1-3.7-3.5-7-7-7-3.5 0-7 3.3-7 7 0 4 3.2 6.8 6.5 6.8-3.4-2.1-3.9-4.6-3.9-6.3z"/></svg>