<svg version="1.2" xmlns="http://www.w3.org/2000/svg" viewBox="0 0 256 256" width="256" height="256"><style>.a{opacity:.5}</style><path fill-rule="evenodd" class="a" d="m122.1 69.6v-11.9h22.7v-11.8h23.8v23.7h11.9v10.9h35.6v23.7h-11.9v11.9h-11.9v23.8h-11.8v10.9h-11.9v-34.7h-11.9v-23.7h-11.9v-11.9h-10.9v-10.9zm22.8 10.9h11.9v-10.9h-11.9zm23.8 11.9h11.8v-11.9h-11.8zm0 23.8h11.8v-11.9h-11.8zm-70.3-11.9v-23.7h11.9v-10.9h11.8v22.7h-11.8v11.9zm11.8 11.9h11.9v11.9h-11.9zm23.8-23.8h10.9v11.9h-10.9zm-47.5 11.9h11.9v11.8h-11.9zm-11.9 11.9h11.9v11.9h-11.9zm70.3 0h11.9v11.9h-11.9zm-81.2 11.8h10.9v11.9h-10.9zm34.7 0h11.8v11.9h-11.8zm35.6 0h10.9v11.9h-10.9zm-82.2 11.9h11.9v10.8h-11.9zm34.7 0h11.9v10.9h-11.9zm35.6 0h11.9v10.9h-11.9zm22.8 0h11.9v10.9h-11.9zm47.5 0h11.9v10.9h-11.9zm-152.4 10.9h11.8v23.7h-11.8zm34.6 0h11.9v11.9h-11.9zm35.6 23.8h11.9v-11.9h11.9v-11.9h10.9v11.9h11.9v-11.9h11.8v11.9h11.9v11.9h-11.9v11.8h-34.6v11.9h-35.6v-11.9h11.8zm70.3-23.7h11.9v11.9h-11.9zm-128.7 23.7h11.9v-11.9h10.9v11.9h23.8v11.9h-11.9v11.9h11.9v11.8h-23.8v-11.8h-10.9v-11.9h-11.9zm46.6-11.9h11.8v11.9h-11.8z"/></svg>