<svg version="1.2" xmlns="http://www.w3.org/2000/svg" viewBox="0 0 256 256" width="256" height="256"><style>.a{opacity:.5}</style><path fill-rule="evenodd" class="a" d="m108 54v-13h41v13zm-27 14v-14h27v14zm68 0v-14h27v14zm-82 40h14v14h13v-14h14v-13h13v-14h-13v-13h41v13h27v14h13v-14h14v27h-14v41h-13v-27h-14v27h-13v14h-26v13h26v14h-41v-14h-27v-27h-14zm0-27v-13h14v13zm109 0v-13h13v13zm-122 27v-27h13v27zm-14 41v-41h14v41zm163 0v-41h13v41zm-136 27h-13v-27h13zm122 0v-27h14v27zm-108 14h-14v-14h14zm95 0v-14h13v14zm-68 13h-27v-13h27zm41 0v-13h27v13zm-41 14v-14h41v14zm-27-136h13v14h-13zm81 82h14v13h-14z"/></svg>