<svg version="1.2" xmlns="http://www.w3.org/2000/svg" viewBox="0 0 256 256" width="256" height="256"><style>.a{opacity:.5}</style><path fill-rule="evenodd" class="a" d="m64 179.8l18.8 1.4c-7.2 4.5-23.7 17.4-38.8 29.9v-12.3c6.6-5.6 13.4-11.9 20-19zm22.8 21c-0.4 3-0.5 3.9-0.8 7.2-2.7 1.5-4.7 2.8-6.6 4h-8.4c6.2-4.1 12.8-9 15.8-11.2zm-2.1 9.5l-0.4 1.7h-2.8c1.5-1 2.6-1.6 3.2-1.7zm3.6-10.1c-0.1-0.8-1.6-2.3-3.6-4.5l0.7-5.9 3.8-2.7 0.5-5.5-4.1 0.1 1.3-2.9 6.5-3 6.1-6 10-0.7-3.9 6.1-2.5 0.8-1.2 3c0.2 0.3 2-0.7 2-0.3-1.5 8.5-8.5 22.9-15 33.3h-2.8c1.2-4.4 2.2-10.9 2.2-11.8zm-19.5-28l6.5 1 0.4-2.6 5.3-4.5 2-4.9 6.9-3.9 0.1-2.1 2.9-0.6 0.7-2.7 3.7-0.8 1.7-3.8 11.8-6.5 2.6 0.3 9.2-4.4 1.1 1.2 1 1.4-5.4 8.5-0.1 2.2-9.2 10.8-3.7 0.7-1.8 3.6-2.9 0.2-1.2 2.4h-2.1l-5.3 5.9-4.5 0.9-1.9 1.6-1.7 3.4-20-1.1zm4.6-5.3l8-17.8 10.2-4.2-2.9 11-6.6 3.6-3.8 5.3zm62.1 0.5c-7 9.9-29.3 34.4-41.2 41 3.2-6.1 10.3-22 13-31.4 3.7-4.5 6-8.4 8.3-13.3l-2.5-0.7-1.6 2.2h-5.6l1.4-2.7 3.4-0.6 9.6-11.4 0.2-2.5 5.4-8.8-0.7-1.1c21.4-16.3 33.5-25.7 58.5-46.3 0 0 6.7-16.2 8.4-17.6l21.3-6.7 0.6-0.2v19.5c-17.9 20.3-38.9 42.8-63.1 67.1-15.1 0.5-24 7.8-25.7 15.5-0.5 2.5 4.1 1.9 10.3-2zm-24.5-27.9l-12.7 6.9-1.6 3.6-2.7 0.5 1.5-5.3 0.6-0.5 0.3-4.7c-2.8-0.6-4.6-0.2-6.5 0.1l0.4-1.7c-6.9 3.4-28.3 13.2-38.8 18.6 6-5.7 24.2-21.3 26.1-23.1-0.1 1.2 0.5 2 1.5 1.6 0 0 21.9-9.2 32.3-13.4 0 0.4 1.7 0.3 1.7 0.3l-2 2.3-2.4 1c-0.1 2.3 0.6 2.9 5.8 5.2l1-1.7 7.9-2.5 12.8-9.8-6.7 2.2-0.1-2c-6.3-1.7-9.9-0.8-9.9-0.8l1.4-2.9-38.6 17.2 26.4-22c0 0-0.5 1.9 1.6 2l29.8-10.9 1.7 0.1-1.1 1.4-2.3 1.3c-0.2 1.9 0.7 3.2 7.7 5.6l1.8-1.7 4.6-1.5 10.6-7.8-3.2-0.5 0.5-2c-8.1-2.6-9.6-1.2-9.6-1.2l0.4-2.4-38.8 15.6 27.4-20.3c0 0-0.7 1 1.3 1.3l27.4-7.9 8.2-2.3-1.5 2.8-5.1 2.2 3.3 3.5 11.9-2.9-3.5 7.4c-23.9 20.1-34.4 28.2-57.9 45.9l-1.1-1-9.4 4.5zm100.5-74.1l-20.1 5.5-5.4 10.2-11 2.7 4.8-10.1-35.4 9.3c23.1-13.6 44.5-28 69.7-43.1v18.3zm-112.1 97.3l3.2-2.7 2.5 0.9 1.5-1.1-0.5-2.8 9.2-7.4-4.7-5.4-8.3 7.2-2.7-0.7-1.5 1 0.1 3.1-3.2 2.4z"/></svg>