<svg version="1.2" xmlns="http://www.w3.org/2000/svg" viewBox="0 0 256 256" width="256" height="256"><style>.a{opacity:.5}</style><path fill-rule="evenodd" class="a" d="m174.1 72.2c-13.8 5.3-27.3 15.2-34.9 19.9l-2.3 8.2-42.9 30.4 2.6-12.8-13.1 3.4c24.9-22.3 70.7-59.5 112-89.3h17.2zm-104.1 108.1l-10.9 5.3 0.8-6.1 13-5.4-0.1-4 7-4.2 0.3-3.8 2.8-0.8-0.1-2.9 4.7-1.9 0.9-4.1 9.9-7.3 3.1-0.1 9.2-5.3 1.7 1.7-4.7 9.5 0.1 3-6.8 10.3-4 1.1-1.6 4.8-3 0.1-0.6 2.9-3.7 0.5-3.8 7.3-4.1 0.1-4.6 13.2-6.1 1.2 4.8-11.2zm29.4-31.2l-8.4 8.8-2.3-0.7-1.4 1.5 0.6 2.7-2.2 2.3 4.1 3.9 2.2-2.4 2.7 0.5 1.4-1.5-0.8-2.2 8.3-8.9-1.8-2.3zm21.3-29.9l-8.9 6.3-14.3 4.4 40.9-28.4 1.8-8.1c5-4 25-15.3 33.8-19.2-3.3 9-13.5 29.6-17.2 34.9l-8 2.2-26 42.5 3.6-14.6 5.8-9.2-17.2 6.9c9.4-8.8 14.8-14.4 22.1-10.1-3.8-10.3-0.4-10.9 13.4-27.7q0 0 0 0 0 0 0 0c-16 14.7-16.4 18.2-26.9 15 4.8 7-0.4 12.9-8.6 22.8zm-5.8 17.7q0 0 0 0 0 0 0 0zm-45.7 19.7l-1.4 2.6 2.1-0.1 1-3 8.5-3.3-1.3 11.2-7.9 4.4 0.2 4.2-5.2 2.7 0.8-3-6 0.1-2.4 4.1-13.8 2.4v-13.5c9-3.7 18.1-6.9 25.4-8.8zm9.4-24.1l-3.6 6.4 3 1.4 6.2-1.8 9.7-5.8 18-5.5 6.7-4.8-3.9 12.2-3.8 3.8-9.9 5.4h-3.4l-10.7 7.6-0.6 3.1-3.6 2.2 0.5-5.2 4.9-3.1 0.6-5.1-3.3-0.4-6.3 1.8-2 2.8 4.7 3.4-38 5.4v-5.1zm-21.7 55.1l12-5.4 3.1 3-4.7 12.2q-7.9 6.6-16.2 14.5h-7.3v-7.8q7.2-8.4 13.1-16.5zm36-48l4.6-3.3-0.6-1-5.6 1.4-2.3 2.1 0.6 1zm39.2 27.7l2.7-13.2-12.7 3.3 27.9-44.6 8.1-2.7c4.3-7.9 13.4-21.9 17.9-35.9l37.8-40.7v18.8c-27.3 42.4-61.1 89.3-81.7 115zm-53.7 28.8l3.9-2.6-0.1-6-3 0.9 2.4-5.2 4.2-0.1 3.9-8.1 11.2-2-2.8 8.7-3 1.1 0.1 2.2 2.4-1.6c-1.6 8.1-4.7 18.4-8.3 28.5h-12.7zm24.3-25.6l3.7 4.5 2.6-2.1 1.4-6.5-0.6-3.2-5 0.8-2.8 5.1-5.2 0.8 2-3.7 3.1-0.8 6.9-11.1-0.1-3.4 4.8-10.2 3.6-4 12-4.6-4.5 7-4.5 18.3-5.2 10-1.5 6.3 1.6 2.9 6.2-4-18.2 39.3h-3.8zm10.5-8.5l1.1 0.5 2-2.4 1-5.6-1-0.5-3.1 4.7z"/></svg>