<svg version="1.2" xmlns="http://www.w3.org/2000/svg" viewBox="0 0 256 256" width="256" height="256"><style>.a{opacity:.5}</style><path fill-rule="evenodd" class="a" d="m110.1 98.8c11.3-8.6 23.2-17.6 25.7-38.1 3.2 1.9 5 12.1 5.4 25.3-3.6 4.2-8.9 9.4-12.5 12.7q-0.1-2.8-0.2-5.5c-10.7 8.3-22.1 14.9-25.7 33.6-15.8-32.9 2.9-85.7 29.3-103.8-9.2 16.1-22.3 48-22 75.8zm16.1 63.3c2.6-15.7 3.2-31.5 2.9-47.7 4.8-5.3 8.4-9.2 12.1-12.4-0.9 26.7-6.1 56.9-15 60.1zm0.7-112.1c-3.2 10.3-4.2 21.6-3.9 34.8-3.2 3.5-6.3 5.7-10 8.6 2.1-20.1 7.8-38.5 13.9-43.4zm-3.2 56.6c19.7-19.4 24.5-21.4 27.1-46.3 16.2 18.8 11.4 117.8-34.6 173.1 10.1-23.7 30.4-89.8 26.5-136.5-15.2 15.7-22.6 20.3-22.9 46.9-5.5-7-7.9-19.3-8-32.8 1.6-1.7 7.3-7.6 11.4-10.2q0.2 2.8 0.5 5.8z"/></svg>