<svg version="1.2" xmlns="http://www.w3.org/2000/svg" viewBox="0 0 256 256" width="256" height="256"><style>.a{opacity:.5}</style><path fill-rule="evenodd" class="a" d="m162.4 44.9c11 4.5 20.9 11.1 29.2 19.5 8.4 8.3 15 18.2 19.5 29.2 4.6 10.9 6.9 22.6 6.9 34.4 0 11.8-2.3 23.5-6.9 34.4-4.5 11-11.1 20.9-19.5 29.2-8.3 8.4-18.2 15-29.2 19.5-10.9 4.6-22.6 6.9-34.4 6.9-8.5 0-16.9-1.2-25.1-3.6-8.1-2.4-15.9-5.9-23-10.4-7.2-4.6-13.7-10.1-19.3-16.5-5.6-6.3-10.3-13.5-13.9-21.1 3.1 4.7 6.8 9 11 12.8 4.2 3.8 8.9 7.1 13.9 9.8 5 2.7 10.3 4.8 15.8 6.1 5.5 1.4 11.2 2.1 16.9 2.1 9.1 0 18.1-1.8 26.5-5.2 8.4-3.5 16-8.6 22.4-15 6.5-6.5 11.6-14.1 15-22.5 3.5-8.4 5.3-17.4 5.3-26.5 0-9.1-1.8-18.1-5.3-26.5-3.4-8.4-8.5-16-15-22.5-6.4-6.4-14-11.5-22.4-15-8.4-3.4-17.4-5.2-26.5-5.2-5.7 0-11.3 0.7-16.8 2-5.5 1.4-10.8 3.5-15.8 6.1-5 2.7-9.6 5.9-13.8 9.7-4.2 3.8-7.9 8.1-11.1 12.8 3.6-7.6 8.3-14.7 13.9-21.1 5.6-6.3 12.1-11.8 19.3-16.3 7.1-4.6 14.9-8.1 23-10.4 8.1-2.4 16.5-3.6 25-3.6 11.8 0 23.5 2.3 34.4 6.9zm-31.7 83.1c0 3.5-0.7 6.9-2 10.1-1.3 3.2-3.3 6.1-5.7 8.6-2.5 2.5-5.4 4.4-8.6 5.7-3.2 1.4-6.7 2-10.1 2-3.5 0-6.9-0.6-10.1-2-3.3-1.3-6.2-3.2-8.6-5.7-2.5-2.5-4.4-5.4-5.8-8.6-1.3-3.2-2-6.6-2-10.1 0-3.5 0.7-6.9 2-10.1 1.4-3.2 3.3-6.1 5.8-8.6 2.4-2.5 5.3-4.4 8.6-5.7 3.2-1.4 6.6-2 10.1-2 3.4 0 6.9 0.6 10.1 2 3.2 1.3 6.1 3.2 8.6 5.7 2.4 2.5 4.4 5.4 5.7 8.6 1.3 3.2 2 6.6 2 10.1z"/></svg>