<svg version="1.2" xmlns="http://www.w3.org/2000/svg" viewBox="0 0 256 256" width="256" height="256"><style>.a{opacity:.5}</style><path fill-rule="evenodd" class="a" d="m85.4 81.6c0.9 17.9 2 29.6 15.8 34.3-0.1-1.7-0.1-4.7 1.3-6.4 2.1-2.5 6.4-4.4 10.4-5.4 0-1-0.4-2.4 1.9-4.3 2.2-1.9 5-3.8 8.6-4.7 3.6-0.9 9-0.9 13.1-2.5 4.1-1.5 8.9-5.7 11.7-9.2 0.5 8-0.7 11.9-4 17.5 0.8-0.4 1.8-1.5 2.2-2.2 0.1 3.5-1.7 5.3-2.7 6.5 1-0.5 1.6-1 2.1-1.7-0.6 3.7-1.9 8.1-3.1 10.7-1.2 2.6-3.7 4-3.7 4 29-0.7 30.5-13.4 31.6-36.6 6.6-0.2 47.7-14.8 55.1-14.9-1.3 11.5-3.1 22.4-5.5 32.4-2.9 0.1-9.9 0.2-10.3 1.5-0.5 1.6 5.1 3.1 8.9 3.9-1.9 6.9-4.2 13.4-6.9 19.4-2.7-1.2-9-3.9-9.7-2.8-0.7 1.2 4.8 4.9 7.7 6.7-3.5 6.7-7.7 12.6-12.7 17.5-1.7-1.5-7-6-8.3-5.6-1 0.3 2.7 5.7 4.8 8.8-5.2 4.3-11.3 7.6-18.2 9.7-2.6-1.9-6.8-7-7.8-7.1-1-0.1 0.9 5.8 1.9 8.5-7.5 1.5-16 1.8-25.6 0.6 1 8.1 4.9 16.1 9 20.9 1.8 2 6 4.1 6 5.4 0.1 1.6-3.4 1.3-4.8 1.3-1.8-0.1-4.4-0.3-6.2-1.4-2.8-1.7-7.3-6.3-10.5-9.8-0.1 1.5 0.6 5.3 1.3 7.8 0.4 1.4 1.8 3.5 1.7 3.9-0.3 1-2 1-3.1 1-1.4 0-3.2-0.2-4.2-1.3-2.5-2.6-3.2-11.5-5.2-11.5-1.9 0-2.7 8.9-5.2 11.5-1 1.1-2.8 1.3-4.2 1.3-1.1 0-2.8 0-3.1-1-0.1-0.4 1.3-2.5 1.7-3.9 0.8-2.5 1.4-6.3 1.3-7.8-3.2 3.5-7.7 8.1-10.5 9.8-1.8 1.1-4.4 1.3-6.2 1.4-1.4 0-4.9 0.3-4.8-1.3 0-1.3 4.2-3.4 6-5.4 4.1-4.8 8-12.8 9-20.9-9.6 1.2-18.1 0.9-25.6-0.6 1-2.7 2.9-8.6 1.9-8.5-1 0.1-5.2 5.2-7.8 7.1-6.9-2.1-13-5.4-18.2-9.7 2.1-3.1 5.8-8.5 4.8-8.8-1.3-0.4-6.6 4.1-8.3 5.6-5-4.9-9.2-10.8-12.7-17.5 2.9-1.8 8.4-5.5 7.7-6.7-0.7-1.1-7 1.6-9.7 2.8-2.7-6-5-12.5-6.9-19.4 3.8-0.8 9.4-2.3 8.9-3.9-0.4-1.3-7.4-1.4-10.3-1.5-2.4-10-4.2-20.9-5.5-32.4 7.4 0.1 48.5 14.7 55.1 14.9zm21 33.7c-0.8 0.2-2.2 0.7-3.4 1.1 3.7 1 8.3 1.6 14 1.8 0 0-0.8-2.3-1.7-2.6-0.9-0.3-2.8-0.4-4.6-0.4-1.9 0-3.7 0-4.3 0.1z"/></svg>