<svg version="1.2" xmlns="http://www.w3.org/2000/svg" viewBox="0 0 256 256" width="256" height="256">
	<title>35 - Charizard</title>
	<style>
		.s0 { opacity: .5;fill: #000000 } 
	</style>
	<path id="Shape 1" fill-rule="evenodd" class="s0" d="m71.8 168.1c-17.1-17.3-32.2-60.2 8.4-84-18.6 30 0.4 39.2 8.6 47.4-2.5-6.1-5.5-11.7-4.3-18.5 6.1-32 37.8-34.6 42-53.2 2.5-11-6.5-18.3-8.5-21.8 47.7 11.4 43.9 74.2 39.8 83.9 16.4 1.6 33.3-5.5 41.4-24.4 23.9 35.5-21.8 58-24.5 61.7 24.3-3 39.9-15.6 42.6-19.2-4.8 38.3-40.6 77.5-89.3 77.5-41.2 0-79.6-30-83.3-64.2 6.2 3.9 14.2 12.9 27.1 14.8zm89.2 28.9c1.7-7.5-8.4-12-7.7-21.3 0.6-8.1 5.3-10.9 8.7-13.7-14.6 0.5-18.1 5-23.3 11.2 2.1-17.8-10.5-21-11.6-23.4-2.1-4.5 2.7-10.7 7.4-15.4-10.1 0-26.6 7.4-27.2 18.2-0.5 7.8 10.3 7.3 9.8 17.7-0.2 5.5-2.2 8.7-6.6 10.5-1.4-11.2-13.3-14-18.1-11.7 21.3 12.4-2.3 19 0.6 25.9 6.6 15.7 24.1 19 34 19 14.4 0 30.9-3 34-17z"/>
</svg>