<svg version="1.2" xmlns="http://www.w3.org/2000/svg" viewBox="0 0 256 256" width="256" height="256"><style>.a{opacity:.5}</style><path fill-rule="evenodd" class="a" d="m141.5 57.5l13.4-1.2c5.2-0.6 11.5 3.8 12 10l-0.6 28.5 13.7-37c1.9-3.3 5.8-5.3 10.3-4.7l31.4 9.5c3.2 1.1 4.9 6.2 3.4 9.6l-37.8 53.9 31 52.3c2.4 4.3 0.7 9.4-5.9 11.9l-20.6 5.2c-6.5 0.6-13.7-1.7-16.3-7.2l-10.6-24.4 0.1 21.8c-0.2 6-4.3 9.9-8.8 10.2l-19.9 0.1c-3.6-0.3-6.8-3.9-7.2-8l3.8-121.2c0.2-5.1 4.6-8.7 8.6-9.3zm-94.2-1.3c50.5-9 72.1 21 79.3 54.1 7.3 33.4-3.3 79.8-48.2 94.6-11.9 3.3-20.2 1.4-22.6-7.6l-24.8-120.5c-0.8-5.4-3-17.5 16.3-20.6zm29.8 96.2c14.6 0.5 21.6-16.5 19.5-29-2.3-13.5-11.3-24.9-28.2-18.8z"/></svg>