<svg version="1.2" xmlns="http://www.w3.org/2000/svg" viewBox="0 0 256 256" width="256" height="256"><style>.a{opacity:.5}</style><path fill-rule="evenodd" class="a" d="m102.2 206.6c-6.3-4.7-7.2-8-15.2-15.8-9-8.8-13.4-8.9-20.3-12.6 11.2-1.9 12.3-2.6 23.1-7.8 13.9-6.7 19.5-17.4 38.2-17.4 18.7 0 24.4 10.5 38.3 17.2 10.8 5.2 11.8 6.1 23 8-6.9 3.7-11.2 4.1-20.2 12.9-8 7.8-9.1 11.9-15.6 16.4-10.7 7.5-15.5 11.6-24.7 13.5-9.2-1.9-16.9-7.2-26.6-14.4zm-1.7-53.7c-6.3 9.3-17.7 13.4-23.4 14.2-13.8 1.9-21.6 1.1-30.9-8.6-3.2-3.3-4.7-10.3-3.3-9.9 1.9-1.9 9.9 10.3 23.1 8.4 15.7-2.2 26.2-15.6 27-28.1-0.2-13.3-6.1-26.9-27.6-29.5-13.3-1.6-21 10.9-22.9 9-1.4 0.4 0.1-6.6 3.3-9.9 9.3-9.7 16-11.4 33.6-9.1 7.1 0.9 13.7 5.5 21.1 14.1 7.7 9 16.7 13 27.8 13.1 11.1-0.1 19.2-3.5 26.8-12.5 7.4-8.6 13.3-12.9 20.3-14.2 16.1-3 26.3-2.1 35.6 7.6 3.2 3.3 4.7 10.3 3.3 9.9-1.9 1.9-7-8.4-24.7-7.4-16.2 0.9-25.1 15.8-25.3 28.6 0.4 12.6 9.8 26.2 25.7 28.4 13.2 1.9 21.2-10.3 23.1-8.4 1.4-0.4-0.1 6.6-3.3 9.9-9.3 9.7-20.3 12.1-33.3 8-6.4-2-15.5-6.2-21.1-14.3-6.8-9.7-15.7-11.7-26.7-11.8-11.1 0.1-21.6 2.7-28.2 12.5zm28.4-117.2c5.3 0 14.2 4.7 25 13.3 3.9 3.2 7.7 8 15.2 15.8 8.6 9.2 12.9 10.3 19.8 14-11.2 1.9-12.4 1.8-23.1 7.3-12.1 6.2-20.5 17.9-38.2 17.9-13.2 0-26.3-12.3-37.8-18.4-10.6-5.6-12.3-4.9-23.5-6.8 6.9-3.7 11.3-3.8 20.3-12.6 8-7.8 9.3-10.6 15.2-15.8 10-8.9 21.9-14.7 27.1-14.7zm-51 92.3c0 9.1-7.4 16.5-16.5 16.5-9.1 0-16.5-7.4-16.5-16.5 0-9.1 7.4-16.5 16.5-16.5 9.1 0 16.5 7.4 16.5 16.5zm117.1-16.3c9.1 0 16.5 7.4 16.5 16.5 0 9.1-7.4 16.5-16.5 16.5-9.1 0-16.5-7.4-16.5-16.5 0-9.1 7.4-16.5 16.5-16.5z"/></svg>