<svg version="1.2" xmlns="http://www.w3.org/2000/svg" viewBox="0 0 256 256" width="256" height="256"><style>.a{opacity:.5}</style><path fill-rule="evenodd" class="a" d="m47.7 83.5c-5.4-5.5 16.2-38.5 61.5-40.5 27.1-1.3 48.6 14.3 53.5 37.4 8.4 40.2-23.4 53.8-41.5 86.8-1.6 3 15.8-6.1 33.7-6.8 23.2-1 30.5 30.9 32 32.4 10.2 10.3 20-4 22.7-8.8 2.3 10.1-7.1 28-25.4 28-10.9 0-25.6-17.1-33.5-17.1-13.6 0-19 17.5-48.2 17.5-40.6 0-45.8-35.6 2.5-82.1-13.2 1.7-30.1-2.7-39.2-8.9 8.4 0 48.2-5.9 46.8-13.2-3.5-17.9-48.1-7.7-64.9-24.7zm83.2-3.3c0-7.3-7.4-13.1-16.7-13.1-7.9 0-14.5 4.3-16.2 10.1 2.2-1 4.9-1.6 7.9-1.6 7.7 0 13.9 4.1 13.9 9.3 0 3.6-3.1 6.7-7.6 8.2q1 0.1 2 0.1c9.3 0 16.7-5.8 16.7-13z"/></svg>