<svg version="1.2" xmlns="http://www.w3.org/2000/svg" viewBox="0 0 256 256" width="256" height="256"><style>.a{opacity:.5}</style><path fill-rule="evenodd" class="a" d="m46.2 209.8l0.3-0.8-0.5 0.2q0 0 0.7-0.7l12.6-35.4 44.7-43.4c0 0 3.2-3.2 15-15 7.8-10.3 4.8-26.2 17.4-40-2-11.5 3.7-24.4 5-23.9 1.1-0.9 4.4 9.9 8.1 15.8 2.4-0.4 9.8-0.2 12.4 0.2 7.1 1.3 14.1 4.7 14.1 4.7l18.7-19.1 3.7-13c0 0 1.3-3.8 12.6 4.3q0 0 0 0 0.1 0.1 0.2 0.2 0.1 0.1 0.2 0.1 0 0.1 0 0.1c7.8 9.5 3.7 13 3.7 13l-12.2 3.2-18.6 19.2c0 0 3.4 7 4.6 14.1 0.5 2.5-0.3 12.2-0.6 14.6 5.9 3.6 16 6.6 15.8 8.1 0.5 1-12.4 6.2-23.9 4.9-13.8 12.6-28.6 8-38.9 15.8-11.8 11.8-15.2 14.4-15.2 14.4l-43.5 44.7-35.4 12.7q-1 1-1 1zm120.6-120.1c-1.1-1.3-2.5-2.3-4.6-2.7-4.4-0.9-8.3 1.2-10.7 2.4-4.2 3.2-6.6 9.5-7.6 14.8-2.2 6.2-3 7.5-8.9 14.7-0.8 1-1.8 2.3-2.7 3.6 1.6-1 3.1-1.9 4.3-2.8 7.4-5.3 9.9-6.8 16.1-8.3 8.1-1.3 12-3.5 15.2-7.6 1.2-2.4 2.4-4.5 1.1-9.4-0.5-1.9-1.1-3.6-2-4.8q-0.1 0.1-0.2 0.1z"/></svg>