<svg version="1.2" xmlns="http://www.w3.org/2000/svg" viewBox="0 0 256 256" width="256" height="256"><style>.a{opacity:.5}</style><path fill-rule="evenodd" class="a" d="m91.5 208.8c-37-10.7-37.6-49.1-16.4-54.5-47.7-11-46.3-44.9-37.6-60 2.3 2.9 4.8 5.5 8.7 6.6-5.8-22.4 7.1-39.7 21.2-46.9 8.7 25.8 38.6-1.4 60.6 25.8 22-27.2 51.9 0 60.6-25.8 14.1 7.2 27 24.5 21.2 46.9 3.9-1.1 6.4-3.7 8.7-6.6 8.7 15.1 10.1 49-37.6 60 21.2 5.4 20.6 43.8-16.4 54.5-7.3 10.2-19.6 17-36.5 17-16.9 0-29.2-6.8-36.5-17zm24.7-31.2c-13.2 5.8-26.7 2.7-32.1-2.8-1.1 20.1 20.2 39.9 43.9 39.9 23.7 0 45-19.8 43.9-39.9-5.4 5.5-18.9 8.6-32.1 2.8-4.6 11.9-9.1 16.2-11.8 16.2-2.7 0-7.2-4.3-11.8-16.2zm-0.3-28.4l-21.4-12c-3.3 5.2-3.3 14.6 4.9 18.3 7.7 3.5 15.6-2.1 16.5-6.3zm40.7 6.3c8.2-3.7 8.2-13.1 4.9-18.3l-21.4 12c0.9 4.2 8.8 9.8 16.5 6.3z"/></svg>