<svg version="1.2" xmlns="http://www.w3.org/2000/svg" viewBox="0 0 256 256" width="256" height="256"><style>.a{opacity:.5}</style><path fill-rule="evenodd" class="a" d="m206 63.3c-5.7 5.6-12.3 5.2-12.3 5.2l-9.8 9.8c1.3 3.4 1.1 7.6-0.5 11.8l17 11.1 0.9 22.6-15.7 11-21.8-5.1 18-9.3-0.4-6.7-12.5-6.3-12.7 4.4-68.7 83-41.9 15.6 15.6-41.9 83-68.7 4.4-12.7-6.3-12.5-6.7-0.4-9.3 18-5.1-21.8 11-15.7 22.6 0.9 11.1 17c4.2-1.6 8.4-1.8 11.8-0.5l9.8-9.8c0 0-0.4-6.6 5.2-12.3 5.7-5.6 12.6-4.4 17.7-4.4 0 5.1 1.2 12-4.4 17.7zm-44.7 23c-4 4-5.4 9.2-3.1 11.5 2.3 2.3 7.5 0.9 11.5-3.1 4-4 5.4-9.2 3.1-11.5-2.3-2.3-7.5-0.9-11.5 3.1z"/></svg>