<svg version="1.2" xmlns="http://www.w3.org/2000/svg" viewBox="0 0 256 256" width="256" height="256"><style>.a{opacity:.5}</style><path fill-rule="evenodd" class="a" d="m128.2 218.4c-49.8 0-90-40.2-90-90q0-7 1-13.7-0.1 0-0.3 0c-1.9-11.5-3.1-36.4 20.4-59.8 18.6-18.7 42.4-18.1 56.9-15.7q5.9-0.8 12-0.8 6.6 0 13 0.9c14.6-2.1 37.3-2 55.2 16 22.5 22.5 22.3 46.3 20.6 58.3q1.2 7.2 1.2 14.8c0 49.8-40.2 90-90 90zm27.1-90c0-15-12.1-27.1-27.1-27.1-15 0-27.1 12.1-27.1 27.1 0 15 12.1 27.1 27.1 27.1 15 0 27.1-12.1 27.1-27.1zm-27.1 78.6c41.4 0 75.3-32.1 78.3-72.7h-40.4c-2.8 18.4-18.7 32.4-37.9 32.4-19.2 0-35.1-14-37.9-32.4h-40.4c3 40.6 36.9 72.7 78.3 72.7zm-25.3-157.7c-0.3-0.9-25.3 0.3-38.7 13.7-12.9 13-14.9 29.1-14.9 39.4 12.9 0 53.6-30.8 53.6-53.1zm103.5 53.5c0-10.3-2-26.4-15-39.4-13.3-13.4-38.4-14.6-38.7-13.7 0 22.3 40.7 53.1 53.7 53.1zm-78.4-29.2l-10.2-16.5-18.6 28.3 10 3 8.1-13.6 10.3 16.2v0.1l10.4-16.2 8.1 13.5 10-3-18.6-28.3-9.5 16.6z"/></svg>