<svg version="1.2" xmlns="http://www.w3.org/2000/svg" viewBox="0 0 256 256" width="256" height="256"><style>.a{opacity:.5}</style><path class="a" d="m40.8 197.9c0-1.1 7.3-2.1 8.2-2.1l20.3-22.6c-12.1-15.4-14.7-33.1-10.3-46.1 0.8-2.2 1.8-3.2 3-3.3 1.5 0 2.7 1.1 2.8 2.6 0.2 1.5-0.1 2.3-1.5 3.3 4.6 16.1 11.3 23.1 17.5 26.2 2.3-5.7 2.9-8.3 3.4-8.8 0.4-0.5 7.1-1.5 11.2-5.5 13.7-12.8 59.7-71.4 62.8-73.5 32.3-22.7 52.9-23.6 52.9-23.6 0 0-1 20.6-23.6 52.9-2.2 3.1-60.7 49.1-73.6 62.7-3.9 4.2-4.9 10.8-5.4 11.3-0.6 0.5-3.1 1.1-8.8 3.4 3.1 6.1 10 12.9 26.2 17.4 1-1.3 1.7-1.6 3.3-1.5 1.4 0.2 2.6 1.4 2.5 2.9 0 1.2-1 2.2-3.3 2.9-13 4.5-30.7 1.9-46.1-10.2l-22.5 20.3c0 0.9-1 8.2-2.2 8.2-1.9 0-10.9-2-12.9-4-1.9-1.9-3.9-10.9-3.9-12.9z"/></svg>