<svg version="1.2" xmlns="http://www.w3.org/2000/svg" viewBox="0 0 256 256" width="256" height="256"><style>.a{opacity:.5}</style><path fill-rule="evenodd" class="a" d="m83.8 124.8c0-24.5 19.7-44.3 44.2-44.3 24.5 0 44.2 19.8 44.2 44.3 0 24.4-19.7 44.2-44.2 44.2-24.5 0-44.2-19.8-44.2-44.2zm13.2 7.2c0 17.1 13.9 31 31 31 17.1 0 31-13.9 31-31 0-17.1-13.9-31-31-31-17.1 0-31 13.9-31 31zm-53.5 6.2c-8.8-8.8-21.5-23.9-21.5-45.2 0-8 6.1-14 12-14 6.1 0 10.3 5.7 12 15 3.2 16.9 2.1 18.9 11 33 20.2 32.1 53.9 43.4 62.5 47.6-10.6 0-54.9-15.3-76-36.4zm3.5 24c-12.5-5.6-19.8-10.9-22-14.2-3-4.4-2.5-9.6 0.4-12.2 3-2.5 7.9-2.1 11.5 1.4 3 2.9 9.9 11.3 23.9 19.3 24.8 14.2 52.4 17.3 59.2 18.6-12.5 0-45.4-0.8-73-12.9zm72.3 13.4c-10.4 5.1-47.5 11.2-59.3 8.4-3.9-0.9-6.5-3.9-6-7 0.4-2.9 3.6-5.5 7.6-4.7 5.8 1.2 36.3 4.5 57.7 3.3zm17.2-1c8.6-4.2 42.3-15.5 62.5-47.6 8.9-14.1 7.8-16.1 11-33 1.7-9.3 5.9-15 12-15 5.9 0 12 6 12 14 0 21.3-12.7 36.4-21.5 45.2-21.1 21.1-65.4 36.4-76 36.4zm-0.5 0.5c6.8-1.3 34.4-4.4 59.2-18.6 14-8 20.9-16.4 23.9-19.3 3.6-3.5 8.5-3.9 11.5-1.4 2.9 2.6 3.6 8.5 0.2 12.6-2.8 3.5-10.5 9.1-22 14.1-27.7 12.2-60.3 12.6-72.8 12.6zm58.4-2.8c4-0.8 7.2 1.8 7.6 4.7 0.5 3.1-2.1 6.1-6 7-11.8 2.8-48.9-3.3-59.3-8.4 21.4 1.2 51.9-2.1 57.7-3.3z"/></svg>