<svg version="1.2" xmlns="http://www.w3.org/2000/svg" viewBox="0 0 256 256" width="256" height="256"><style>.a{opacity:.5}</style><path fill-rule="evenodd" class="a" d="m48.8 139l-6.9-52.8c0 0-0.2-2.1 1.7-3.1 2.3-1.2 4.4 0.2 4.4 0.2l45.3 44.2 32.2-81.4c0 0 0.6-1.2 2.1-1.2 0.2 0-0.2-0.1 0.3-0.1 1.8 0 2.2 1.5 2.2 1.5l32.2 81.5 45.3-44.1c0 0 2.1-1.4 4.4-0.3 1.8 1 1.6 3.2 1.6 3.2l-6.1 52.9c0.3 0.7 0.4 0.7 1.4 2.2 0.3 0.6 5 5.3 6.4 14.7 1.2 9.6-1.5 18.9-4.7 23.8-3.8 6.3-11.1 9.9-11.1 9.9 0 0-3 19.9-3.4 20.4-0.3 0.6-1.2 0.6-1.2 0.6h-67c-0.3 0 0.4 0-0.1 0h-67c0 0-1.1 0-1.3-0.4-0.4-0.5-3.5-20.8-3.5-20.8 0 0-7.2-3.7-11.1-9.9-3.2-4.9-5.8-14.3-4.7-23.9 1.4-9.4 5.2-13.7 6.3-15 1.6-1.8 2.3-2.1 2.3-2.1zm79 49.2c26.6 0 25.7-49.2 0-49.2-25.5 0-25.2 49.2 0 49.2zm-78.2-8.9c5.4 6.4 8.6 7.6 13.4 6.3 4.4-1 8.2-5.5 9.6-11.2 1.4-5.8 1.5-15.9-2.2-23-5.1-9.7-9.5-11.2-15.4-9.9-4.8 1-9.1 6.1-10.2 14-0.3 2-1 9 1 15.3 1 3.1 1.6 6 3.8 8.5zm160.2-8.1c1.9-6.5 1.3-13.3 0.9-15.5-1-7.9-5.3-13-10-14-6.1-1.3-10.3 0.3-15.5 10.1-3.7 6.9-3.6 17.2-2.2 22.8 1.4 5.7 5.2 10.2 9.6 11.4 4.7 1.1 8.1 0 13.4-6.4 2.2-2.5 2.7-5.3 3.8-8.4z"/></svg>