<svg version="1.2" xmlns="http://www.w3.org/2000/svg" viewBox="0 0 256 256" width="256" height="256"><style>.a{opacity:.5}</style><path class="a" d="m38.2 39.8c10 12.7 19.5 25.6 23.4 41.8h1.6c0.6-4.5 2.4-7.7 4.5-10.7l25.7 25.7-11.1 11.2-13.3-13.3c-1.2-0.4-3.2 6.6 2.8 13.5-3.5 3.4-19.2 19.5-17.8 39.4 2.1 29.3 17 52.2 19.5 56.6 2.4 4.3 3.1 6 3.3 7.5 0 0.4-0.1 0.8-0.4 0.9-0.7 0.1-0.2-1.1-1.6-1.1-1 0-2 1.2-1.9 2.2 0.2 2.3 3.3 4.7 5.6 4.3 4.8-0.8 8.4-5.5 7.9-12.2-0.9-12.4-9-30.9-2.8-47.6 4.4-11.8 10.7-19.9 14.1-23.6 1 0 2.7-0.1 4-1.4 1.7-1.8 1.1-4.6 0-5.8l-3-2.9 11.2-11.2 37.7 37.7 1.5 12.3 33 33.1c0 0 0.6-0.8 0-2.4-0.4-1-9.7-21.4-9.7-21.4 0 0 20.4 9.3 21.4 9.7 1.6 0.6 2.4 0 2.4 0l-33.1-33-12.3-1.5-37.7-37.7 11.2-11.2 2.9 3c1.2 1.1 4 1.7 5.8 0 1.3-1.3 1.4-3 1.4-4 3.7-3.4 11.8-9.7 23.6-14.1 16.7-6.2 35.2 1.9 47.6 2.8 6.7 0.5 11.4-3.1 12.2-7.9 0.4-2.3-2-5.4-4.3-5.6-1-0.1-2.2 0.9-2.2 1.9 0 1.4 1.2 0.9 1.1 1.6-0.1 0.3-0.5 0.4-0.9 0.4-1.5-0.2-3.2-0.9-7.5-3.3-4.4-2.5-27.3-17.4-56.6-19.5-19.9-1.4-36 14.3-39.4 17.8-6.9-6-13.9-4-13.5-2.8l13.3 13.3-11.2 11.1-25.7-25.7c3-2.1 6.2-3.9 10.7-4.5v-1.6c-16.2-3.9-29.1-13.4-41.8-23.4l-1.3 0.3z"/></svg>