<svg version="1.2" xmlns="http://www.w3.org/2000/svg" viewBox="0 0 256 256" width="256" height="256"><style>.a{opacity:.5}</style><path fill-rule="evenodd" class="a" d="m218 128c0 49.7-40.3 90-90 90-49.7 0-90-40.3-90-90 0-49.7 40.3-90 90-90 49.7 0 90 40.3 90 90zm-117.1 0c0 15 12.1 27.1 27.1 27.1 15 0 27.1-12.1 27.1-27.1 0-15-12.1-27.1-27.1-27.1-15 0-27.1 12.1-27.1 27.1zm27.1 78.6c41.4 0 75.3-32.1 78.3-72.7h-40.4c-2.8 18.4-18.7 32.4-37.9 32.4-19.2 0-35.1-14-37.9-32.4h-40.4c3 40.6 36.9 72.7 78.3 72.7z"/></svg>