<svg version="1.2" xmlns="http://www.w3.org/2000/svg" viewBox="0 0 256 256" width="256" height="256"><style>.a{opacity:.5}</style><path fill-rule="evenodd" class="a" d="m93.4 191.2c-0.6 0.4 0.1 1.4 0.1 2.1 0 6.7-5.4 12.2-12.1 12.2-6.7 0-12.2-5.5-12.2-12.2 0-6 4.3-10.9 9.9-12 3.2-15.9 5.6-31.6 2.1-38.7q0 0 0 0c-6.6-11.6-12-15.7-23.9-26.8-5.2 2.4-11.5 0.8-14.9-4-4-5.5-2.7-13.1 2.8-17 5.5-3.9 13.1-2.6 17 2.9 0.4 0.5 0.2 1.3 0.9 1.2 14.5-2.3 24.7-1.4 35.7-9.2 10.9-7.8 13.7-17.3 20.8-30.5 0.3-0.6-1-1-1.4-1.6-3.9-5.5-2.6-13.1 2.9-17 2.1-1.5 4.5-2.2 6.9-2.2v-0.1c2.4 0.1 4.8 0.8 6.9 2.3 5.5 3.9 6.8 11.5 2.9 17-0.4 0.6-1.7 1-1.4 1.5 7.3 13.1 9.9 22.8 20.8 30.6 11 7.8 19.5 7.6 35.6 9.7 0.7 0.1 0.6-1.2 1-1.8 3.9-5.4 11.5-6.7 17-2.8 5.5 3.9 6.8 11.5 2.8 17-3.4 4.8-9.7 6.4-14.9 4-11.9 11.1-17.3 15.2-23.9 26.8q0 0 0 0c-3.5 7-1.1 22.7 2.1 38.7 5.6 1 9.9 6 9.9 11.9 0 6.8-5.5 12.2-12.2 12.2-6.7 0-12.1-5.4-12.1-12.2 0-0.7 0.7-1.7 0.1-2-14-6.7-21.2-12.7-34.6-12.7-13.4 0-22.7 6.5-34.6 12.7zm25.8-68.6c0-10.2-2.7-18.5-6.1-18.5-3.4 0-6.2 8.3-6.2 18.5 0 10.2 2.8 18.4 6.2 18.4 3.4 0 6.1-8.2 6.1-18.4zm23.7 18.4c3.4 0 6.2-8.3 6.2-18.5 0-10.2-2.8-18.4-6.2-18.4-3.4 0-6.1 8.2-6.1 18.4 0 10.2 2.7 18.5 6.1 18.5z"/></svg>