<svg version="1.2" xmlns="http://www.w3.org/2000/svg" viewBox="0 0 256 256" width="256" height="256">
	<title>25 - Roy-svg</title>
	<style>
		.s0 { opacity: .5;fill: #000000 } 
	</style>
	<path id="Layer" fill-rule="evenodd" class="s0" d="m119.6 195.9l-4.3-77.4-8.5-9.2v-18.7l10.9-10.3c-1.7-1.8-2.5-3.5-2.4-4.9-9-2.9-25.5-10.4-28.4-21.4l16.5 0.1c2.6 4.8 7.4 6.7 11.3 7.3 1-3.5 2.9-6.2 5.4-8 0-9.4-0.2-10.4-0.2-10.4l-9-7.7 8-8.3h18.2l8 8.3-9 7.7c0 0-0.2 1-0.2 10.4 2.5 1.8 4.4 4.5 5.4 8 3.9-0.6 8.7-2.3 11.2-7.3l16.6 0.1c-2.9 11-19.4 18.3-28.4 21.2 0.1 1.4-0.7 3.1-2.4 4.9l10.9 10.3v18.7l-8.5 9.2-4.3 77.4 16.6-19-0.2 18.7-17.2 15.8-1.6 10.8-6 6.7-6-6.7-1.6-10.8-17.2-15.8-0.2-18.7zm2.4-127.4c0 5 2.6 9.1 6 9.5 3.3-0.4 6-4.5 6-9.5 0-5-2.7-9.1-6-9.5-3.4 0.4-6 4.5-6 9.5zm-83.1 53c-0.4-4.2 0.2-7.6 2.3-11.3 2-3.6 0.8-8.5-0.6-11.8-0.5-1.2 6 2.2 5.3 6.7 4.7-3.6 12-5.5 15.5-7.7 13-8.3 6.4-23.8-16.8-31.8 16.2-4.8 32.8 5.8 38.3 21.1 2-0.5 1.3-2.6 1.3-7.4 6.1 2.1 10.5 7.2 11.7 15.9 1.5 10.8 1.1 16.8-7.5 22.2 3.8 1.7 3.3 3.3 6.7 6.1 1 0.2 1.6-3.3 5-7-3 22 10.8 17.6 14.1 41.3 0 0 2 11.8-0.3 25.5l-13.9-12.8v23.7c-4.9 3.2-9.8 3.9-14 2.8 0.5 3.2-0.1 7.9-1.4 11-2.6-15.4-10.1-12.8-18.5-23.4-6.8-8.5-3.7-11.8-16.2-18.8 4.9-2.1 10.5 0.7 10.5 0.7-0.9-5-1.6-8.2 0.9-18.6 0.7 7.9 14.1 20.3 14.4-0.6-5.3-0.8-12.7-2.1-20.7-6.7-11.2-6.4-14.8-11.4-16.1-19.1zm38.7-2.9c14.9-4.9 16.1-22.7 10.2-27.6-3 23.2-22.8 19.4-25.6 27.9-1.6 5.1 18.7 7.1 28.8 10.5-2.7-2.8-1.4-6.3-13.4-10.8zm-0.7 45.1c2.7-0.7 6.6-0.3 9.4-2.7 4.2-3.6 5.6-10.3-4.9-12.6 1.3 8.3-0.5 9.6-4.5 15.3zm124.1-23.1c-8.1 4.6-15.4 5.9-20.8 6.7 0.4 20.9 13.8 8.5 14.4 0.6 2.6 10.4 1.9 13.6 0.9 18.6 0 0 5.6-2.8 10.6-0.7-12.5 7-9.4 10.3-16.2 18.8-8.4 10.6-15.9 8-18.5 23.4-1.4-3.1-1.9-7.8-1.4-11-4.3 1.1-9.1 0.4-14.1-2.8v-23.7l-13.8 12.8c-2.3-13.7-0.3-25.5-0.3-25.5 3.3-23.7 17.1-19.3 14-41.3 3.5 3.7 4.1 7.2 5 7 3.5-2.8 2.9-4.4 6.8-6.1-8.7-5.4-9-11.4-7.5-22.2 1.2-8.7 5.6-13.8 11.6-15.9 0 4.8-0.6 6.9 1.4 7.4 5.5-15.3 22.1-25.9 38.3-21.1-23.2 8-29.9 23.5-16.8 31.8 3.5 2.2 10.8 4.1 15.5 7.7-0.7-4.5 5.8-7.9 5.3-6.7-1.4 3.3-2.7 8.2-0.6 11.8 2 3.7 2.7 7.1 2.3 11.3-1.3 7.7-4.9 12.7-16.1 19.1zm-36-11.2c10.1-3.4 30.4-5.4 28.7-10.5-2.8-8.5-22.5-4.7-25.6-27.9-5.8 4.9-4.7 22.7 10.3 27.6-12 4.5-10.8 8-13.4 10.8zm9.5 19c-10.4 2.3-9.1 9-4.8 12.6 2.8 2.4 6.6 2 9.4 2.7-4.1-5.7-5.8-7-4.6-15.3z"/>
</svg>