<svg version="1.2" xmlns="http://www.w3.org/2000/svg" viewBox="0 0 256 256" width="256" height="256"><style>.a{opacity:.5}</style><path fill-rule="evenodd" class="a" d="m31 68.4c-1.1-0.3-1.9-3.6-0.6-4.8 0.6-0.4 0.8-0.8 0.1-1.5-0.6-1.8-0.3-4 0.7-4.7 6.3 3.5 10.7-2.3 13.7-2.6 7.9-0.8 4.6 2.3 10.1 2.3 4.5 0 4.9-2.3 9.3-2.2 7 0.2 5.1 3.3 6.7 3.1 1-0.1 0.8-1.1 2.5-1.6 2.5-0.7 4.5 8.5 9.6 15.7 0 0 19.5-9.2 54-16.9 21-4.7 43.7 0.8 47.5 9.8 8.8 20.5-22.8 38.4-27.4 44.6 4-0.8 16.6-12.5 19.7-15.8-1.9 6.8-18 21.5-27.7 28.9 18.2 4.9 9-0.8 34.7 6.3-3.8-2.3-5.6-3.2-7.9-4 4.4 0 9.6 0.4 19.1 1.6q0.2 0 0.4 0c0.1-0.5 0.1-0.9-0.3-0.9-0.6 0-2.9-1.8-3.2-2.7-0.3-0.8 2.8 0.9 3.1 1.9 0.3 0.9 0.9 0.5 1.5 1.8q0.1 0 0.1 0.1 0.3 0 0.7 0.1c18.6 17.3 10.4 17.6 16.2 20.8 2.8 1.5-0.1 4.3 8 15.8 2 2.9-1.1 1.7 4.4 13.5-6.4-2.6-15.4-6.6-28.1-12.7-2.8-5-7.2-7.2-8.9-7.3 1.6 1.1 2.4 2.1 3.5 3.9-18.9-6.8-35.1-15-61.2-27.1l-4.8 2.6c8.2 10.4 23.4 33.8 24.8 33 2.1-1.5-12.6-23.3-13.2-24.9 3.6 3 22.1 26.8 22.3 36.5 0.1 6.1-0.5-0.6-1.2 10.1-0.1 2.3-2.4 3.6-4 3.2 0.2 3.4-0.5 2.7-1.2 5.7-0.3 1.3-2.7-2-4-4 0.5 1.7 0.7 2.4 0.2 3.9-1 3.9-4.7 3.6-4.8 5.8-0.1 0.9-0.2 2-0.7 2-12.7 0-9.7-6.3-14.4-6.9-1.6-0.2 0.3-3.2 0.8-3.8 0.8-0.8-4.3-1.2-5.1-7-0.6-4.7 0.9-5.9-0.5-10.6-5.1-17-22.3-42-27.8-49.5 7.4 6.8 18.8 26.7 21.4 26.9 2 0.2-16.4-25.8-24.6-35.9-8.2-9.9-28.7-32.4-27.7-29.6 0.5 1.6 8.6 8 15.2 18.4-6.6-7.5-35.2-35.9-51-41.3zm94 68.6l-2.5 2c1.9 3.2 3.1 7.1 5 7.1 1.1 0-1.2-6.4-2.5-9.1zm-32.8-45.9c3.6 4.7 9.9 15.2 15.9 24.3 10.8-6.2 25.6-16.5 24.9-17.4-0.4-0.6-21.8 12.5-26.1 12.7 8.1-5 44.4-25.7 46.2-34.8 0.4-2.1-5.2-3.8-7.1-3.9-6.5-0.4-37.5 10.6-51.6 17.8 0 0 3.2 5.9 4.5 8.3-2.1-2.5-3.3-4.3-5.7-7.3-0.2-0.3-1 0.3-1 0.3zm46.8 8.9c-3.8 2.8-19.5 13.8-28.4 19.1l1.5 2c12.8-7.7 27.3-20.6 26.9-21.1zm-28.3-22c-7.5 0-18.2 4.9-20.7 6.4l0.9 1.6c8.3-4.5 15.5-6.8 19.8-8zm-2.7-10c-5.2 0-19.3 3.2-24.4 4.8l0.9 2.2c7.8-3.2 24.3-7 23.5-7zm66.7 2.9c3.2 9.5-8.1 22.3-7.7 22.1 3.3-1.6 12.2-11.2 9.5-22.4-2.3-9.3-17.9-9-17.7-8.6 0.2 0.3 13.2 0.8 15.9 8.9zm-26.7 53l-1.1 0.5c5.4 2.8 18.1 6.1 29.3 7.7-11.1-2.6-19-4.6-28.2-8.2z"/></svg>