<svg version="1.2" xmlns="http://www.w3.org/2000/svg" viewBox="0 0 256 256" width="256" height="256"><style>.a{opacity:.5}</style><path fill-rule="evenodd" class="a" d="m186.4 88.5c-0.2 0.2-0.7 0.5-1 0.6-0.2 0.1-0.7 0.3-1 0.3q-0.4 0.1-0.6 0.3c0 0-0.1 0.2-0.3 0.4-0.1 0.2-0.4 0.4-0.6 0.5-0.2 0.2-0.5 0.3-0.6 0.4-0.1 0-0.5 0.1-0.7 0.1-0.5 0-0.5 0.1-0.7 0.3-0.1 0.2-0.4 0.5-0.7 0.7-0.5 0.3-0.5 0.4-0.9 0.4-0.4 0-0.5 0-0.6 0.2 0 0.1-0.2 0.4-0.4 0.5-0.2 0.2-0.3 0.2-0.6 0.1-0.4 0-0.4 0-1 0.4-0.3 0.2-0.7 0.5-1 0.8-0.3 0.2-0.6 0.5-0.8 0.7-0.3 0.2-0.3 0.3-0.2 0.3 0.1 0 0.4-0.1 0.6-0.1 0.2-0.1 0.7-0.4 1.2-0.7 0.7-0.5 0.9-0.6 1.3-0.6 0.5-0.1 0.6-0.2 0.8-0.4 0.2-0.1 0.4-0.3 0.7-0.4 0.2-0.1 0.9-0.4 1.6-0.7 0.6-0.4 1.5-0.8 1.9-0.9 0.4-0.1 0.7-0.2 0.8-0.2 0 0-0.3 0.3-0.6 0.5-0.3 0.3-0.7 0.7-1 0.9-0.2 0.1-0.7 0.5-1.1 0.7-0.3 0.2-0.8 0.6-1.6 1h0.2c0.2 0 0.3 0.1 0.3 0.1 0 0-0.1 0.2-0.2 0.3-0.1 0.1-0.4 0.4-0.7 0.6-0.3 0.3-0.9 0.7-1.4 1-0.5 0.4-1.4 1-2.1 1.4-0.6 0.4-2.4 1.4-3.9 2.2-1.5 0.9-3.6 2-4.5 2.5-1.5 0.8-1.8 1-1.9 1.2 0 0.2-0.2 0.3-0.3 0.5-0.1 0.1-0.4 0.2-0.5 0.2-0.2 0.1-0.5 0.1-1.4 0.1l-0.2 0.3c-0.1 0.2-0.5 0.5-0.7 0.7-0.3 0.3-1.3 0.8-2.2 1.3-0.9 0.5-2.5 1.4-3.5 2-1 0.6-2.5 1.6-3.4 2.2-0.9 0.6-1.9 1.3-2.3 1.6-0.4 0.3-1.1 0.8-1.5 1.2-0.4 0.3-0.7 0.7-0.7 0.7 0 0.1 0.1 0.2 0.5 0.4l1-0.6c0.5-0.4 1.4-1 2-1.4 0.6-0.4 1.6-0.9 2.2-1.3 0.6-0.3 1.5-0.8 2-1.1 0.5-0.3 2.1-1.2 3.6-2 1.4-0.8 3.3-1.8 4-2.2 1-0.6 1.5-1 1.8-1.3 0.4-0.3 0.6-0.5 0.9-0.6 0.2 0 0.9-0.4 1.5-0.7 0.7-0.4 1.8-1 2.4-1.4 0.7-0.3 1.7-0.8 2.3-1.1 0.7-0.3 1.6-0.7 2.1-0.8 0.5-0.2 1-0.4 1-0.4 0 0.1-0.3 0.4-0.7 0.8-0.4 0.4-1 0.9-1.4 1.2-0.4 0.2-1.5 0.9-2.4 1.5-1 0.6-1.9 1.1-2.1 1.2-0.2 0.2-0.4 0.3-0.8 0.3q-0.4 0.1-0.4 0.2c0 0-0.1 0.2-0.1 0.3-0.1 0.1-0.3 0.2-0.4 0.3-0.2 0.1-0.5 0.1-0.7 0.1-0.3 0-0.4 0.1-1 0.7-0.4 0.4-0.9 0.8-1.2 1-0.3 0.2-0.8 0.4-1.1 0.5-0.4 0.2-0.6 0.3-1.1 0.7-0.3 0.3-0.7 0.6-1 0.8-0.4 0.1-0.8 0.3-1 0.3-0.3 0.1-0.5 0.1-0.7 0.3-0.2 0.2-0.5 0.4-0.7 0.6-0.3 0.2-0.7 0.4-0.9 0.6-0.3 0.2-1.4 0.8-2.4 1.3-1 0.6-2.1 1.1-2.3 1.3q-0.3 0.2-0.6 0.2-0.3 0-0.5 0.2c-0.1 0.1-0.3 0.3-0.3 0.4-0.1 0.1-0.5 0.5-1 0.9-0.5 0.3-1.3 0.9-1.7 1.2-0.5 0.3-1.4 0.9-2.1 1.4-0.7 0.4-1.8 1.2-2.4 1.7-0.7 0.4-1.7 1.2-2.4 1.7-0.6 0.5-1.8 1.3-2.5 1.9-0.7 0.5-1.7 1.4-2.2 1.8-0.5 0.4-1 0.8-1.1 0.9-0.1 0.2-0.1 0.2 0.1 0 0.2-0.1 1-0.6 1.9-1.1 0.8-0.6 3.3-2.3 5.7-3.9 2.3-1.5 4.8-3.2 5.6-3.7 0.8-0.5 2-1.3 2.8-1.8 0.7-0.4 2.8-1.7 4.6-2.8 1.7-1.1 3.7-2.3 4.2-2.7 0.6-0.3 1.6-0.9 2.2-1.2 0.6-0.4 1.4-0.8 1.8-1 0.5-0.3 0.8-0.4 0.9-0.4 0 0-0.7 0.5-1.5 1.1-0.8 0.7-2.1 1.6-2.9 2.2-0.8 0.6-2.2 1.6-3.1 2.2-0.9 0.6-2.2 1.5-3 1.9-0.7 0.5-2 1.3-2.7 1.7-0.8 0.5-1.8 1.1-2.3 1.3-0.5 0.3-1.2 0.8-1.6 1.1-0.4 0.3-1.2 0.9-1.7 1.3-0.6 0.5-1.8 1.3-2.7 2-0.9 0.6-2.3 1.7-3.1 2.3-0.8 0.6-2.1 1.6-3 2.2-0.8 0.6-1.9 1.4-2.3 1.8q-0.7 0.5-1.6 1.3l0.6-0.3c0.3-0.2 1.1-0.7 1.9-1.3 0.8-0.5 1.7-1.1 2-1.2 0.5-0.3 0.6-0.3 0.6-0.2 0 0.1 0.1 0.2 0.1 0.2 0 0 0.6-0.2 1.2-0.5 0.6-0.3 1.6-0.8 2.1-1.1 0.5-0.3 1.3-0.8 1.9-1.1 0.6-0.4 1.6-1 2.2-1.4 0.6-0.4 2.5-1.7 4.2-2.9 1.7-1.2 3.4-2.3 3.7-2.4 0.2-0.2 1-0.7 1.7-1.1 0.7-0.5 1.6-1.1 2-1.5 0.5-0.4 0.9-0.6 0.9-0.6 0.1 0 0.1 0.1 0 0.2 0 0.1-0.1 0.3-0.2 0.5 0 0.1-0.3 0.4-0.5 0.6-0.2 0.2-0.6 0.5-0.8 0.7-0.3 0.2-0.4 0.3-0.4 0.5 0 0.3 0 0.3-2.5 2.2-1.4 1-3.6 2.6-4.9 3.6-1.3 0.9-3.2 2.3-4.2 3-1 0.8-2.4 1.8-3.1 2.4-0.8 0.6-1.5 1.2-1.7 1.3-0.1 0.1 1-0.6 2.5-1.6 1.5-1.1 4.3-3 6.2-4.4 1.9-1.3 3.5-2.4 3.5-2.4 0.1 0 0.1 0.2 0 0.4q0 0.3-0.3 0.6c-0.1 0.2-0.6 0.5-1.1 0.8-0.4 0.4-1.3 1-2 1.5-0.6 0.5-2.1 1.6-3.4 2.6-1.2 0.9-3.6 2.6-5.2 3.8-1.6 1.3-3.4 2.6-3.9 3.1-0.5 0.4-1.1 0.8-1.3 1-0.2 0.2-0.2 0.2-0.1 0.3 0 0 0.1 0.1 0.2 0.1 0.1 0.1 0.1 0.1 0 0.3-0.1 0.2-0.3 0.4-0.5 0.5-0.2 0.2-0.5 0.4-0.7 0.5-0.4 0.2-0.4 0.2-0.4 0 0-0.1 0-0.2 0-0.2q-0.1-0.1-0.2-0.1c0 0-0.3 0.2-0.6 0.4-0.2 0.3-0.7 0.7-1.1 1-0.3 0.2-0.6 0.4-0.7 0.5-0.1 0.1-0.2 0.2-0.2 0.2 0 0 0.3 0 0.5-0.1 0.2-0.1 0.4-0.1 0.5-0.1 0 0 0 0.1 0 0.2-0.1 0.1-0.3 0.4-0.5 0.6-0.2 0.2-0.4 0.4-0.4 0.4 0 0.1 0.2 0 0.3-0.1 0.2-0.1 0.6-0.4 1-0.7 0.4-0.3 0.9-0.6 1.2-0.8 0.3-0.2 0.9-0.6 1.3-1 0.4-0.4 1-0.9 1.4-1.2 0.3-0.3 0.6-0.5 0.7-0.5 0.1 0 0.1 0.1 0.2 0.2 0 0 0 0.2-0.1 0.3-0.1 0.1-0.5 0.6-0.9 1.1-0.4 0.4-0.8 0.9-1 1.2l0.2-0.2c0.2-0.1 0.3-0.2 0.4-0.3 0.1 0 0.2-0.1 0.2-0.1q0.1 0 0.1 0.2c0 0-0.1 0.2-0.2 0.4 0 0.1-0.3 0.4-0.5 0.7-0.2 0.2-0.3 0.3-0.2 0.3 0.1-0.1 0.3-0.2 0.5-0.4 0.2-0.1 0.5-0.4 0.7-0.6 0.2-0.2 0.5-0.4 0.9-0.4l-0.1 0.3c0 0.1-0.1 0.5-0.3 0.8-0.1 0.3-0.5 0.9-0.9 1.4-0.3 0.5-0.7 1.1-0.8 1.3-0.1 0.2-0.2 0.4-0.2 0.4 0 0 0.2-0.1 0.4-0.3 0.2-0.2 0.7-0.8 1.1-1.4 0.5-0.6 1.1-1.3 1.3-1.5 0.2-0.2 0.5-0.5 0.7-0.6 0.1-0.2 0.3-0.2 0.3-0.2 0 0 0 0.2 0 0.4-0.1 0.3-0.3 0.7-0.5 1-0.2 0.3-0.4 0.6-0.4 0.6 0 0.1 0.1 0.2 0.1 0.2 0.1 0.1 0.1 0.2-0.2 0.7-0.2 0.3-0.5 0.6-0.6 0.7q-0.3 0.1-0.6 0.3c-0.2 0-0.3 0.1-0.6 0.5-0.3 0.3-0.9 1.1-1.4 1.8-0.5 0.6-1.3 1.6-1.7 2.2-0.5 0.5-0.9 1.1-1.1 1.4q-0.2 0.3-0.7 1l0.2-0.1c0.1 0 0.4-0.3 0.6-0.5 0.2-0.3 1.1-1.4 1.9-2.6 0.8-1.1 1.7-2.2 1.9-2.4 0.2-0.2 0.4-0.3 0.5-0.3q0.1 0 0.2 0c0 0-0.1 0.2-0.3 0.5-0.1 0.3-0.4 0.8-0.6 1.1-0.3 0.4-0.4 0.6-0.2 0.5 0-0.1 0.3-0.4 0.6-0.7 0.3-0.3 0.8-1 1.2-1.4 0.4-0.5 0.9-1.1 1.1-1.3 0.3-0.3 0.4-0.3 0.4-0.2 0 0.1-0.1 0.4-0.2 0.7-0.2 0.3-0.5 0.8-0.8 1.1-0.2 0.4-0.6 1-0.8 1.3-0.3 0.3-0.6 0.9-0.9 1.3-0.2 0.3-1.1 1.5-1.9 2.6-0.8 1.1-1.5 2.2-1.6 2.3-0.2 0.2-0.2 0.4-0.2 0.4 0 0 0.4-0.4 0.8-0.9 0.5-0.5 1.8-2 2.9-3.3 1.2-1.3 2.2-2.5 2.2-2.6 0.1-0.1 0.3-0.2 0.3-0.2 0 0 0 0.2-0.1 0.5-0.1 0.2-0.4 0.7-0.5 1-0.2 0.4-0.5 0.8-0.7 1.1-0.2 0.3-0.8 1.2-1.4 1.9-0.6 0.8-1.2 1.5-1.3 1.7-0.1 0.2-0.2 0.3-0.2 0.3 0 0 0.1-0.1 0.3-0.1 0.1-0.1 0.4-0.4 0.6-0.7 0.2-0.3 0.5-0.7 0.9-0.9v0.1c0 0.1-0.1 0.4-0.2 0.7-0.1 0.2-0.4 0.6-0.6 0.9-0.2 0.2-0.6 0.8-0.9 1.3-0.3 0.5-0.8 1.1-1.1 1.4-0.3 0.3-1 1.1-1.6 1.8-0.6 0.7-1.9 2.2-3 3.4-1.1 1.3-1.9 2.2-1.8 2.2 0.1-0.1 0.5-0.4 0.9-0.8 0.4-0.3 0.9-0.8 1.1-1.1 0.3-0.3 0.9-1 1.4-1.7 0.6-0.6 1.4-1.5 1.8-2 0.5-0.4 1.1-0.9 1.4-1.2 0.3-0.2 0.6-0.3 0.6-0.3 0 0-0.2 0.4-0.5 0.8-0.3 0.4-0.7 1.1-1.1 1.5-0.3 0.4-0.8 1.1-1.2 1.5-0.3 0.4-0.6 0.8-0.5 0.8q0 0 0 0.3c0 0.1-0.3 0.6-0.7 1.2-0.3 0.5-0.8 1.1-1 1.4-0.2 0.3-0.7 1-1 1.4-0.4 0.5-1.2 1.4-1.8 2.2-0.6 0.7-1.3 1.5-1.6 1.8-0.2 0.2-1.3 1.3-2.3 2.4-1 1.1-2.9 3-4.3 4.3-1.3 1.3-3.1 3-4 3.8-0.8 0.8-1.6 1.5-1.7 1.5 0 0-0.2 0-0.3 0-0.2 0.1-0.4 0.2-0.8 0.5-0.3 0.3-0.9 0.7-1.2 1-0.4 0.3-1.1 0.8-1.5 1.1-0.4 0.3-1.2 0.9-1.7 1.2-0.5 0.4-1.3 0.9-1.9 1.3-0.5 0.3-1.5 0.8-2.2 1.2-0.7 0.3-1.7 0.8-2.4 1.1-0.9 0.5-1.1 0.5-1.2 0.4-0.1 0-0.2-0.1-0.3-0.1-0.2 0-0.4 0.1-0.6 0.2-0.3 0-0.5 0.1-0.6 0.1-0.1 0.1-0.2 0.1-0.2-0.2 0-0.2 0-0.2-0.3-0.2-0.1 0-0.4-0.1-1-0.4l-0.7 0.4c-0.4 0.2-0.9 0.5-1.1 0.7-0.3 0.1-0.5 0.3-0.5 0.3 0 0.1 0.1 0.1 0.2 0.1 0.1 0 0.3 0.1 0.4 0.1 0.1 0 0.1 0-0.1 0.2-0.2 0.1-0.5 0.4-0.8 0.6-0.2 0.1-0.7 0.3-1 0.4-0.3 0.2-0.5 0.2-0.6 0.1-0.1 0-0.3-0.1-0.4-0.1q-0.1 0-0.6 0.3c-0.2 0.1-0.7 0.3-1 0.4-0.4 0.2-1 0.4-1.4 0.5-0.4 0.2-1.1 0.4-1.5 0.5-0.4 0.1-0.9 0.2-1.2 0.2-0.2 0.1-0.9 0.2-1.6 0.3-0.9 0.1-1.7 0.1-6.5 0.2l-0.3-0.2c-0.1-0.1-0.4-0.2-0.5-0.3-0.2 0-0.6 0-1 0-0.6 0-0.8-0.1-0.9-0.2-0.2-0.1-0.3-0.3-0.4-0.5-0.1-0.2-0.1-0.3-0.4-0.3-0.2 0-0.6 0-1.7 0.1l-0.2-0.3c-0.1-0.2-0.3-0.3-0.3-0.4 0 0 0-0.1-0.1-0.1-0.1 0-0.5 0-1.7 0v-0.3c0-0.3 0-0.3-0.3-0.3-0.1 0-0.3 0-0.5-0.1-0.1 0-0.4-0.2-0.5-0.3-0.1 0-0.9-0.3-1.9-0.6-0.9-0.3-1.6-0.5-1.7-0.5q-0.1 0-0.1-0.1c0 0 0.3-0.1 0.9-0.1 0.4 0 1.3 0.1 2 0.1 0.6 0.1 1.4 0.1 1.8 0.2 0.4 0.1 1.2 0.1 1.7 0.1 0.5 0 1.2 0 1.6-0.1 0.4 0 1-0.1 1.3-0.2 0.3 0 0.8-0.1 1-0.2 0.3-0.1 0.6-0.2 0.8-0.3 0.2 0 0.4-0.1 0.5-0.2q0.1-0.1 0.1-0.2-0.1-0.2-0.3-0.3c-0.2-0.1-0.5-0.2-0.8-0.2-0.3-0.1-0.7-0.2-0.9-0.3-0.5-0.1-0.5-0.1-1.2 0-0.5 0.1-1.2 0.2-1.7 0.2-0.4 0-1.2 0-1.7 0-0.5 0-1-0.1-1.2-0.1-0.2-0.1-0.4-0.1-0.5-0.2-0.1 0-0.9-0.1-1.9-0.1-0.9-0.1-2.4-0.1-3.4-0.2-0.9 0-2-0.1-2.4-0.1-0.4-0.1-0.8-0.2-1-0.2-0.1 0-0.3-0.1-0.3-0.1 0-0.1 0.3-0.1 0.6-0.1 0.3 0 0.7 0 1-0.1 0.2-0.1 0.4-0.2 0.4-0.2 0 0-0.1-0.1-0.3-0.2-0.1-0.1-0.2-0.2-0.2-0.2 0 0 0.1-0.1 0.2-0.1 0.1-0.1 0.5-0.2 0.8-0.2 0.4-0.1 0.7-0.1 0.7-0.1 0.1-0.1-0.2-0.2-0.4-0.3-0.4-0.2-1-0.4-1.9-0.6-1.4-0.3-1.4-0.3-1.5-0.5q0-0.3 0-0.3c0 0 0.1 0.1 0.3 0.1 0.2 0 0.4 0 0.5 0 0.2 0 0.4-0.2 0.7-0.3q0.3-0.3 0.8-0.4c0.3-0.1 1-0.2 1.6-0.2 1.1-0.1 1.2-0.1 1.2-0.2q-0.1-0.1-0.3-0.2c-0.1 0-0.7-0.1-1.4-0.1-0.6-0.1-1.3-0.2-1.6-0.2-0.2-0.1-0.5-0.1-0.6-0.2-0.2-0.1-0.3-0.2-0.4-0.3-0.1 0 0.1-0.1 0.9-0.2 0.5 0 1-0.1 1-0.1q0.1 0 0.1-0.1c-0.1-0.1-0.3-0.2-0.5-0.3-0.3-0.1-0.9-0.3-1.4-0.4-0.4-0.1-1-0.3-1.2-0.4-0.1 0-0.4-0.2-0.4-0.2-0.1-0.2-0.1-0.2 0.5-0.2 0.4 0 0.8 0 0.9-0.1 0.1 0 0.2 0 0.2-0.1 0 0-0.2-0.2-0.6-0.3-0.3-0.2-0.8-0.4-1.2-0.5-0.4-0.1-0.7-0.2-0.8-0.2q-0.1 0 0.1-0.1c0.1 0 0.2-0.2 0.3-0.3 0.1-0.1 0.2-0.2 0.1-0.3 0 0-0.2 0-0.4-0.1-0.2 0-1 0-1.8 0.1-1.3 0.1-1.5 0.1-2-0.1-0.4 0-1-0.2-1.3-0.3-0.4-0.1-0.8-0.2-1.1-0.2-0.2-0.1-0.5-0.1-0.6-0.1q-0.2 0-0.2 0.2c0 0 0.1 0.1 0.2 0.2 0.1 0.1 0.5 0.3 0.8 0.3 0.3 0.1 0.5 0.3 0.6 0.3 0 0.1 0 0.2-0.1 0.2-0.1 0.1-0.2 0.2-1.1 0.1-0.5-0.1-1.1-0.2-1.4-0.2-0.3-0.1-0.7-0.2-0.9-0.3-0.2 0-0.5-0.2-0.7-0.4-0.4-0.3-0.4-0.3-0.6-0.2-0.1 0.1-0.3 0.1-0.5 0.1-0.1 0-0.4 0-0.5-0.1-0.2-0.1-0.5-0.2-0.9-0.6h0.2c0.2 0 0.4-0.1 0.5-0.1 0.2-0.1 0.3-0.2 0.3-0.2q0 0-0.3-0.3c-0.1-0.1-0.4-0.3-0.9-0.7l0.1-0.2c0.1-0.2 0.2-0.3 0.1-0.3 0 0-0.3-0.2-0.6-0.4-0.3-0.1-0.7-0.4-0.9-0.5-0.2-0.2-0.5-0.4-0.6-0.6q-0.3-0.5-0.6-0.6c-0.2 0-0.5-0.3-0.7-0.5-0.2-0.1-0.4-0.3-0.4-0.3 0-0.1 0.2-0.1 0.3-0.2 0.2 0 0.4-0.1 0.5-0.1 0.1 0 0.1 0 0.1-0.1 0 0-0.1-0.2-0.4-0.4-0.3-0.3-0.3-0.4-0.3-0.5 0.1-0.1 0.2-0.1 0.3-0.1 0.1 0 0.4 0 0.7 0 0.4 0.1 0.4 0.1 0.3 0 0-0.1-0.4-0.4-0.7-0.6-0.4-0.3-0.7-0.5-0.8-0.6 0-0.1 0-0.2 0.1-0.5h0.6c0.4 0 0.8 0.1 1.1 0.1 0.3 0 0.4 0 0.4-0.1 0.1 0 0.1-0.1 0.1-0.2q-0.1-0.2-0.3-0.3c-0.1-0.1-0.2-0.2-0.2-0.2q0-0.2 0.3-0.3c0.2-0.2 0.4-0.2 0.9-0.2 0.4 0 0.8 0.1 1.4 0.2 0.4 0.2 0.9 0.3 1 0.3 0.2 0 0.4 0 0.5-0.1 0.1 0 0.1-0.1 0.1-0.1 0-0.1-0.3-0.2-0.7-0.4-0.4-0.2-0.8-0.5-1.3-1.1l0.3-0.1c0.2-0.1 0.7-0.1 2.1-0.1 1.1 0 1.9 0 2-0.1 0 0-0.1-0.1-0.2-0.2q-0.1-0.2-0.1-0.3c0-0.2 0.1-0.2 0.4-0.2 0.2 0 0.8 0.1 1.3 0.1 0.6 0.1 1.5 0.2 2.4 0.2 1.2 0.1 1.8 0.1 2.5 0.2 0.6 0.2 1.3 0.3 1.8 0.4 0.7 0.2 0.8 0.3 5 0.3v0.2c0 0.1 0 0.2-0.3 0.6l0.3-0.1c0.2 0 0.5-0.1 0.8-0.1 0.2 0 0.7-0.1 1-0.1 0.3 0 0.9 0.1 2.2 0.4l0.3-0.3c0.4-0.2 0.5-0.2 0.9-0.2 0.4 0.1 0.5 0.1 1.1-0.2 0.4-0.2 0.8-0.4 0.9-0.5 0.3-0.1 0.3-0.1 0.5 0.1 0.1 0.1 0.2 0.3 0.3 0.5 0.1 0.2 0 0.2-0.1 0.3 0 0.1-0.2 0.2-0.3 0.2-0.1 0.1-0.4 0.1-0.7 0.2-0.3 0-0.5 0-0.7 0.1-0.1 0.1-0.2 0.2-0.2 0.3 0 0.1 0 0.2 0.1 0.2 0.1 0.1 0.3 0.1 0.4 0.2 0.2 0 0.4 0 0.6-0.1 0.1 0 0.4-0.1 0.5-0.2 0.1-0.1 0.3-0.2 0.5-0.3 0.1 0 0.3-0.1 0.5-0.1 0.1 0 0.6-0.1 1.1-0.1 0.4-0.1 0.9-0.1 1-0.2 0.1 0 0.1-0.1 0.1-0.3 0-0.2 0-0.2-0.7-0.2-0.3 0-0.7-0.1-0.8-0.1-0.1-0.1-0.3-0.2-0.4-0.3-0.1-0.1-0.2-0.3-0.3-0.4-0.1-0.2-0.1-0.2 0.2-0.3 0.1-0.1 0.3-0.1 0.4-0.1 0.1 0 0.2 0.1 0.3 0.1 0.1 0.1 0.3 0.1 0.5 0.1 0.2 0 0.4 0 0.5-0.1q0.3-0.2 0.3-0.3c0.1-0.1 0.1-0.2 0.1-0.3 0 0-0.1 0-0.2-0.1-0.2 0-0.4 0-0.7 0.2-0.2 0.1-0.5 0.2-1 0.2-0.4 0-0.8 0.1-1.1 0.2-0.2 0.1-0.7 0.3-1.1 0.3-0.6 0.1-1.1 0.2-2.6 0.1-1.7 0-1.9 0-2.2 0.1-0.2 0.1-0.4 0.2-0.5 0.1-0.1 0-0.2-0.1-0.3-0.1-0.1-0.1-0.5-0.1-2.5-0.1-1.7 0-2.5-0.1-2.9-0.1-0.3-0.1-0.8-0.2-1-0.3-0.1-0.1-0.4-0.2-0.5-0.3-0.1-0.1-0.2-0.2-0.1-0.2 0 0 1.4-0.1 3.1-0.1 1.7 0 3.5-0.1 4-0.2 0.5 0 1.2-0.1 1.5-0.1 0.3-0.1 0.8-0.2 1.2-0.2 0.4-0.1 1.1-0.3 1.5-0.5 0.5-0.1 1.1-0.3 1.4-0.5 0.2-0.1 0.8-0.3 1.2-0.5 0.4-0.2 1.7-0.8 2.8-1.3 1.2-0.5 2.4-1.2 2.8-1.4 0.5-0.2 1.5-0.9 2.4-1.5 0.9-0.6 2.2-1.4 2.8-1.7 0.7-0.4 1.5-0.9 1.7-1.1 0.3-0.2 1.1-0.6 1.6-0.9 0.6-0.3 1.5-0.8 2-1.1 0.5-0.4 1.2-0.9 1.6-1.2 0.5-0.3 1-0.8 1.3-1.1 0.3-0.3 0.7-0.8 1-1.1 0.2-0.3 0.5-0.7 0.5-0.8q0.2-0.3 0.3-0.3c0 0 0.3-0.2 0.6-0.5 0.4-0.3 0.8-0.6 0.9-0.6q0.3-0.2 0.2-0.1c0 0.1-0.1 0.3-0.2 0.4q-0.1 0.3 0 0.4 0.1 0.1 0.3-0.1c0.1 0 0.4-0.2 0.6-0.5 0.2-0.2 0.5-0.5 0.7-0.7 0.2-0.3 0.3-0.6 0.4-1.1 0.1-0.4 0.2-0.8 0.2-0.8 0 0 0.1 0.1 0.2 0.1q0.2 0.1 0.3 0c0.1-0.1 0.3-0.3 0.4-0.5 0.1-0.2 0.2-0.4 0.2-0.6 0-0.2 0.1-0.6 0.1-0.9 0.1-0.3 0.3-0.8 0.4-1.2 0.1-0.3 0.3-0.7 0.3-0.9 0-0.2 0.1-0.3 0.3-0.4 0.2-0.1 0.2-0.2 0.3-0.5 0-0.2 0-0.3 0.1-0.4 0 0 0.1-0.1 0.2-0.2 0.1 0 0.1 0 0.2 0.2q0.2 0.3 0.3 0.3c0 0 0-0.2 0-0.5 0-0.2 0-0.5 0-0.6-0.1-0.3-0.1-0.4 0-0.6 0.1-0.2 0.2-0.5 0.2-0.7 0-0.1-0.1-0.3-0.2-0.4-0.1-0.2-0.2-0.3-0.2-0.4 0-0.1 0.1-0.3 0.2-0.4 0.2-0.2 0.3-0.2 0.2-0.5 0-0.2-0.2-0.4-0.6-0.8-0.4-0.3-0.9-0.6-1.1-0.8-0.3-0.2-0.7-0.5-1.4-0.8l-0.8 0.2c-0.4 0.2-1.2 0.3-1.6 0.4-0.5 0.1-1 0.2-1.2 0.2-0.2 0-0.7 0.1-1.1 0.2-0.4 0.2-1.2 0.5-1.7 0.7-0.6 0.2-1.7 0.8-2.5 1.2-0.8 0.4-2.6 1.3-6.3 3.4l-0.9 0.1c-0.5 0.1-1 0.2-1.1 0.2-0.2 0-0.5 0.2-0.8 0.3-0.3 0.2-0.8 0.4-1.3 0.6-0.4 0.1-0.7 0.3-0.8 0.3 0 0 0.3-0.4 0.7-0.8 0.4-0.4 0.8-0.8 0.8-0.8 0-0.1-0.1-0.1-0.3-0.1-0.2 0-0.5 0-0.8 0.1-0.3 0-0.8 0.1-1 0.2-0.3 0.1-0.8 0.3-1.1 0.4-0.6 0.3-0.6 0.3-2 0.4-0.8 0-1.6 0-1.7 0.1-0.1 0-0.2 0.1-0.3 0.1-0.1 0.1-0.2 0.1-0.2 0.1 0 0-0.1-0.1-0.1-0.2q0-0.1 0.4-0.5c0.2-0.2 0.3-0.4 0.3-0.5q0 0-0.5 0c-0.2 0-0.7 0-1 0.1-0.4 0-0.6 0.1-0.6 0.1 0 0 0.2-0.4 0.6-0.8 0.3-0.5 1.1-1.3 1.7-2 0.6-0.6 1.5-1.5 2-1.9 0.5-0.5 1.4-1.3 2.1-1.8 0.6-0.4 1.7-1.3 2.5-1.8 0.7-0.6 1.8-1.3 2.4-1.7 0.6-0.3 1.7-1 2.4-1.4 0.8-0.5 1.5-0.8 1.9-0.9 0.3-0.1 0.6-0.3 0.8-0.4 0.2-0.1 0.2-0.1 0.1-0.2 0 0-0.4-0.1-0.8-0.2-0.6-0.1-0.8-0.2-1.5-0.1-0.4 0-1 0.1-1.4 0.1-0.3 0.1-0.9 0.2-1.2 0.4-0.4 0.1-1.1 0.3-1.6 0.6-0.5 0.2-1.7 0.8-2.6 1.3-0.9 0.4-1.9 1-2.3 1.2-0.6 0.3-0.7 0.4-1 0.7-0.1 0.2-0.4 0.5-0.6 0.6-0.3 0.2-0.3 0.2-0.8 0.2-0.4 0-0.5 0-1 0.3-0.3 0.2-0.8 0.5-1.1 0.7-0.4 0.2-0.8 0.4-1 0.5-0.3 0-0.4 0.1-0.7 0.4-0.1 0.2-0.4 0.4-0.6 0.5-0.1 0.1-0.5 0.2-0.7 0.2q-0.4 0-0.4 0c0-0.1 0.6-0.7 1.3-1.5 0.7-0.7 1.9-1.9 2.6-2.6 0.8-0.7 1.6-1.4 1.8-1.7 0.3-0.3 0.5-0.5 0.5-0.6 0.1-0.1-0.1-0.1-0.4 0.1-0.3 0.2-0.8 0.5-1.1 0.7-0.3 0.2-1 0.9-1.5 1.4-0.6 0.6-1.2 1.1-1.4 1.3-0.2 0.1-1 0.9-1.8 1.8-0.9 0.8-1.8 1.7-2 1.9-0.3 0.2-0.6 0.6-0.7 0.8-0.2 0.3-0.4 0.5-0.6 0.7-0.3 0.2-0.9 0.5-1.4 0.8-0.6 0.3-1.1 0.6-1.2 0.7-0.2 0.1-0.4 0.2-0.5 0.3-0.1 0.1-0.2 0.2-0.2 0.2 0 0 0.1-0.3 0.3-0.6 0.1-0.3 0.6-1.1 0.9-1.8 0.4-0.8 0.7-1.3 0.7-1.5 0-0.2 0.1-0.5 0.1-0.6 0.1-0.1 0.4-0.4 0.8-0.7 0.4-0.3 1-0.8 1.2-1.2 0.3-0.3 0.7-0.6 0.8-0.6 0.2-0.1 0.2-0.1 0.3 0.1q0 0.1 0 0.3c0 0 0.1 0.1 0.2 0.1q0.2 0.1 0.3-0.3c0.1-0.2 0.3-0.5 0.4-0.6q0.2-0.2 0.6-0.6l0.8 0.3 0.4-0.2c0.3-0.1 0.7-0.4 1-0.7 0.3-0.3 0.8-0.9 1.3-1.3 0.4-0.5 0.8-0.9 1-1 0.2-0.1 0.4-0.3 0.4-0.3q0-0.2-0.1-0.2c0 0-0.1 0.1-0.2 0.2q-0.2 0.1-0.5 0.1c-0.1 0-0.2-0.1-0.5-0.6l0.2-0.1c0.1-0.1 0.3-0.2 0.4-0.4 0.2-0.2 0.3-0.2 0.3-0.1 0 0.1 0 0.2 0.1 0.2 0 0 0.2 0 0.5-0.1 0.2-0.1 0.4-0.3 0.5-0.4 0.1-0.1 0.2-0.3 0.2-0.6h-0.6c-0.4 0-0.9 0.1-1.1 0.1-0.2 0.1-0.7 0.4-1.2 0.7-0.4 0.3-0.8 0.5-0.8 0.5q-0.1 0-0.1-0.1c0 0 0-0.1 0.1-0.2 0-0.1 0.1-0.3 0.2-0.4 0.1-0.1 0.4-0.4 0.7-0.6 0.2-0.2 0.6-0.6 0.9-0.8 0.2-0.3 0.4-0.5 0.5-0.6q0.1-0.3 0-0.4c0-0.1-0.2 0-0.8 0.5-0.4 0.4-1.1 0.9-1.5 1.2-0.4 0.3-1.1 0.8-1.5 1.2-0.5 0.3-1.1 0.6-1.3 0.7-0.2 0.1-0.4 0.3-0.5 0.3-0.1 0.1-0.7 0.6-1.2 1.1-0.7 0.7-1.1 1.1-1.4 1.2-0.2 0.1-0.5 0.2-0.6 0.2-0.2 0-0.3 0.1-0.5 0.4-0.2 0.2-0.5 0.5-0.6 0.7-0.2 0.1-0.5 0.3-0.6 0.4-0.2 0.1-0.3 0.2-0.4 0.2q-0.1 0 0-0.1c0 0 0.1-0.4 0.1-0.8 0.2-0.6 0.2-0.7 0.6-1.1 0.2-0.2 0.6-0.7 0.9-1.2 0.3-0.5 0.8-1.1 1-1.3 0.3-0.5 0.3-0.5 0.7-0.7 0.3 0 0.7-0.2 0.9-0.3 0.2-0.2 0.4-0.4 0.5-0.6 0.2-0.2 0.3-0.4 0.5-1l-0.5 0.3c-0.2 0.1-0.4 0.2-0.5 0.1 0 0 0-0.1 0.1-0.2 0.1-0.1 0.4-0.5 1.3-1.5h-0.4c-0.2 0-0.5 0-0.7 0.1-0.2 0-0.6 0.2-0.8 0.3-0.2 0.1-0.7 0.5-1.1 0.9-0.4 0.4-0.9 0.8-1.1 1-0.2 0.1-0.3 0.2-0.4 0.2 0 0 0-0.2 0.2-0.5 0.1-0.2 0.2-0.5 0.2-0.6q0.1-0.2 0-0.2c-0.1 0.1-0.2 0.1-0.2 0.1-0.1 0-0.4 0.3-0.9 0.7-0.4 0.4-0.8 0.7-0.9 0.7q-0.1 0-0.1 0c0 0 0.1-0.2 0.3-0.5 0.1-0.2 0.4-0.7 0.7-1 0.2-0.3 0.6-0.7 0.8-1 0.3-0.2 0.6-0.5 0.8-0.6 0.2-0.1 1.1-0.8 2-1.6 0.9-0.7 1.8-1.4 2-1.5 0.3-0.1 0.9-0.5 1.4-0.8 0.4-0.3 1-0.7 1.2-0.8 0.1-0.1 0.7-0.3 1.2-0.5 0.4-0.1 1-0.4 1.3-0.5 0.2-0.1 0.6-0.3 0.9-0.5 0.3-0.2 0.6-0.5 0.7-0.7 0.1-0.3 0.3-0.4 0.9-0.7 0.4-0.2 1.3-0.7 2-1.1 0.7-0.5 1.6-1 2-1.2 0.4-0.2 0.9-0.4 1.2-0.6 0.3-0.1 0.8-0.2 1.1-0.3 0.3 0 0.7-0.1 0.8-0.1q0.2-0.2 0.3-0.3c0.1-0.1 0.2-0.2 0.2-0.2q0 0-0.2 0c-0.1 0-0.3-0.1-0.4-0.2-0.2-0.1-0.5-0.4-1.2-1.2l0.4-0.1c0.3-0.1 0.6-0.2 1.1-0.3l-0.7-0.2c-0.4-0.1-0.8-0.3-0.9-0.3-0.2-0.1-0.3-0.2-0.4-0.3 0 0-0.2-0.2-0.4-0.3-0.2-0.1-0.5-0.3-0.8-0.5-0.2-0.2-0.5-0.5-0.7-0.5-0.2-0.1-0.5-0.2-0.6-0.2-0.1 0-0.4-0.1-0.6-0.1-0.3-0.1-1.1-0.2-1.7-0.2-0.7-0.1-1.3-0.2-1.5-0.2-0.2-0.1-0.3-0.1-0.2-0.2 0 0 0.2-0.1 0.3-0.2 0.2 0 0.6-0.1 0.9-0.2 0.2 0 0.6 0 0.9-0.1 0.3 0 1.7 0 3.3-0.1 1.6 0 2.9-0.1 3-0.1 0.2-0.1 0.4-0.2 0.5-0.3 0.2-0.1 0.3-0.2 0.3-0.2 0-0.1-0.3-0.1-0.7-0.2-0.3 0-0.8-0.1-1.1-0.2-0.5-0.2-0.8-0.2-2.3-0.2-1.6 0-1.7 0-2.4-0.2q-0.7-0.2-0.9-0.3 0 0 0.1-0.1c0 0 0.2-0.1 0.5-0.3l-0.5-0.1c-0.2 0-1-0.1-3.2-0.2l0.9-0.2c0.5-0.1 1.2-0.3 1.5-0.4 0.4 0 0.9-0.1 1.3-0.1 0.3 0 0.9 0 1.4-0.1 0.4 0 1.2-0.1 1.8-0.1 0.6-0.1 2-0.1 3.1-0.1 1.1 0.1 2.1 0.1 2.3 0.2 0.3 0.1 1.2 0.1 3 0.1 1.4 0 2.8 0 3.3 0 0.4 0.1 0.9 0.2 1.1 0.2q0.3 0.1 0.6 0.4l-0.3 0.1c-0.2 0-0.9 0.1-1.7 0.1-0.7 0.1-1.7 0.2-2.1 0.2-0.4 0.1-1.4 0.1-2.1 0.1-1 0.1-1.5 0.1-1.6 0.2 0 0.1 0 0.1 0.1 0.2 0.1 0.2 0.3 0.2 1.2 0.3 0.5 0 1.1 0.1 1.3 0.1 0.1 0.1 0.8 0.2 1.5 0.3 0.6 0 1.7 0.1 2.4 0.1 0.6 0 1.3 0 1.4 0 0.1-0.1 0.1-0.1-0.2-0.2-0.3-0.1-0.6-0.2-0.7-0.3-0.1-0.1-0.2-0.1-0.2-0.2 0 0 0.2-0.1 0.3-0.1 0.2 0 0.9 0 1.6 0 0.7 0 1.5 0 1.8 0 0.5 0.1 0.7 0.2 1 0.4 0.2 0.1 0.4 0.2 0.5 0.3 0 0 0.2-0.1 0.3-0.2 0.2 0 0.4-0.1 0.5-0.2 0.2 0 0.3 0 0.4 0.1 0.1 0.1 0.3 0.2 0.4 0.2 0.1 0.1 0.2 0.1 0.3 0.1 0-0.1 0.1-0.2 0.1-0.2 0-0.1-0.1-0.2-0.8-0.5-0.4-0.3-1.3-0.6-1.9-0.9-0.7-0.3-1.7-0.7-2.4-0.9-0.7-0.2-1.6-0.5-2.2-0.7-0.5-0.1-1.5-0.3-2.1-0.5-0.6-0.1-1.6-0.3-2.2-0.3-0.7-0.1-1.8-0.2-2.5-0.3-0.9 0-2.2 0-3.7 0-1.3 0-2.9 0.1-3.6 0.1-0.7 0.1-1.8 0.2-2.5 0.3-0.7 0.1-1.9 0.3-2.6 0.4-0.7 0.1-1.9 0.3-2.6 0.4-0.7 0.1-1.7 0.4-2.3 0.5-0.6 0.2-1.5 0.5-2.1 0.7-0.6 0.2-1.8 0.6-2.5 0.9-0.8 0.3-2.1 0.9-2.9 1.3-0.8 0.3-2 0.9-2.6 1.3-0.7 0.3-1.5 0.8-2 1.1-0.4 0.3-1.1 0.8-1.6 1.1-0.5 0.3-1.3 0.9-1.8 1.3-0.5 0.4-1.2 1-1.7 1.3-0.4 0.4-1.3 1.2-1.9 1.7-0.6 0.6-1.4 1.4-1.9 1.9-0.4 0.4-1.1 1.2-1.5 1.7-0.4 0.5-1.2 1.4-1.6 1.9-0.4 0.6-1.1 1.5-1.5 2-0.3 0.5-0.9 1.4-1.3 2-0.3 0.6-0.9 1.5-1.2 2.1-0.3 0.5-0.9 1.6-1.3 2.4-0.3 0.7-0.7 1.7-0.9 2.1-0.2 0.4-0.5 1.1-0.6 1.5-0.1 0.5-0.4 1.3-0.6 1.9-0.1 0.6-0.4 1.3-0.5 1.6-0.1 0.2-0.3 0.4-0.3 0.4 0-0.1-0.1-0.3-0.1-0.5 0.1-0.3 0-0.4-0.3-0.8l0.5-1.3c0.2-0.7 0.6-1.8 0.9-2.5 0.3-0.7 0.7-1.7 0.9-2.2 0.2-0.4 0.7-1.4 1-2.1 0.4-0.7 1-1.8 1.3-2.4 0.4-0.6 0.9-1.5 1.3-2 0.3-0.5 0.8-1.4 1.2-1.8 0.4-0.5 1-1.4 1.4-1.9 0.4-0.5 1.1-1.3 1.5-1.8 0.5-0.5 1.5-1.5 2.2-2.3 0.8-0.7 1.9-1.7 2.5-2.2 0.6-0.5 1.4-1.2 1.8-1.5 0.5-0.3 1.2-0.9 1.7-1.2 0.5-0.4 1.4-0.9 2-1.3 0.6-0.3 1.5-0.9 2-1.1 0.5-0.3 1.2-0.7 1.6-0.9 0.4-0.2 1.3-0.6 2-0.9 0.6-0.3 1.6-0.7 2.2-0.9 0.6-0.2 1.4-0.5 1.9-0.7 0.5-0.2 1.3-0.4 1.9-0.6 0.6-0.2 1.6-0.5 2.1-0.6 0.6-0.2 1.6-0.4 2.3-0.5 0.6-0.2 1.6-0.4 2.2-0.5 0.6-0.1 1.6-0.3 2.2-0.3 0.6-0.1 1.4-0.2 1.8-0.3 0.4 0 1.3-0.1 2-0.2 0.7 0 2.7-0.1 4.4-0.1 1.9-0.1 3.6 0 4.6 0 0.8 0.1 2.1 0.2 2.8 0.2 0.9 0.1 1.7 0.1 2.9 0.1 0.8 0 2-0.1 2.5-0.1 0.6-0.1 1.3-0.2 1.8-0.3 0.4 0 1.2-0.3 1.9-0.5 0.7-0.2 1.9-0.7 2.7-1 1.3-0.5 1.6-0.6 1.7-0.5 0 0.1 0.3 0 1.4-0.6 0.7-0.3 2-0.9 2.7-1.2 0.7-0.4 1.7-0.9 2.2-1.2 0.4-0.2 0.8-0.4 0.8-0.4 0 0.1 0.1 0.1 0.1 0.2 0.1 0.1 0.2 0 0.9-0.3 0.5-0.3 1.4-0.8 2-1.2 0.7-0.4 1.4-0.8 1.6-1 0.4-0.2 0.5-0.2 0.5-0.1q0 0.1-0.3 0.6c-0.1 0.2-0.4 0.5-0.6 0.6-0.2 0.2-0.7 0.5-1.2 0.7-0.4 0.3-0.9 0.5-1 0.6 0 0.1-0.1 0.1-0.1 0.2 0 0 0.3-0.1 0.5-0.1 0.3-0.1 0.8-0.3 1.1-0.4 0.2-0.1 1-0.6 1.6-0.9 0.8-0.5 1.6-1 3.1-1.6 1-0.5 3.1-1.4 4.5-2 1.4-0.7 3.6-1.7 4.9-2.3 1.3-0.5 3.6-1.6 5.2-2.3 1.5-0.6 2.9-1.2 2.9-1.2q0.1 0 0.1 0.1c0 0-0.1 0.2-0.1 0.4-0.1 0.2-0.2 0.3-0.4 0.3-0.1 0-0.3 0.1-0.5 0.2-0.2 0.1-0.5 0.3-0.7 0.4-0.2 0.1-0.6 0.3-1 0.4-0.4 0.1-0.6 0.2-0.9 0.4-0.1 0.1-0.4 0.3-0.5 0.4-0.2 0.1-0.4 0.2-0.5 0.2-0.1 0.1-0.3 0.2-0.5 0.3-0.1 0.1-0.3 0.3-0.4 0.4-0.2 0.1-0.4 0.1-0.6 0.2q-0.3 0-0.6 0.3c-0.2 0.2-0.6 0.5-1.2 0.8-0.5 0.2-0.9 0.5-1.1 0.6-0.1 0.1-0.4 0.3-0.8 0.4-0.3 0.1-0.7 0.3-0.9 0.4-0.2 0.1-0.5 0.3-0.6 0.5-0.2 0.2-0.3 0.3-0.1 0.3 0 0.1 0.2 0.1 0.4 0.1 0.2 0 0.6-0.1 0.9-0.3 0.3-0.1 0.9-0.4 1.3-0.6 0.3-0.3 0.8-0.6 1-0.7 0.2-0.1 0.5-0.2 0.7-0.2 0.2-0.1 0.5-0.2 0.8-0.4 0.3-0.2 0.7-0.5 0.9-0.6 0.2-0.1 0.5-0.2 0.7-0.3 0.2-0.1 0.8-0.4 1.2-0.7 0.5-0.3 1.2-0.7 1.6-0.9 0.6-0.3 0.8-0.4 1.3-0.4 0.3 0 0.7-0.1 0.9-0.1 0.2-0.1 0.7-0.3 1.2-0.5 0.5-0.2 1.7-0.8 2.8-1.3 1.6-0.8 1.9-0.9 2.1-0.9 0.1 0.1 0.4 0 0.6 0 0.1-0.1 0.7-0.4 1.1-0.7 0.5-0.3 0.9-0.6 1-0.6q0 0 0 0.2c0 0.1 0 0.2-0.1 0.3-0.1 0.1-0.2 0.3-0.4 0.5-0.1 0.1-0.6 0.4-1 0.7-0.5 0.3-1.1 0.7-1.3 0.9-0.2 0.2-0.6 0.4-0.9 0.6q-0.6 0.2-0.8 0.2c-0.2-0.1-0.3 0-0.7 0.2-0.2 0.2-0.4 0.4-0.5 0.4q0 0.1 0.2 0c0.1 0 0.2 0 0.2 0 0 0.1 0 0.2-0.1 0.4-0.1 0.1-0.3 0.3-0.4 0.4-0.1 0.1-0.4 0.2-0.5 0.2-0.2 0-0.4 0.2-0.8 0.6-0.3 0.3-0.7 0.6-0.9 0.7-0.3 0.1-0.5 0.2-0.6 0.2-0.1 0-0.1 0 0-0.2 0.1-0.1 0.3-0.5 0.6-0.8 0.2-0.2 0.4-0.6 0.5-0.7 0.1-0.1 0.1-0.1-0.1 0-0.2 0-0.3 0.1-0.5 0.1-0.1 0.1-0.3 0.3-0.4 0.4-0.1 0.1-0.5 0.2-0.7 0.3-0.2 0.1-0.5 0.2-0.5 0.3-0.1 0.1-0.1 0.2-0.1 0.3 0 0.2 0 0.2 0.7 0.2l-0.3 0.2c-0.1 0.2-0.8 0.6-1.5 1.1-0.6 0.4-1.2 0.8-1.5 1.1l0.2-0.1c0.2 0 0.9-0.3 1.7-0.7 0.7-0.3 2.6-1.2 4.2-2 1.5-0.7 3.2-1.6 3.8-1.8q1.1-0.5 1.4-0.7c0.3-0.3 0.3-0.3 1.1-0.3 0.5-0.1 0.9-0.1 1.2-0.2 0.2-0.1 0.8-0.3 1.3-0.6 0.6-0.2 1.2-0.6 1.5-0.7 0.3-0.1 0.7-0.4 0.9-0.5 0.1-0.1 0.4-0.2 0.5-0.2 0.2 0 0.3-0.1 0.6-0.4 0.2-0.2 0.4-0.3 0.5-0.3 0 0 0.1 0.1 0.1 0.2 0 0.1 0.1 0.3 0.1 0.3 0.1 0.1 0.2 0.1 0.5 0q0.4-0.1 0.4 0c0.1 0-0.2 0.3-0.5 0.5-0.3 0.3-0.8 0.6-1.1 0.8-0.4 0.2-0.7 0.3-0.8 0.3-0.1 0-0.3 0-0.3-0.1 0 0-0.2 0.1-0.4 0.2-0.3 0.2-0.7 0.4-0.9 0.5-0.3 0-0.5 0.1-0.5 0 0 0-1 0.4-2.1 1-1.2 0.7-2.4 1.4-2.9 1.6-0.4 0.2-1.1 0.7-1.5 0.9-0.4 0.3-0.9 0.7-1.1 0.9-0.3 0.2-0.6 0.5-0.6 0.6-0.1 0.2-0.1 0.3-0.1 0.4 0.1 0.1 0.1 0.2 0.2 0.2 0 0 0.5-0.2 1-0.4 0.5-0.2 1.6-0.7 2.4-1.1 0.8-0.4 2.1-1.1 2.9-1.6 0.8-0.4 1.5-0.8 1.7-0.8 0.2-0.1 0.5-0.1 0.6-0.2 0 0 0.2-0.1 0.3-0.2q0.2-0.2 0.3 0c0.2 0.1 0.3 0.1 0.7-0.1 0.3 0 0.8-0.3 1.3-0.5 0.4-0.2 0.9-0.4 1-0.4 0.2 0 0.4 0 0.4-0.1 0.1 0 0.2-0.1 0.2-0.2q0-0.1 0.6-0.1c0.3-0.1 0.8-0.2 1.2-0.3 0.3-0.1 0.9-0.3 1.3-0.5 0.4-0.2 1-0.5 1.4-0.7 0.3-0.2 1-0.6 1.5-0.9 0.5-0.2 1.2-0.6 1.6-0.7 0.3-0.1 0.8-0.3 1.1-0.3 0.3-0.1 0.5-0.2 0.8-0.4 0.2-0.2 0.7-0.5 1.1-0.7 0.4-0.3 0.9-0.6 1.2-0.7 0.2-0.1 0.8-0.3 1.2-0.5 0.5-0.2 0.8-0.3 0.8-0.3 0.1 0-0.1 0.2-0.2 0.5-0.2 0.2-0.4 0.5-0.4 0.6 0 0 0.1 0.1 0.2 0.1 0 0 0.3-0.2 0.6-0.5 0.4-0.3 0.8-0.7 1-0.8 0.2-0.2 0.6-0.4 0.8-0.5 0.2 0 0.4-0.1 0.4-0.1 0 0-0.2 0.3-0.5 0.7-0.3 0.3-0.8 0.8-1 1-0.3 0.3-0.7 0.6-1 0.8-0.3 0.2-0.6 0.4-0.8 0.4-0.2 0.1-0.5 0.2-0.8 0.3-0.3 0-0.8 0.3-1.2 0.4-0.3 0.2-1.1 0.6-2.9 1.7l-0.2 0.4c-0.1 0.4-0.2 0.5-0.6 0.9-0.3 0.2-1 0.7-1.5 1-0.5 0.4-1.7 1.1-2.5 1.6-0.9 0.5-1.8 1-2.1 1.2-0.3 0.1-0.8 0.4-1.2 0.7-0.4 0.2-1.1 0.7-1.6 1.1-0.6 0.4-1.1 0.8-1.3 0.9-0.1 0-0.6 0.2-1 0.4-0.4 0.1-0.8 0.3-0.9 0.4-0.1 0.1-0.3 0.3-0.6 0.7l0.3-0.1c0.2 0 0.7-0.1 1.2-0.2 0.5-0.2 1.1-0.4 1.4-0.5 0.4-0.2 0.9-0.4 1.2-0.6 0.2-0.2 0.7-0.5 0.9-0.8 0.3-0.2 0.5-0.4 0.5-0.4 0 0 0.1 0.2 0.2 0.4 0.1 0.2 0.2 0.4 0.2 0.4 0.1 0 0.2-0.1 0.3-0.2 0.1-0.2 0.3-0.4 0.4-0.6 0.1-0.1 0.3-0.2 0.5-0.3 0.2 0 0.7-0.2 1.2-0.4 0.5-0.1 1.2-0.4 1.7-0.6 0.4-0.2 1.6-0.7 2.7-1.3 1.1-0.5 2.5-1.1 3.1-1.4 0.6-0.2 1.3-0.6 1.7-0.8 0.4-0.2 0.9-0.5 1.1-0.6 0.3-0.2 0.6-0.4 0.7-0.5 0.1-0.1 0.5-0.3 0.9-0.5 0.4-0.2 1-0.5 1.4-0.6 0.4-0.2 0.7-0.3 0.7-0.3 0.1 0 0.2 0.1 0.4 0.2 0.3 0.3 0.3 0.3 0.4 0.1 0.1 0 0.2-0.2 0.5-0.7l0.2 0.2c0.2 0.1 0.4 0.1 0.6 0.1 0.2 0 0.3 0 0.3-0.1 0-0.1-0.1-0.3-0.2-0.5-0.3-0.2-0.3-0.3-0.1-0.3 0.1 0 0.5 0 1.7-0.2l0.3-0.4c0.1-0.2 0.4-0.4 0.5-0.5 0.1 0 0.4-0.1 0.6-0.1 0.3 0 0.4 0 0.9-0.4 0.3-0.2 0.7-0.5 0.9-0.7 0.1-0.1 0.3-0.4 0.4-0.6 0.1-0.2 0.2-0.3 0.3-0.2 0.1 0 0.3 0 0.5 0 0.3 0.1 0.4 0.1 1.1-0.3 0.7-0.3 0.7-0.3 1-0.2 0.3 0 0.4 0 0.5-0.1 0.1-0.1 0.2-0.3 0.3-0.4 0.1-0.3 0.2-0.4 0.7-0.7 0.3-0.1 1.2-0.5 1.2-0.5 0.8 0 0.8 0 1-0.3 0.1-0.1 0.2-0.3 0.2-0.3 0-0.1 0.1-0.2 0.1-0.2 0.1-0.1 0.6-0.3 1.2-0.6 1-0.4 1.2-0.4 2.1-0.4l0.1-0.4c0.2-0.3 0.2-0.3 1.1-0.7 0.5-0.2 1-0.4 1.1-0.5 0.2-0.1 0.5-0.3 0.7-0.4 0.1-0.2 0.4-0.4 0.5-0.5 0.1-0.1 0.3-0.1 0.5-0.1 0.3 0 0.3-0.1 0.6-0.3 0.1-0.1 0.4-0.3 0.5-0.4 0.2-0.1 0.6-0.2 0.9-0.2 0.6-0.1 0.7-0.1 1-0.4 0.3-0.2 0.5-0.4 0.7-0.4 0.1-0.1 0.4-0.1 0.5-0.1 0.4 0 0.4 0 0.5-0.3 0-0.1 0.2-0.3 0.3-0.4 0.1-0.1 0.4-0.2 0.6-0.4 0.3-0.1 1.1-0.4 1.8-0.6 0.6-0.2 1.4-0.4 1.7-0.5 0.3-0.1 0.7-0.3 1-0.4 0.2-0.1 0.4-0.2 0.4-0.2 0 0 0 0.1-0.1 0.3-0.1 0.1-0.4 0.5-0.6 0.7-0.3 0.2-0.6 0.5-0.6 0.7-0.1 0.1-0.2 0.3-0.2 0.3q0 0.1 0.3 0c0.2 0 0.5-0.2 0.8-0.3 0.3-0.2 0.6-0.3 0.8-0.3q0.2 0 0.6-0.3 0.4-0.3 0.6-0.3c0.2 0 0.3 0 0.5 0.1 0.1 0.1 0.2 0.1 0.7 0 0.3 0 0.8-0.2 1.1-0.3 0.4-0.1 0.8-0.2 1-0.3 0.2-0.1 0.6-0.4 0.8-0.6 0.3-0.2 0.7-0.5 0.8-0.7 0.4-0.3 0.4-0.3 0.7-0.2 0.1 0 0.3 0.1 0.4 0 0.1 0 0.3-0.1 0.5-0.2 0.1-0.1 0.4-0.2 0.5-0.2 0.2 0 0.4 0 0.6 0.1 0.2 0 0.3 0 0.6-0.2 0.1-0.1 0.5-0.3 0.7-0.4q0.5-0.3 0.9-0.3c0.3 0 0.6-0.1 0.6-0.1 0.1-0.1 0.5-0.2 1-0.3 0.4-0.1 1.1-0.3 1.5-0.4 0.4-0.1 0.7-0.2 0.7-0.2 0 0-0.1 0.1-0.1 0.2-0.1 0.2-0.3 0.4-0.4 0.5-0.2 0.1-0.7 0.3-1.1 0.4-0.5 0.2-0.9 0.4-1 0.5-0.1 0.1-0.2 0.2-0.3 0.4q-0.2 0.2-1.5 0.9c-0.7 0.3-1.5 0.7-1.9 1l0.6 0.1q0.6 0 0.9 0c0.1 0 0.5-0.1 0.9-0.3 0.4-0.2 0.9-0.3 1.2-0.4 0.3-0.1 0.8-0.1 1.4-0.2v0.3q0 0.3-0.1 0.5c-0.2 0.2-0.3 0.2-1 0.3-0.8 0-0.8 0-1.1 0.3-0.2 0.1-0.5 0.3-0.7 0.3-0.1 0.1-0.4 0.1-0.5 0.1-0.1 0-0.4 0.1-0.8 0.1-0.3 0.1-0.7 0.2-1 0.3-0.2 0.1-0.6 0.3-0.8 0.4-0.4 0.2-0.5 0.3-0.5 0.5 0 0.1-0.1 0.4-0.2 0.8l0.4-0.1c0.1-0.1 0.6-0.3 1.1-0.4 0.5-0.2 1-0.3 1.2-0.3 0.2 0 0.6-0.1 0.9-0.2 0.4-0.1 0.9-0.1 1.2-0.1 0.6 0 0.6-0.1 1.4-0.5 0.5-0.2 1.1-0.5 1.4-0.6 0.3-0.1 0.7-0.2 0.9-0.3 0.2-0.1 0.4-0.3 0.6-0.5 0.2-0.1 0.3-0.2 0.7-0.3 0.2 0 0.6-0.1 0.8-0.2 0.3 0 0.7-0.2 1-0.4 0.6-0.3 0.6-0.3 0.6-0.6 0-0.3 0-0.4 0.2-0.5 0.1-0.2 0.5-0.4 0.8-0.5q0.5-0.3 0.6-0.3c0 0 0.1 0.2 0.1 0.6l0.2-0.1c0.2 0 0.5-0.1 1.2-0.9h0.5c0.3 0 0.5 0 0.5-0.1 0.1-0.1 0.1-0.3 0.2-0.5 0-0.3 0-0.4 0.2-0.5 0.1 0 0.4-0.1 0.7-0.2 0.3 0 0.6-0.1 0.8-0.2 0.2-0.1 0.5-0.3 0.7-0.5 0.2-0.2 0.5-0.5 0.7-0.5 0.1-0.1 0.4-0.2 0.6-0.2 0.2 0 0.4 0.1 0.6 0.2 0.2 0 0.5 0 0.8 0 0.3 0 1-0.2 1.5-0.3 0.5-0.2 1-0.3 1-0.3 0.1-0.1 0.3-0.1 0.6-0.1 0.5 0 0.6 0 0.6 0.2 0 0.1-0.1 0.2-0.1 0.4-0.1 0.2-0.3 0.4-0.5 0.6-0.2 0.1-0.6 0.4-0.9 0.5-0.3 0.1-0.8 0.3-1.1 0.4-0.3 0.1-1 0.2-1.4 0.2-0.6 0.1-0.9 0.2-1.2 0.3-0.2 0.1-0.6 0.3-0.9 0.5-0.2 0.2-0.6 0.4-0.8 0.6q-0.4 0.4-0.7 0.4c-0.1 0.1-0.3 0.1-0.4 0.1-0.1 0.1-0.2 0.2-0.2 0.4 0 0.1-0.1 0.3-0.1 0.4-0.1 0.1-0.2 0.2-0.4 0.3-0.1 0.1-0.3 0.1-0.3 0.1 0 0 0-0.1 0.2-0.6l-0.3 0.1c-0.1 0.1-0.3 0.1-0.4 0.2-0.1 0-0.4 0.3-0.7 0.6-0.5 0.4-0.6 0.5-0.9 0.5-0.2 0-0.5-0.1-1.1-0.3l-0.8 0.5c-0.6 0.3-1 0.5-1.3 0.9-0.3 0.2-0.6 0.6-0.7 0.7-0.1 0.1-0.3 0.3-0.5 0.3-0.1 0.1-0.4 0.1-0.5 0.1-0.3 0-0.4 0.1-0.6 0.3q-0.4 0.3-0.8 0.4-0.4 0.1-0.7 0c-0.3 0-0.4 0-0.6 0.1-0.2 0.1-0.5 0.4-0.7 0.7-0.3 0.6-0.3 0.6-0.8 0.6-0.2 0-0.6 0.1-0.9 0.2-0.3 0.1-1.1 0.5-1.6 0.7-0.6 0.3-1.4 0.6-1.7 0.7-0.3 0.1-0.7 0.2-1 0.2-0.3 0-0.6 0.1-0.7 0.1-0.1 0-0.3 0.2-0.6 0.5-0.3 0.2-0.5 0.5-0.6 0.6-0.1 0.2-0.1 0.2 0 0.2 0 0 0.2-0.1 0.4-0.3 0.1-0.1 0.3-0.2 0.3-0.2 0 0 0.1 0.1 0.1 0.3 0 0.2-0.1 0.3-0.2 0.4-0.1 0.1-0.4 0.3-0.7 0.4-0.2 0.1-0.5 0.2-0.6 0.4-0.1 0.1-0.1 0.3-0.2 0.4 0 0.2-0.1 0.3-0.2 0.4-0.1 0-0.5 0.2-0.8 0.3-0.3 0.1-0.6 0.2-0.6 0.2 0 0 0-0.1 0-0.2 0.1-0.1 0.3-0.3 0.8-0.9l-0.2-0.1c-0.1-0.1-0.2-0.1-0.3-0.1-0.2 0-0.4 0.1-0.5 0.2-0.1 0.1-0.4 0.2-0.5 0.3-0.2 0.1-0.5 0.1-1.5 0.1l-0.4 0.4c-0.2 0.2-0.7 0.6-1 0.9-0.3 0.3-0.5 0.5-0.5 0.5 0 0.1 0.2 0.1 0.4 0.1 0.1 0 0.3 0 0.4-0.1 0.1 0 0.4-0.2 0.6-0.3 0.2-0.2 0.4-0.3 0.4-0.3 0 0 0.1 0.1 0.1 0.2 0 0.2-0.1 0.3-0.1 0.4-0.1 0.1-0.3 0.2-0.4 0.3-0.2 0-0.3 0.1-0.4 0.3-0.1 0.3-0.2 0.3-0.3 0.3-0.2 0-0.3 0-0.4 0-0.2-0.1-0.2-0.1-0.4 0.1-0.1 0.1-0.3 0.2-0.4 0.3-0.1 0-0.3 0.1-0.6 0.2-0.2 0-0.5 0.1-0.6 0.2-0.1 0.1-0.3 0.2-0.5 0.3-0.2 0-0.7 0.2-1.3 0.3-0.5 0.1-1.1 0.3-1.3 0.4-0.2 0.1-0.4 0.3-0.5 0.5-0.1 0.1-0.2 0.3-0.2 0.3 0 0.1 0 0.2 0.1 0.2 0.1 0.1 0.2 0.1 0.4 0.1 0.2 0 0.4-0.1 1-0.5 0.4-0.3 0.9-0.6 1.3-0.8v0.2c0 0.1 0 0.2 0.1 0.3 0 0 0.3-0.1 0.5-0.3 0.3-0.2 0.5-0.3 0.7-0.3 0.2 0 0.4 0 0.5-0.1 0.1 0 0.4-0.2 0.6-0.4 0.2-0.2 0.4-0.3 0.5-0.3 0.1 0 0.3-0.1 0.5-0.2 0.2 0 0.4-0.1 0.5-0.2 0.1-0.1 0.3-0.2 0.7-0.2 0.3 0 0.7 0 0.8 0 0.1-0.1 0.4-0.2 0.6-0.3 0.1-0.1 0.4-0.4 1.1-1.1l0.9-0.2c0.4-0.1 0.9-0.2 0.9-0.2q0.1 0 0 0.3c0 0.1-0.1 0.3-0.2 0.5-0.1 0.1-0.2 0.3-0.4 0.4-0.3 0.1-0.5 0.2-0.7 0.2-0.2-0.1-0.3 0-0.7 0.2-0.2 0.1-0.6 0.5-0.9 0.9-0.3 0.3-0.7 0.6-0.9 0.7-0.2 0.1-0.6 0.3-1 0.4-0.3 0.1-0.9 0.2-1.1 0.2-0.5 0.1-0.6 0.1-0.9 0.7l0.2 0.1q0.1 0.1 0.5 0.1c0.1 0 0.3 0 0.3 0 0 0-0.1 0.1-0.1 0.2-0.1 0.1-0.3 0.3-0.6 0.5-0.2 0.2-0.6 0.3-0.9 0.4q-0.5 0.2-0.8 0.1c-0.2 0-0.4-0.1-0.4-0.1-0.2-0.2-0.2-0.2 0-0.3q0.2-0.1 0.2-0.4c0-0.1 0-0.2 0-0.2 0 0-0.1 0-0.2 0.1-0.2 0-0.4 0.2-0.8 0.6l-0.6 0.6c-0.4 0.2-0.7 0-1.1 0.5-0.6 0.6-0.8 0.5-1.1 0.6-0.2 0-0.7 0.3-0.7 0.3q-0.1 0.1-0.2 0.1c0 0.1-0.2 0.2-0.3 0.5-0.1 0.2-0.7 0.5-0.8 0.7-0.2 0.1-0.4 0.3-0.6 0.3-0.2 0.1-0.5 0.2-0.7 0.3-0.2 0-0.3 0.1-0.5 0.3-0.1 0.1-0.3 0.3-0.5 0.3-0.1 0-0.4 0.1-0.5 0.1q-0.2 0-1 0.5c-0.5 0.3-1 0.6-1.2 0.6-0.2 0-1.2 0.6-1.6 0.9zm-95 17.8c-0.2 0.2-0.2 0.2 0 0.3 0 0 0.3 0.1 0.6 0.2 0.3 0 1 0.3 1.5 0.6 0.6 0.2 1.6 0.6 2.3 0.9 0.7 0.3 1.6 0.7 2 0.8 0.5 0.1 1.1 0.3 1.4 0.4 0.4 0.1 0.9 0.2 1.3 0.3 0.4 0 0.9 0.1 1.1 0.1 0.2 0 0.5 0 0.7-0.1 0.2 0 0.4-0.1 0.5-0.2l0.2-0.1q-0.9-0.4-1.3-0.6c-0.4-0.1-1.1-0.3-1.7-0.5-0.6-0.1-1.3-0.3-1.7-0.4-0.3-0.1-1-0.4-1.6-0.6-0.5-0.3-1.3-0.6-1.7-0.7-0.4-0.1-0.9-0.3-1.3-0.4-0.3 0-0.7-0.1-0.9-0.1q-0.3 0.1-0.4 0c0-0.1-0.2-0.1-0.3-0.2-0.1 0-0.3 0-0.4 0.1-0.1 0-0.2 0.1-0.3 0.2zm37 47c-1.2 1.2-2.4 2.4-2.7 2.7-0.2 0.3-0.6 0.8-0.8 1.1-0.2 0.4-0.4 0.7-0.4 0.7 0 0 0.3-0.1 0.6-0.3 0.3-0.2 1.1-0.9 2.1-2 0.9-0.9 2.1-2.1 2.6-2.7 0.5-0.6 1-1.2 1.1-1.4 0.2-0.2 0.4-0.4 0.4-0.6 0.1-0.2 0.2-0.4 0.2-0.6-0.1-0.2-0.1-0.2-0.5 0.4-0.2 0.3-1.4 1.5-2.6 2.7zm-38.6 3.2c-0.2 0.1-0.6 0.2-0.8 0.2-0.3 0.1-0.7 0.2-1.1 0.4-0.4 0.2-1.1 0.6-1.5 0.8l-0.8 0.5c-0.2 0.6-0.3 0.8-0.3 0.9-0.1 0-0.3 0.2-0.5 0.4q-0.4 0.3-0.6 0.7c-0.1 0.2-0.4 0.6-0.6 0.8-0.2 0.3-0.4 0.6-0.4 0.7 0 0.1-0.1 0.2-0.2 0.3-0.1 0-0.4 0.2-0.7 0.3-0.2 0.1-0.6 0.3-0.8 0.5-0.3 0.3-0.3 0.4-0.2 0.3 0.1 0 0.4-0.1 0.6-0.3 0.2-0.1 0.6-0.2 0.8-0.3 0.3 0 0.5-0.1 0.6-0.1 0-0.1 0.2-0.3 0.4-0.6 0.1-0.2 0.4-0.6 0.7-0.9 0.2-0.2 0.6-0.6 0.9-0.8 0.2-0.2 0.6-0.4 0.9-0.5 0.3-0.2 0.5-0.3 0.5-0.4 0-0.1 0.1-0.2 0.2-0.2 0.1-0.1 0.3-0.1 0.4-0.1 0.1 0 0.3 0 0.4-0.1 0.1-0.1 0.2-0.3 0.3-0.4 0-0.2 0.1-0.3 0.3-0.4 0.2 0 0.5-0.2 0.7-0.4 0.2-0.1 0.6-0.4 0.7-0.6 0.2-0.3 0.4-0.4 0.8-0.6 0.2-0.1 0.5-0.2 0.6-0.3 0.1-0.1 0.1-0.3 0.2-0.4 0-0.1 0-0.2-0.1-0.2 0 0-0.2 0.1-0.5 0.3-0.3 0.1-0.7 0.4-0.9 0.5zm31.3-0.3c0 0.1 0 0.3 0 0.4q0 0.2 0.1 0.2c0.1 0.1 0.3 0 0.4-0.1 0.1-0.2 0.2-0.4 0.2-0.5 0-0.2 0-0.3 0-0.4 0-0.1-0.1-0.1-0.1-0.1-0.1 0-0.2 0-0.3 0.1-0.1 0.1-0.2 0.2-0.3 0.4zm-40.2 2.7c-0.1 0.1-0.5 0.3-0.9 0.4-0.4 0.1-0.9 0.2-1.2 0.3-0.2 0.1-0.6 0.3-0.8 0.3-0.3 0.1-0.6 0.3-0.8 0.4-0.2 0.1-0.4 0.3-0.5 0.5-0.1 0.1-0.1 0.3-0.1 0.3 0 0.1-0.3 0.4-0.5 0.7-0.3 0.2-0.5 0.5-0.4 0.5 0 0 0.3-0.1 0.5-0.2 0.3-0.2 0.8-0.4 1.1-0.7 0.6-0.4 0.6-0.4 1-0.4 0.3 0.1 0.4 0.1 0.7-0.1 0.2-0.1 0.8-0.5 1.3-0.8 0.4-0.3 1-0.7 1.2-0.8 0.2-0.1 0.4-0.3 0.4-0.4 0.1-0.1 0.2-0.3 0.2-0.4 0-0.2 0-0.2-0.1-0.2-0.1 0-0.3 0.1-0.5 0.2-0.2 0.2-0.5 0.4-0.6 0.4zm34.5 6.4c-1.1 1.7-2.4 3.5-2.8 4.1-0.5 0.7-0.9 1.1-1.5 1.7-0.5 0.4-1.2 1-1.8 1.5-0.5 0.4-1.3 1.1-1.8 1.6-0.6 0.4-1.4 1.2-1.9 1.7-0.5 0.6-1.3 1.3-1.6 1.6-0.4 0.4-0.8 0.8-0.9 0.9q-0.1 0.3 0 0.2c0.1 0 0.3-0.2 0.5-0.3 0.3-0.2 0.6-0.4 0.8-0.5 0.2-0.1 0.6-0.2 0.8-0.3 0.2-0.1 0.4-0.2 0.4-0.3 0.1 0 0.3-0.1 0.5-0.2 0.2-0.1 0.5-0.2 0.6-0.2 0.1 0 0.2 0.1 0.2 0.1 0.1 0.1 0.1 0.2 0 0.4l-0.1 0.3c0.7-0.5 1-0.7 1.1-0.7 0 0 0.2-0.1 0.4-0.3 0.2-0.2 0.5-0.5 0.8-0.6 0.2-0.2 0.7-0.4 0.9-0.5 0.3-0.1 0.6-0.1 0.6-0.1 0 0-0.1 0.2-0.1 0.4-0.1 0.2-0.2 0.5-0.2 0.6 0 0.2 0 0.3 0.1 0.4 0 0.1 0.1 0 0.4-0.2 0.2-0.1 0.5-0.2 0.6-0.2 0.1-0.1 0.2-0.1 0.2 0.1 0 0.1 0.1 0.3 0.1 0.4 0 0.2-0.1 0.3-0.3 0.6-0.2 0.1-0.3 0.3-0.3 0.3q0 0.1 0 0.1c0.1 0 0.2 0 0.5-0.1 0.2-0.1 0.6-0.4 0.9-0.6 0.4-0.2 0.8-0.6 1.1-0.8 0.3-0.3 0.6-0.6 0.7-0.8 0.1-0.2 0.2-0.4 0.2-0.5 0-0.1 0-0.2 0-0.2-0.1 0-0.3 0.1-0.5 0.3-0.3 0.2-0.6 0.3-0.8 0.4-0.2 0.1-0.2 0.1-0.5-0.1q-0.4-0.2-0.4-0.4 0-0.2 0.5-0.7c0.3-0.2 0.9-0.8 1.4-1.2 0.5-0.4 1.1-0.8 1.3-0.9 0.2-0.1 0.4-0.3 0.4-0.4 0.1-0.1 0.1-0.3 0.1-0.4 0-0.2 0-0.2-0.3-0.2-0.2 0-0.3 0-0.3-0.1 0-0.1 0-0.3 0-0.4 0.1-0.1 0.4-0.5 0.8-0.9 0.4-0.3 0.8-0.7 1-0.8 0.3-0.2 0.4-0.3 0.3-0.5 0-0.1 0-0.2-0.1-0.1-0.1 0-0.3 0.2-0.6 0.3-0.3 0.2-0.5 0.2-0.7 0.2-0.2 0-0.4 0-0.5-0.1-0.1-0.1-0.1-0.1 0.5-0.8 0.4-0.4 0.9-1 1.3-1.3 0.4-0.3 0.6-0.6 0.6-0.7q0-0.1 0-0.1c0 0-0.2 0-0.4 0.1-0.1 0.1-0.4 0.2-0.5 0.2h-0.2c0.3-0.5 0.7-0.9 1-1.2 0.4-0.4 1.4-1.3 2.4-2.1 1-0.8 1.9-1.6 2-1.7 0.2-0.2 0.3-0.5 0.4-0.7 0-0.2 0.1-0.5 0.1-0.7 0-0.1 0-0.3-0.1-0.3 0 0-0.5 0.4-1.1 0.9-0.5 0.6-1 1-1.1 1-0.1 0-0.2 0.1-0.3 0.1-0.1 0.1-0.4 0.3-0.6 0.5-0.2 0.2-0.6 0.7-0.9 1.1-0.4 0.6-0.6 0.8-0.8 0.9-0.2 0.1-0.2 0-0.3-0.1-0.1-0.1-0.2-0.3-0.2-0.3q0-0.2 0.4-1c0.3-0.5 0.6-1.1 0.7-1.3q0.2-0.5 0.6-0.9c0.2-0.3 0.4-0.6 0.5-0.9 0.1-0.2 0.2-0.5 0.2-0.7 0-0.1 0-0.2 0-0.2 0 0-0.6 0.8-1.2 1.8-0.7 1-2.1 3.2-3.2 4.8zm-48.4 3.4c-0.6 0.2-0.7 0.2-1.1 0.1-0.3-0.1-0.5-0.1-0.6-0.2q-0.2 0-0.3 0.3c-0.1 0.2-0.2 0.4-0.2 0.5q0 0.1-0.4 0.3c-0.4 0.2-0.4 0.2-0.4 0.4v0.3l1.9 0.4c0.8-0.3 1.3-0.6 1.5-0.7 0.2-0.2 0.5-0.4 0.7-0.6 0.2-0.1 0.3-0.3 0.4-0.4 0-0.2 0-0.3 0-0.4 0-0.1-0.1-0.2-0.1-0.2 0 0-0.2 0-0.3 0.1-0.2 0-0.6 0.1-1.1 0.1zm-32-34q0.1 0 0.1 0.1c0 0-0.1 0.3-0.2 0.7-0.1 0.4-0.2 1-0.3 1.5 0 0.5-0.2 1.6-0.2 2.6-0.1 0.9-0.2 1.8-0.4 2.5l-0.4 0.1c-0.3 0.1-0.5 0.1-0.5 0.1 0 0 0 0.4 0 0.8-0.1 0.5-0.1 1.3-0.2 1.8 0 0.6-0.1 1.5 0 2.9 0 1.1 0.1 2.6 0.1 3.3 0.1 0.7 0.2 1.7 0.3 2.3 0 0.6 0.2 1.5 0.3 2.1 0.1 0.6 0.3 1.5 0.4 2 0.1 0.6 0.4 1.7 0.7 2.5 0.3 0.9 0.7 2 0.9 2.5 0.2 0.5 0.6 1.4 0.8 1.9 0.3 0.6 0.7 1.5 1 2.1 0.3 0.6 0.8 1.5 1.1 2 0.3 0.5 0.5 1 0.5 1 0 0-0.1 0-0.2-0.1-0.1 0-0.3-0.2-0.4-0.3-0.1-0.1-0.4-0.5-0.6-0.9-0.3-0.5-0.8-1.3-1.1-2-0.3-0.6-0.8-1.6-1.1-2.2-0.3-0.7-0.7-1.6-0.9-2.1-0.2-0.5-0.5-1.5-0.8-2.1-0.2-0.7-0.5-1.8-0.7-2.6-0.2-0.7-0.4-1.9-0.6-2.6-0.1-0.8-0.3-2-0.4-2.7-0.1-1.1-0.1-2-0.2-4.3 0-1.6 0-3.5 0.1-4.2 0.1-1.2 0.1-1.2 0.7-2.6l-0.1-0.2c-0.1-0.3-0.2-0.4-0.1-0.8 0-0.3 0.1-0.9 0.2-1.3 0.1-0.4 0.2-0.9 0.3-1.3 0.1-0.3 0.3-0.8 0.4-1 0.2-0.4 0.3-0.5 0.6-0.5 0.2-0.1 0.3-0.2 0.4-0.5 0.1-0.1 0.2-0.3 0.3-0.4 0.1 0 0.2-0.1 0.2-0.1zm117.3-59.5c-1.9 0-3.5-1.6-3.5-3.5 0-1.9 1.6-3.5 3.5-3.5 1.9 0 3.5 1.6 3.5 3.5 0 1.9-1.6 3.5-3.5 3.5zm-87 42.5c0 0.1 0.1 0.2 0.1 0.2 0 0.1-0.6 0.7-1.3 1.5-0.7 0.7-1.7 1.7-2.1 2.1-0.5 0.5-1 1.1-1.3 1.4-0.2 0.4-0.5 0.7-0.6 0.8-0.1 0.2-0.2 0.3-0.2 0.3-0.1 0-0.2-0.1-0.2-0.2 0 0 0.1-0.3 0.2-0.5 0.2-0.2 0.5-0.7 0.8-1 0.2-0.4 0.9-1.1 1.5-1.8 0.6-0.6 1.5-1.5 2.1-2 0.8-0.8 1-0.9 1-0.8zm-19.8 0.1c0.1 0 0.1 0.1 0.2 0.2 0 0.1 0.1 0.2 0.1 0.2 0.1 0 0.2-0.1 0.5-0.4l0.1 0.4c0.1 0.2 0.1 0.6 0.1 0.9 0 0.5 0 0.7-0.2 1.2-0.2 0.4-0.3 0.8-0.4 1 0 0.3 0 0.3 0.1 0.4q0.2 0 0.2 0c0-0.1 0.1-0.2 0.1-0.2 0.1-0.1 0.1-0.1 0.2 0 0.1 0.1 0.1 0.3 0.1 0.5-0.1 0.2-0.2 0.6-0.3 0.9-0.2 0.5-0.2 0.6-0.2 1.2 0 0.4 0 1 0 1.4-0.1 0.5-0.2 0.8-0.4 1.4-0.1 0.4-0.4 1.2-0.5 1.7-0.1 0.6-0.3 1.3-0.4 1.6 0 0.4 0 0.7 0 0.8 0 0.1 0.1 0.3 0.1 0.4 0 0.2-0.1 0.8-0.2 1.2-0.1 0.5-0.2 1.2-0.3 1.5-0.1 0.3-0.4 0.9-0.6 1.3-0.2 0.4-0.5 1-0.7 1.2-0.2 0.3-0.4 0.4-0.5 0.5-0.1 0-0.3 0-0.4 0-0.1 0.1-0.3 0.2-0.4 0.3-0.1 0.1-0.2 0.4-0.3 0.6 0 0.2-0.1 0.4-0.1 0.5-0.1 0.1-0.2 0.2-0.3 0.4-0.1 0.1-0.3 0.2-0.4 0.3-0.2 0.1-0.2 0.1-0.5-0.1-0.1-0.2-0.3-0.3-0.5-0.3-0.1 0-0.3 0.1-0.4 0.2-0.1 0-0.3 0.2-0.7 0.6l-0.1-0.3c0-0.1-0.1-0.7-0.1-1.3 0-0.8 0-1-0.1-1 0-0.1-0.1-0.1-0.2-0.2 0-0.1-0.1-0.3-0.1-0.5 0-0.1 0.1-0.5 0.3-1.4l-0.3-0.3c-0.2-0.1-0.4-0.2-0.5-0.2 0 0-0.2 0.1-0.4 0.2-0.1 0.1-0.3 0.2-0.3 0.2 0 0 0-0.2-0.1-0.5 0-0.2 0.1-0.5 0.1-0.7 0.1-0.1 0.2-0.4 0.4-0.6 0.2-0.4 0.3-0.6 0.3-1.1 0.1-0.4 0.2-1 0.2-1.4 0.1-0.5 0.3-1.2 0.5-1.7 0.2-0.5 0.5-1.3 0.8-1.9 0.2-0.5 0.7-1.3 0.9-1.8 0.3-0.5 0.6-1 0.7-1 0-0.2 0.1-0.2 0.3 0.5l0.2-0.3c0.1-0.1 0.3-0.3 0.3-0.5 0-0.1 0.1-0.5 0.1-0.8q0.1-0.4 0.2-0.6c0.1-0.1 0.3-0.4 0.4-0.7 0.1-0.3 0.5-0.7 0.7-1.1 0.3-0.3 0.7-0.8 1-1.1 0.4-0.3 0.7-0.7 0.8-0.9q0.1-0.3 0.5-0.5c0.2-0.2 0.4-0.3 0.4-0.3zm18.3 5.7c0 0.1 0.1 0.2 0.1 0.2 0 0.1-0.2 0.3-0.3 0.4-0.2 0.2-0.3 0.3-0.4 0.3-0.1 0.1-0.3 0.3-0.5 0.5-0.2 0.3-0.6 0.8-0.9 1.3-0.3 0.4-0.9 1.2-1.2 1.6-0.3 0.4-0.9 1.1-1.2 1.6-0.4 0.4-0.8 0.9-0.9 1-0.1 0.1-0.3 0.2-0.4 0.2q-0.1 0-0.2 0c0 0 0.1-0.2 0.2-0.4 0.1-0.1 0.3-0.4 0.4-0.6 0.1-0.1 0.5-0.6 0.7-1 0.3-0.4 0.6-0.8 0.7-1.1q0.2-0.4 1-1.2c0.5-0.5 1.3-1.4 1.8-1.9 0.9-0.9 1-1 1.1-0.9zm5 3.2c0.3 0 0.3 0 0.3 0.1 0 0.1 0 0.3-0.1 0.5-0.1 0.2-0.3 0.5-0.5 0.6-0.2 0.1-0.5 0.3-0.6 0.3-0.2 0.1-0.4 0.1-0.4 0.1 0 0 0-0.2 0.1-0.5 0.1-0.2 0.2-0.5 0.2-0.6 0.1-0.1 0.3-0.3 0.4-0.4q0.3-0.1 0.6-0.1zm17 11.5q0.2-0.1 0.2 0.2c0 0.1-0.1 0.3-0.1 0.4-0.1 0.1-0.1 0.1 0.2 0 0.1-0.1 0.4-0.1 0.6-0.2 0.3 0 0.3 0 0.3 0.2 0 0.1 0 0.3-0.3 0.6h0.2c0.1 0 0.3-0.1 0.4-0.2 0.1 0 0.4-0.2 0.6-0.4 0.2-0.2 0.3-0.2 0.4-0.2q0 0.1 0 0.3c0 0.1-0.1 0.3-0.2 0.4-0.1 0.2-0.2 0.3-0.1 0.3 0 0 0.2 0 0.4-0.1 0.3-0.1 0.5-0.2 0.6-0.2q0 0 0 0.3c0 0.1 0 0.2 0.2 0.2 0.1 0 0.1 0 0.1 0.1 0.1 0 0 0.2-0.1 0.5-0.1 0.2-0.2 0.6-0.2 0.9 0 0.2 0 0.5 0 0.5q0 0 0 0.1c0 0.1-0.1 0.3-0.3 0.4-0.1 0.2-0.5 0.6-0.7 0.8-0.2 0.3-0.5 0.6-0.7 0.7-0.1 0.1-0.4 0.3-0.6 0.4-0.2 0.2-0.7 0.7-1.1 1.2-0.3 0.5-0.7 0.9-0.8 1-0.1 0.2-0.4 0.3-0.6 0.4-0.2 0.1-0.6 0.5-0.9 0.8q-0.5 0.4-1.2 1.2l0.4-0.2c0.2-0.1 0.7-0.4 1.1-0.6 0.4-0.3 1-0.8 1.4-1.2 0.4-0.4 1-0.9 1.3-1.1 0.2-0.2 0.7-0.6 0.9-0.9 0.2-0.3 0.6-0.8 0.8-1q0.3-0.5 0.4-0.5c0.1 0 0.2 0 0.3 0.1 0.1 0.2 0.1 0.3 0 0.5 0 0.2-0.1 0.4-0.2 0.5 0 0.2-0.2 0.4-0.4 0.7-0.2 0.2-0.4 0.5-0.4 0.6-0.1 0.1-0.1 0.1 0.2-0.1 0.2-0.1 0.7-0.6 1.1-1 0.4-0.4 1.1-1.2 2.4-2.6v0.3c0.1 0.1 0 0.4-0.1 0.7-0.1 0.2-0.3 0.6-0.4 0.9-0.2 0.2-0.9 1-1.6 1.6-0.6 0.7-1.1 1.2-1.1 1.2 0.1 0 0.2 0 0.3-0.1q0.3-0.2 0.3 0c0.1 0.1 0.1 0.2 0 0.4 0 0.2 0 0.2 0.1 0.2q0.3 0 0.6-0.3c0.4-0.3 0.4-0.3 0.4-0.2 0.1 0.1 0.1 0.2 0.1 0.3 0 0.1-0.1 0.4-0.2 0.6-0.1 0.3-0.2 0.5-0.2 0.5 0 0 0.1 0 0.2-0.1 0.1 0 0.3-0.2 0.4-0.3 0-0.1 0.1-0.2 0.2-0.2 0 0.1 0 0.2 0 0.4 0 0.1 0 0.4-0.1 0.6-0.1 0.1-0.3 0.5-0.4 0.7-0.2 0.2-0.6 0.7-1 1.1-0.3 0.3-0.9 0.8-1.3 1.1-0.3 0.3-1 0.7-1.4 1-0.4 0.3-1.2 0.7-1.7 1-0.5 0.3-1.5 0.8-2.2 1.1-0.7 0.4-2.3 1.1-3.5 1.6q-2.1 1-2.4 1-0.3 0-0.4-0.1c-0.1-0.1-0.2-0.2-0.2-0.3 0 0 0.1-0.1 0.2-0.1 0.1-0.1 0.3-0.2 0.7-0.6h-0.2c-0.2 0-0.3-0.1-0.3-0.1q-0.1-0.1 0.2-0.6c0.2-0.4 0.3-0.6 0.3-0.7 0 0-0.2 0.1-0.4 0.2-0.2 0.1-0.8 0.4-1.2 0.5-0.4 0.1-1.1 0.3-1.5 0.4-0.3 0.1-0.9 0.2-1.2 0.3-0.3 0-1 0.1-1.6 0.2q-0.9 0-2.3 0.1l0.3-0.4c0.3-0.2 0.5-0.3 1.1-0.5 0.4-0.2 0.7-0.3 0.9-0.5q0.3-0.3 0.3-0.3c0 0-0.2 0-0.5 0-0.2 0.1-0.4 0.1-0.5 0.1q-0.1 0.1-0.2-0.3c-0.1-0.2-0.4-0.5-1.1-1.2l0.5-0.5c0.3-0.2 0.7-0.6 1-0.8 0.3-0.1 0.6-0.3 0.6-0.3 0 0-0.1-0.1-0.2-0.1-0.1-0.1-0.2-0.1-0.5 0.2-0.2 0.1-0.6 0.3-0.8 0.3-0.1 0.1-0.4 0.1-0.5 0.1q-0.3 0-0.4-0.1c0-0.1 0-0.3-0.1-0.4 0-0.3 0-0.3 0.4-0.5 0.2-0.1 0.5-0.3 0.8-0.7h-0.2c-0.1 0-0.5 0.2-0.9 0.3-0.6 0.3-0.8 0.4-1.1 0.4-0.2 0-0.4 0-0.4-0.1 0 0 0-0.1 0.1-0.2 0.1-0.1 0.4-0.3 0.8-0.5 0.3-0.2 0.7-0.5 0.9-0.6 0.2-0.2 0.3-0.4 0.3-0.4 0 0-0.6 0.2-1.2 0.5-1.1 0.4-1.2 0.4-1.4 0.3-0.2-0.1-0.2-0.1-0.1-0.2 0-0.1 0.1-0.2 0.2-0.3 0.2-0.1 0.4-0.2 0.5-0.2q0.3-0.2 0.6-0.3c0.1-0.1 0.3-0.3 0.3-0.4 0.1-0.1 0.1-0.1-0.1-0.2-0.1-0.1-0.2 0-0.5 0.2-0.2 0.1-0.4 0.2-0.4 0.2q-0.1 0-0.1-0.2v-0.2c0.1-0.1 0.4-0.3 0.8-0.5 0.3-0.1 0.6-0.3 0.6-0.3 0 0-0.1-0.1-0.1-0.2-0.1-0.1-0.2-0.2-0.2-0.2 0-0.1 0.1-0.2 0.3-0.4 0.1-0.1 0.5-0.3 0.7-0.4q0.4-0.2 0.3-0.4c0 0 0-0.1-0.1-0.1-0.1 0-0.6 0.2-1.2 0.5-0.5 0.3-1 0.5-1.1 0.5q0-0.2 0-0.3 0.1-0.1 0.6-0.4c0.2-0.2 1.5-0.9 2.8-1.5 1.3-0.7 2.8-1.5 3.3-1.8 0.4-0.3 0.8-0.5 0.9-0.5q0 0 0.1 0.1 0.1 0.1 0 0.3c0 0.1-0.1 0.3-0.2 0.4-0.1 0.1-0.4 0.3-0.7 0.5-0.3 0.3-0.6 0.5-0.5 0.5 0 0 0.2-0.1 0.5-0.2 0.3-0.2 0.9-0.4 1.2-0.6 0.4-0.2 0.9-0.5 1.2-0.6 0.3-0.2 0.9-0.3 1.3-0.4 0.4 0 0.9-0.1 1 0 0.3 0 0.4 0 0.7-0.3 0.1-0.2 0.6-0.5 0.9-0.8 0.4-0.2 1.4-0.8 2.4-1.3 0.9-0.6 2-1.2 2.4-1.4 0.4-0.3 0.7-0.5 0.8-0.5 0.1 0 0.2 0 0.2 0zm5.9 0.6q0 0 0 0.3c0 0.1-0.1 0.5-0.3 0.7-0.1 0.3-0.3 0.7-0.4 0.9-0.1 0.2-0.5 0.6-0.7 0.9-0.3 0.2-0.6 0.5-0.6 0.5q-0.1 0-0.1-0.3c0-0.2 0-0.5 0.1-0.6 0.1-0.2 0.2-0.4 0.3-0.5 0.1-0.1 0.2-0.4 0.3-0.6 0.1-0.3 0.3-0.6 0.4-0.7 0.1-0.1 0.4-0.3 0.6-0.4 0.2-0.1 0.4-0.2 0.4-0.2zm-41.5 37.1c0.1 0 0.2 0 0.2 0 0.1 0.1 0.1 0.1 0 0.2 0 0-0.1 0.1-0.2 0.1q-0.2 0.1-0.2-0.1c0-0.1 0.1-0.2 0.1-0.2q0.1 0 0.1 0zm57.2 7.4q0.1 0 0.1 0.1c0 0.1-0.3 0.4-0.5 0.6-0.4 0.4-1 0.9-2.4 1.8-1.3 0.8-2.2 1.4-2.9 1.8-0.6 0.3-1.3 0.6-1.6 0.7-0.3 0.1-0.7 0.2-1.5 0.2l0.1-0.2c0.1-0.1 0.3-0.2 0.4-0.3 0.1-0.1 0.5-0.3 1-0.4 0.4-0.2 0.9-0.4 1.2-0.6 0.3-0.1 0.8-0.4 1.1-0.6 0.3-0.1 1.3-0.8 2.3-1.4 1-0.7 2-1.3 2.3-1.5 0.2-0.1 0.4-0.2 0.4-0.2zm43.7-113.6c-0.1 0.1-0.4 0.3-0.5 0.4-0.1 0.1-0.3 0.4-0.4 0.5-0.1 0.2-0.2 0.5-0.3 0.7-0.1 0.3-0.1 0.6-0.1 0.8v0.3c0.8-1.1 1.1-1.5 1.2-1.6q0.3-0.2 0.6-0.3c0.1 0 0.4-0.1 0.6-0.1q0.3-0.1 0.5-0.4c0.1-0.1 0.2-0.3 0.2-0.3q-0.2-0.2-0.3-0.3c-0.1-0.1-0.2-0.2-0.3-0.2-0.1 0-0.3 0-0.5 0.1-0.2 0.1-0.5 0.2-0.7 0.4z"/></svg>