<svg version="1.2" xmlns="http://www.w3.org/2000/svg" viewBox="0 0 256 256" width="256" height="256"><style>.a{opacity:.5}</style><path fill-rule="evenodd" class="a" d="m80.8 150.9c-4.4 10.3-18 22.7-31.4 22.4 4.6-10.5 2.1-18.1-7.8-25.3 7.8-8.2 4.8-22.7-8.1-30.4 15.5-15.4-3.7-43.4-17.5-56.6 17.4 13 45.5 38.3 55.9 51.1 3.8 4.7 9.7 15.8 9.7 23.6 4.4 0.1 5.8 0.4 6.7 0.1 14.7-4.7 1.2-30.4-5.1-40.4-1.3-2-5.7 3.7-7 7.9-1.1-6.2 3.2-11.9 4.5-12.7 1.6-1 5.6-6.9 12.3-4.7 7.3 2.3 8.4 9.9 20.5 24 2.3 2.7 9.4 3.8 14.4 3.8 5.1 0 12.2-1.1 14.5-3.8 12-14.1 13.2-21.7 20.4-24 6.8-2.2 10.8 3.7 12.4 4.7 1.2 0.8 5.5 6.5 4.5 12.7-1.4-4.2-5.8-9.9-7-7.9-6.4 10-19.8 35.7-5.1 40.4 0.9 0.3 5.3 0.3 9.7 0.2 0.1-7.8 1.9-16.5 6.6-24.3 12.3-20.2 40.9-43.2 55.9-50.7-13.8 13.2-32.9 41.2-17.4 56.6-12.9 7.7-15.9 22.2-8.2 30.4-9.8 7.2-12.4 14.8-7.8 25.3-13.4 0.3-22.6-10.3-27-20.6-0.2-0.5 0.3-1.1 0.1-1.6l-19.7-0.2c-11.9 0-16.1 12.6-31.9 12.6-15.7 0-19.9-12.6-31.9-12.6zm29.9-10.1c0 9.6 7.7 17.4 17.3 17.4 9.6 0 17.3-7.8 17.3-17.4 0-9.5-7.7-17.3-17.3-17.3-9.6 0-17.3 7.8-17.3 17.3z"/></svg>