<svg version="1.2" xmlns="http://www.w3.org/2000/svg" viewBox="0 0 256 256" width="256" height="256">
	<title>33 - Squirtle</title>
	<style>
		.s0 { opacity: .5;fill: #000000 } 
	</style>
	<path id="Shape 1" fill-rule="evenodd" class="s0" d="m73.4 200.6c-24-16.8-44.4-54-16.7-92 31.1-42.6 106-53.4 146.1-54.8 11.8-0.4-52.7 13-54.6 43.8-1.5 25 45.2 47.8 41.5 81.4-5.2 48.3-83.5 44.6-116.3 21.6zm28.7 1.2c11.7 4.7 26.1 3.7 27.4-1.3 1.3-4.8-8.5-13.3-20.5-18-11.6-4.5-25-4.2-27.4 0-2.7 4.5 8.7 14.6 20.5 19.3z"/>
</svg>