<svg version="1.2" xmlns="http://www.w3.org/2000/svg" viewBox="0 0 256 256" width="256" height="256"><style>.a{opacity:.5}</style><path fill-rule="evenodd" class="a" d="m216.2 77.6v100.8l-88.2 43.7-88.2-43.7v-100.8l88.2-43.7zm-162.9 92.6l16.7 8.2v-21.3l8.5 4.4v-11.7l-17.5-9v-11.6l17.5 9v11.6l18 9.3v-11.6l17.5 9.1v11.6l-17.5-9.1v11.7l8.5 4.4v20.5l17.5 8.7v-55l-8.5-4.4v-11.1l-53-27.4v11.1l-7.7-4zm80.2 34.3l43.7-21.7v-9.5l-17.9 8.7v-22.7l-17.8 8.7v11.3l-8 3.9zm-55-31.9l18 9.3v-11.1l-18-9.3z"/></svg>