<svg version="1.2" xmlns="http://www.w3.org/2000/svg" viewBox="0 0 256 256" width="256" height="256"><style>.a{opacity:.5}</style><path fill-rule="evenodd" class="a" d="m199.5 102.2c21.4 46.1 3.6 90.4-35.4 108.6-39 18.2-84.4 3.3-105.8-42.7-21.5-46.1-7.7-107.4 28.1-124.1 35.7-16.6 91.6 12.2 113.1 58.2zm-137-12q-1.4 4.2-2.4 8.6c-4.4 19.3-3.1 41.5 4.4 60.6 17-18.7 21.5-45.9-2-69.2zm63.9 39.8c-18 8.4-25.7 29.7-17.4 47.6 8.4 18 29.7 25.7 47.6 17.4 17.9-8.4 25.7-29.7 17.3-47.6-8.3-18-29.6-25.7-47.5-17.4zm-17-80.1c-11.5 10.1-13.1 26.5-2.5 40.2 12.8 16.3 38.1 22.6 56.6 14 8.1-3.8 13.5-9.8 16-16.7-9.4-11.8-21.5-21.7-34.3-28.3-12-6.2-24.5-9.4-35.8-9.2z"/></svg>