<svg version="1.2" xmlns="http://www.w3.org/2000/svg" viewBox="0 0 256 256" width="256" height="256"><style>.a{opacity:.5}</style><path class="a" d="m86 42c0 0-26.8 13.1-33.7 43.8-3.1 14.1-6.3 35.7 15.5 61.1 13.3 15.4 33.3 25.4 51.1 25.7 41.1 0.6 54.4-13.4 57.1-15.6-2.4 7.3-15.9 21.3-32.5 27.2-23.1 8.3-26.3 6.1-41.6 8.7 7.6 8.6 14.8 17.8 24.1 27.6 42.9-11 66.7-49.8 72.3-65.5 10.1-28 0.5-64.6-14.3-79-14.3-13.9-32.4-19.5-47.8-14.5-19.2 6.2-29.8 26.8-20.2 46.5 4.1 8.3 15.2 13.6 23.5 17.3 3.1-9 3.8-10.8 7.2-19.8-5.6-2.4-14.8-8.4-13.3-15 1.4-5.9 9.8-13.9 22.8-7.4 14.6 7.4 20.9 21 20.9 32.3 0 11.5-13.9 27.3-25.3 30.6-23.8 7.1-54.1-0.9-71.6-20.3-15.5-17.2-13.6-47.8-6.3-65.5 3.3-7.9 12.1-18.2 12.1-18.2z"/></svg>