<svg version="1.2" xmlns="http://www.w3.org/2000/svg" viewBox="0 0 256 256" width="256" height="256"><style>.a{opacity:.5}</style><path fill-rule="evenodd" class="a" d="m121.4 138.2c-20.4-7.5-21.9-38.1-10-54.2 12.5-16.9 39.1-27.9 63.8-20.7-31.3-11.3-61.9-11.7-92.7 23-24.1 27.2-19.7 55.9-3.4 69.8 22.8 19.5 63.8-3.2 55-38 20.4 7.5 21.9 38.1 10 54.2-12.5 16.9-39.1 27.9-63.8 20.7 31.3 11.4 61.9 11.8 92.7-23 24.1-27.2 19.7-55.9 3.4-69.8-22.8-19.5-63.8 3.2-55 38zm66.6-69.2c44.6 26.9 31.7 90.3 7 115-54 54-119.9 19.8-125.5 4.7q0.9 0.3 1.8 0.7-1.9-0.9-3.8-2.1c-44.6-26.9-31.6-90.3-7-115 54-53.9 119.9-19.8 125.5-4.6q-0.9-0.4-1.8-0.8 1.9 1 3.8 2.1z"/></svg>