<svg version="1.2" xmlns="http://www.w3.org/2000/svg" viewBox="0 0 256 256" width="256" height="256"><style>.a{opacity:.5}</style><path fill-rule="evenodd" class="a" d="m128.1 62l17 27h-34.1zm0 54h-33.4c3 5.7 8.5 10.4 16.4 14.2 4.8 2.3 4.4 6.9 3.5 9.9-0.8 2.6-4.6 4.9-7.5 3.9q-1.1-0.3-2-0.7l-5 26.7-16-4 12.3-27.3q-1.9-1.4-3.6-3l-23.7 26.3-15-10 32.3-25.9q-0.9-2.2-1.5-4.5l-43.8 16.4-11-21 53.3-5.5q0-3.1 0.4-5.9l-58.7-7.6-9-28 70.6 26.1c2.7-6 7.1-11 12.1-14.5-7.4 13.8-8.8 25-4.4 33.8l16.7-26.4zm17-27l16.6 26.3c4.4-8.8 2.9-19.9-4.5-33.7 5.1 3.5 9.5 8.5 12.2 14.5l70.6-26.1-9 28-58.7 7.6q0.4 2.8 0.4 5.9l53.3 5.5-11 21-43.8-16.4q-0.6 2.3-1.6 4.5l32.4 25.9-15 10-23.8-26.3q-1.6 1.6-3.5 3l12.3 27.3-16 4-5-26.7q-1 0.4-2 0.7c-2.9 1-6.7-1.3-7.5-3.9-0.9-3-1.3-7.6 3.5-9.9 7.9-3.8 13.4-8.5 16.4-14.2h-33.3zm-29.1 81c-2.1 3.7-3.1 5.3-5.8 9.6 0 0 1.2-0.1 2.4-0.1 1.2 0 2.4 1.2 2.4 2.6 0 2-10 9.9-10 9.9l2-7h-12l3.9 9.5c0 0-13.5-9.4-14.6-11.8-0.7-1.5 0.8-3.1 2.1-3.1 1.6 0 17.5 0 17.5 0 1.2-4.4 4.1-11 5.4-13.7 1.2-2.3 4.1-3.6 6.1-2.2 2.1 1.5 2 3.8 0.6 6.3zm4 4c2.2-3.8 3.5-9.6 3-10.6-2-4.5-6.9-8.4-12.4-9.5 7.8-3.8 9.1-17.3 11.5-19.7 3.6-3.7 4.5-12.5 5.9-13.2 1.4 0.7 2.3 9.5 5.9 13.2 2.4 2.4 3.7 15.9 11.5 19.7-5.6 1.1-10.4 5-12.4 9.5-0.5 1 0.8 6.8 3 10.6-3.5 6.1-6.2 14.3-8 21.6-1.8-7.3-4.5-15.5-8-21.6zm20.6-10.3c2-1.4 4.9-0.1 6.1 2.2 1.3 2.7 4.2 9.3 5.4 13.7 0 0 15.9 0 17.5 0 1.3 0 2.7 1.6 2 3.1-1.1 2.4-14.5 11.8-14.5 11.8l3.9-9.5h-12l2 7c0 0-10-7.9-10-9.9 0-1.4 1.2-2.6 2.4-2.6 1.2 0 2.4 0.1 2.4 0.1-2.7-4.3-3.7-5.9-5.8-9.6-1.4-2.5-1.5-4.8 0.6-6.3z"/></svg>