<svg version="1.2" xmlns="http://www.w3.org/2000/svg" viewBox="0 0 256 256" width="256" height="256"><style>.a{opacity:.5}</style><path class="a" d="m71 149c-18.2 0-33-14.8-33-33 0-18.2 14.8-33 33-33 18.2 0 33 14.8 33 33 0 14.5-9.3 26.8-22.4 31.3l43 33.2-0.2-38c0-5.6-3.9-11.2-11.3-13.9 7.4-2.8 11.6-6.5 11.6-12.6v-9.2c-16.7-1.6-29.7-15.7-29.7-32.8 0-18.2 14.8-33 33-33 18.2 0 33 14.8 33 33 0 17.1-13 31.2-29.7 32.8v9.2c0 6.1 4.2 9.8 11.6 12.6-7.4 2.7-11.3 8.3-11.3 13.9l-0.2 38 43-33.2c-13.1-4.5-22.4-16.8-22.4-31.3 0-18.2 14.8-33 33-33 18.2 0 33 14.8 33 33 0 18.2-14.8 33-33 33q-1.5 0-3-0.1l-50.6 39.1-0.1 20.1c9.4-0.2 29.7-2 46.8-19 5.5-5.5 3.2-12.4 1.2-18.1 11.9 3.8 15.5 2.2 25.7-7.2-6.1 12-7.1 16.4 1.4 22.2-11.8-3-16 0.4-19 3.5-18.7 18.6-37.3 24.6-59.4 24.6-22.1 0-40.7-6-59.4-24.6-3-3.1-7.2-6.5-19-3.5 8.5-5.8 7.5-10.2 1.4-22.2 10.2 9.4 13.8 11 25.7 7.2-2 5.7-4.3 12.6 1.2 18.1 17.1 17 37.4 18.8 46.8 19l-0.1-20.1-50.6-39.1q-1.5 0.1-3 0.1z"/></svg>