<svg version="1.2" xmlns="http://www.w3.org/2000/svg" viewBox="0 0 256 256" width="256" height="256"><style>.a{opacity:.5}</style><path fill-rule="evenodd" class="a" d="m70.5 73.8c-11.1 0-19 12.6-21.1 21.3 35.7 3.8 63.7 37.9 78.6 70.1 14.9-32.2 42.9-66.3 78.6-70.1-2.1-8.7-10-21.3-21.1-21.3-11.7 0-47.2 45.1-57.5 77.4-10.3-32.3-45.8-77.4-57.5-77.4zm41.4 73.6c-10.8 13.2-24.9 26.5-24.9 37.7 0 10 10.9 16.5 20.6 25.3-7.1-1.9-26.5-14-29.2-15.7-6.3-4-11.6-3.1-19.7-3.1 3.5-5.9 7.5-9.8 3.7-17.5-2.7-5.7-22.7-24-22.7-55.8 0-42.7 35-69.8 65-72.3-11.9 5-25.9 14-21.7 23.5 3 6.5 18.3 18.6 34 43.3l11-46.2 11 46.2c15.7-24.7 31-36.8 34-43.3 4.2-9.5-9.8-18.5-21.7-23.5 30 2.5 65 29.6 65 72.3 0 31.8-20 50.1-22.7 55.8-3.8 7.7 0.2 11.6 3.7 17.5-8.1 0-13.4-0.9-19.7 3.1-2.7 1.7-22.1 13.8-29.2 15.7 9.7-8.8 20.6-15.3 20.6-25.3 0-11.2-14.1-24.5-24.9-37.7-6.2 7.5-12 20.7-16.1 33.8-4.1-13.1-9.9-26.3-16.1-33.8zm-65-42.1c-6.7 21.4 11 63.1 28.7 63.4 14.4 0.3 29.1-22 33.6-27.1-18.8-27.2-45.8-36.3-62.3-36.3zm99.9 36.3c4.5 5.1 19.2 27.4 33.6 27.1 17.7-0.3 35.4-42 28.7-63.4-16.5 0-43.5 9.1-62.3 36.3z"/></svg>