<svg version="1.2" xmlns="http://www.w3.org/2000/svg" viewBox="0 0 256 256" width="256" height="256"><style>.a{opacity:.5}</style><path fill-rule="evenodd" class="a" d="m53.9 150.3c-2-19.1-18.5-18.1-28.9-20.6 27.1-8.3 24.5-26.7 26.7-42.1 8.2 22.9 17.3 36.4 38.9 34.3 35.2-3.3 32.5-48.7 37.4-69.9 5 21.2 2.3 66.6 37.5 69.9 21.5 2.1 30.7-11.4 38.9-34.3 2.2 15.4-0.4 33.8 26.6 42.1-10.4 2.5-26.8 1.5-28.9 20.6l-6.3 41.4c0 0-33.2 0.1-63.2 0.1-1.1 0-4.6 12.6-4.6 12.6 0 0-3.5-12.6-4.5-12.6-30 0-63.2-0.1-63.2-0.1zm47.1 18.4c-0.6 2.3 15.1 14.1 20.4 13-0.8-6.5-3.1-11.6-7.6-20.1 5.7 0.4 7.2-2.1 7.2-5.7 0-3.5-0.6-5.4-4.6-9.3 5.2-4 4.6-7.3 4.6-9.9 0-8.7-18.2-14.2-29-11.5-18.5 4.6-38.5 5.6-26.3 52.2 11.9-10.1 24.6-17.3 43.3-13.7 0.6 0.1-7.4 2.4-8 5zm46-5c18.6-3.6 31.3 3.6 43.2 13.7 12.3-46.6-7.7-47.6-26.2-52.2-10.9-2.7-29 2.8-29 11.5 0 2.6-0.7 5.9 4.5 9.9-3.9 3.9-4.6 5.8-4.6 9.3 0 3.6 1.5 6.1 7.2 5.7-4.4 8.5-6.8 13.6-7.6 20.1 5.3 1.1 21-10.7 20.5-13-0.6-2.6-8.6-4.9-8-5z"/></svg>