<svg version="1.2" xmlns="http://www.w3.org/2000/svg" viewBox="0 0 256 256" width="256" height="256"><style>.a{opacity:.5}</style><path fill-rule="evenodd" class="a" d="m108.3 151.8c0 5.1 2.5 15.1 17.1 29.2-13.5-4-22.2-12.7-22.2-12.7-16.6 8.7-6.5 26.1 5.6 39.6-24.7-13.2-35.1-17.1-61.8-3.6 16.9-20.8 19.7-30.9 11-57 12.6 17.4 32.1 16.7 39 9.8 7.5-7.5 7-24.7-11.8-30.9 17.2-5.9 17.5-17.6 11-23.6-10.9-10-27.9-10-48.9-5.9 28.9-14.6 30.1-21.2 21.4-48.7 21 19.1 28.6 28.8 59.3 11.4 30.7 17.4 38.3 7.7 59.3-11.4-8.7 27.5-7.5 34.1 21.4 48.7-21-4.1-38-4.1-48.9 5.9-6.5 6-6.2 17.7 11 23.6-18.8 6.2-19.3 23.4-11.8 30.9 6.9 6.9 26.4 7.6 39-9.8-8.7 26.1-5.9 36.2 11 57-26.7-13.5-37.1-9.6-61.8 3.6 12.1-13.5 22.2-30.9 5.6-39.6 0 0-8.7 8.7-22.2 12.7 14.6-14.1 17.1-24.1 17.1-29.2 0-7.3-10.1-25.4-19.7-25.4-9.6 0-19.7 18.1-19.7 25.4zm-5.3-60.8c0 24.3 18.4 30.3 25 30.3 6.6 0 25-6 25-30.3 0-10-17.8-22-25-22-7.2 0-25 12-25 22z"/></svg>