<svg version="1.2" xmlns="http://www.w3.org/2000/svg" viewBox="0 0 256 256" width="256" height="256"><style>.a{opacity:.5}</style><path fill-rule="evenodd" class="a" d="m50.5 154c-1.4 0-2.5-1.1-2.5-2.5v-47c0-1.4 1.1-2.5 2.5-2.5h49c1.4 0 2.5-1.1 2.5-2.5v-49c0-1.4 1.1-2.5 2.5-2.5h47c1.4 0 2.5 1.1 2.5 2.5v49c0 1.4 1.1 2.5 2.5 2.5h49c1.4 0 2.5 1.1 2.5 2.5v47c0 1.4-1.1 2.5-2.5 2.5h-49c-1.4 0-2.5 1.1-2.5 2.5v49c0 1.4-1.1 2.5-2.5 2.5h-47c-1.4 0-2.5-1.1-2.5-2.5v-49c0-1.4-1.1-2.5-2.5-2.5zm96.5-26c0-10.5-8.5-19-19-19-10.5 0-19 8.5-19 19 0 10.5 8.5 19 19 19 10.5 0 19-8.5 19-19zm-19 15c-8.3 0-15-6.7-15-15 0-8.3 6.7-15 15-15 8.3 0 15 6.7 15 15 0 8.3-6.7 15-15 15zm-44 0v-29l-20.5 12.4c-1.6 0.9-1.6 3.3 0 4.2zm29-59h29l-12.3-20.4c-1-1.6-3.3-1.6-4.3 0zm59 29v29l20.5-12.4c1.6-1 1.6-3.3 0-4.3zm-29 59h-29l12.3 20.5c1 1.6 3.3 1.6 4.3 0z"/></svg>