<svg version="1.2" xmlns="http://www.w3.org/2000/svg" viewBox="0 0 256 256" width="256" height="256"><style>.a{opacity:.5}</style><path fill-rule="evenodd" class="a" d="m131.2 218.4c-8.2-27-5.5-33.4-11.9-43.7 6.1-1.5 5.4-6.5 1.9-14.4-1.4-3 1.3-5.5-0.5-13.3 0.9-5.4 6.5-23.1 6.5-25.5 0-1.6-3.3-8.3-3.5-18.5-0.2-4.9-0.1-18.1 1.7-20.4 2-2.7 8-19 12.1-24.2 5.6-7.2 17.2-14.7 25.2-18.4-5.5 23.2 8.3 16.6 15.3 9.8 2.8-2.8 4.9-2.7 9.9-2.4-4.9 10-19.8 35.2-18.2 37.6 3 4.7 12.3 15.1 20 30-12.2 1-25.4-7.6-28-5-1.7 1.7-9.1 30-11.5 33.1-2.3 3.1-5.5 3.1-8.5 3.9-0.8 32.3-2.2 47.2-4.4 48.5-2.8 1.8-5.7 15.2-6.1 22.9zm-2.2-151.6c-3.8 9.2-6.1 12.8-7.9 15.4-0.8 1.2-1.6 18.2-0.6 25.1 1.3 8.1 2.3 12.1 2.9 14.7 0.4 1.7-2.8 9.3-5.7 18-5.1 5-8 11.7-4 13 1 0.3-2.3 2.8-3 2-2.6-3 0.3-18.6-7-26 0.4-5.4-0.4-10-1.7-14.1-2.1 2.3-5.8 4.6-5.8 6.7 0 2.8 11 6.1 6.3 10.8-3.4 3.4-6.6-4.6-12-4.6-4.7 0-8.6 7.4-12.1 7.5 3.7 7.1 9.2 11.7 15 10.8 6.7-1 5-13 9.1-12.2 2.5 0.5-1 8.5 3.3 12.8 1.7 1.7-0.8 25.5-2.6 26.1-3.8 1.3-1.9-28.1-9.5-20.8-3.4 3.2-20.8-12.9-26.2-29.7-2.2-7-2.6-23 3.2-25.3-3.4 12.1-0.2 13.6 3.9 13.1-1.2 6.7-0.4 13.8 1.6 20 2-3.5 7.3-7.1 7.3-8.5 0-1.8-10.9-9.2-7.1-13.1 3.2-3.2 8.6 6.5 12.3 6.5 5 0 7.6-5.4 10.6-6.1-2.7-5-6.1-9.1-9.2-13.1-3-3.9 5.6-8.7 6.6-10.8 0.7-1.5-4.1-12 6.4-21.9 0.8-10.5 11.2-17.1 33.6-17.1-3.2 6.4-3.6 11-7.7 20.8zm-15.2 99.2c-3.1 1-4.1 4.7-6.1 3-1.5-1.3 1.4-9.4 5.3-10 4.7-0.8 6.8 4.3 5.7 6-0.7 1-2.5 0.2-4.9 1zm-4.1 12c1.6-0.1 8.3 5.2 8.7 12.8 0.2 3.2-1.7 7.6-4.7 6.2-3.2-1.5 4.7-5.3-4-19zm-21.9-90.9c-0.7 2.4-1.3 12-2.8 12.1-1.6 0.2-2.2-13-0.3-14.2 0.7-0.5 3.5 0.9 3.1 2.1zm6.1-29.2c-0.6-1.4 2.6-1.8 4.6 0.4 1.6 1.7 1.6 3.2-0.2 3.5-1.4 0.3-0.4 0.7-2 1.8-1.7 1.1-1.4-3-2.4-5.7z"/></svg>