<svg version="1.2" xmlns="http://www.w3.org/2000/svg" viewBox="0 0 256 256" width="256" height="256"><style>.a{opacity:.5}</style><path fill-rule="evenodd" class="a" d="m118.6 153.6c4.7 10.7 9.4 30.5 9.4 44.4 0-13.9 4.7-33.7 9.4-44.4q-4.6-0.6-9.4-0.6-4.8 0-9.4 0.6zm6.1 65.4c-0.9-27.3-5.3-48.8-17.1-63.1-17.1 4.8-31.5 15-44.3 24.7 22.9-26.2 34.1-53.6-7.3-101.6 4.6 2.3 10.1 6.8 15.7 12.9 48.5-5.8 48.4-6.4 56.3-59.9 7.9 53.5 7.8 54.1 56.3 59.9 5.6-6.1 11.1-10.6 15.7-12.9-41.4 48-30.2 75.4-7.3 101.6-12.8-9.7-27.2-19.9-44.3-24.7-11.8 14.3-16.2 35.8-17.1 63.1zm-31.4-94.1c9 5.3 14.5 10.6 20.5 21.1 5.2-0.6 7.8-1.1 13.1-1.1-6.4-42.6-8.5-46.5-54.5-52.1 7.5 8.3 15 19.4 20.9 32.1zm90.1-32.1c-46 5.6-48.1 9.5-54.5 52.1 5.3 0 8 0.5 13.1 1.1 6-10.5 11.5-15.8 20.5-21.1 5.9-12.7 13.4-23.8 20.9-32.1z"/></svg>