<svg version="1.2" xmlns="http://www.w3.org/2000/svg" viewBox="0 0 256 256" width="256" height="256"><style>.a{opacity:.5}</style><path fill-rule="evenodd" class="a" d="m39 152.9c0-15.2 9.8-40.3 35-48.9 58-19.9 37.2-66 54-66 16.8 0-4 46.1 54 66 25.2 8.6 35 33.7 35 48.9 0 33.7-22.6 56.3-89 56.3-66.4 0-89-22.6-89-56.3zm49.8 16.8c-5.8-3.9-10.8 4.8-6.3 9.5 9.6 9.9 31.3 14.5 45.5 14.5 14.2 0 35.9-4.6 45.5-14.5 4.5-4.7-0.5-13.4-6.3-9.5-13.8 9.2-23 13.5-39.2 13.5-16.2 0-25.4-4.3-39.2-13.5zm34.4-20.7c0-9.5-7.7-17.2-17.2-17.2-9.5 0-17.1 7.7-17.1 17.2 0 9.5 7.6 17.2 17.1 17.2 9.5 0 17.2-7.7 17.2-17.2zm-17.2 6c-3.3 0-6-2.7-6-6 0-3.3 2.7-6 6-6 3.4 0 6.1 2.7 6.1 6 0 3.3-2.7 6-6.1 6zm44 11.2c9.5 0 17.1-7.7 17.1-17.2 0-9.5-7.6-17.2-17.1-17.2-9.5 0-17.2 7.7-17.2 17.2 0 9.5 7.7 17.2 17.2 17.2zm-6.1-17.2c0-3.3 2.7-6 6.1-6 3.3 0 6 2.7 6 6 0 3.3-2.7 6-6 6-3.4 0-6.1-2.7-6.1-6z"/></svg>