<svg version="1.2" xmlns="http://www.w3.org/2000/svg" viewBox="0 0 256 256" width="256" height="256"><style>.a{opacity:.5}</style><path fill-rule="evenodd" class="a" d="m91 173.9l30-28-19-21.5 19.1-17.3-16.8-17.1c0 0-7 7.5-13.7 14.1-2.7 2.8-2.7 6.2 0.9 10.9-6.5-3.9-11.3-3.7-17.4-0.2 3.7-5.2 2.6-11.3-1.5-16.1 4.5 2.2 7.3 2.4 10-0.3 7.5-7.5 14.4-15.5 14.4-15.5-6.9-6.8-11-8-11-8 0 0-35.9 30.5-36.3 33.2-0.7 4.2 2.5 11.6 17.2 28.4-23.5-16.5-23.9-16.3-37.1-17 4.2-5.3 4.4-14.2 1-19.6 4 2.2 7.3 3.1 11.8 1.9 1-0.3 42.4-38.7 42.4-38.7l17.3 13.9 25.7-27 25.7 27 17.3-13.9c0 0 41.4 38.4 42.4 38.7 4.5 1.2 7.8 0.3 11.8-1.9-3.4 5.4-3.2 14.3 1 19.6-13.2 0.7-13.6 0.5-37.1 17 14.7-16.8 17.9-24.2 17.2-28.4-0.4-2.7-36.3-33.2-36.3-33.2 0 0-4.1 1.2-11 8 0 0 6.9 8 14.4 15.5 2.7 2.7 5.5 2.5 10 0.3-4.1 4.8-5.2 10.9-1.5 16.1-6.1-3.5-10.9-3.7-17.4 0.2 3.6-4.7 3.6-8.1 0.9-10.9-6.7-6.6-13.7-14.1-13.7-14.1l-16.8 17.1 19.1 17.3-19 21.5 30 28-37 36.8zm24-49.4l13 12.7 13-12.7-13-10.6zm-8 51.4l21 27.7 21-27.7-21-21.6z"/></svg>