<svg version="1.2" xmlns="http://www.w3.org/2000/svg" viewBox="0 0 256 256" width="256" height="256"><style>.a{opacity:.5}</style><path fill-rule="evenodd" class="a" d="m91 169.6c-3.6 3.2-15.6 13.3-23.2 24.4 1.9 7 22 3.7 43.2-6l0.2-9.9-4.7-4.1 0.1-11.6-6.1-1.4-6.8-7.1c-1.5-5.5-1.2-17.9 1.2-21.9h5.1l5.9-5h-30l10.1-11.3 69 0.3v-5.9l-9-0.1v-8h27v-17.9l10-0.1 0.1-8 22.9-22c-5.8 24.9-29 64.7-53.1 96.7-0.9-10-8.5-5.5-13.1-0.8-3 3-4.7 13.6 3.6 13-3.6 6.2-8.9 12.1-15.4 16.9v-29.4l-8.7 7.9-0.2 38.1c-1.1 5.5-5 6-8.1 8.1v-6.5c-17 7-43.2 13.2-58.2 3.4l-3.8-15 14.7-0.4c8.6-6 14.7-14.1 22.9-22.5 1.1-1.1-0.1-3.9 1.5-4.8 3.1-1.7 3.9 1.7 5.4 2.9 1.4 1.1 4.3 1.9 3.4 4.4-0.3 3.3-4.5 2.4-5.9 3.6zm2-59.6l9-8h37v8zm16-14l10-7h28.9v7zm92.5-46.3l-24.7 22.8v5.5h-10.7v18h-11.1v-13h-25c3.5-4.2 53.2-31.8 71.5-33.3zm-100 96.8l7 6.9 2.6-2.6 2.8 0.2 1.8-1.8-0.2-2.8 11.5-11.4-7-7-11.5 11.4-2.8-0.1-1.7 1.7 0.1 2.8z"/></svg>