<svg version="1.2" xmlns="http://www.w3.org/2000/svg" viewBox="0 0 256 256" width="256" height="256"><style>.a{opacity:.5}</style><path fill-rule="evenodd" class="a" d="m63 181.9c0 3.1 1.1 6 3.2 8l0.2-0.1c2 2 4.9 3.1 8 3.1-3.4 3.5-6.6 0.9-8.2 2.5-1.6 1.7 1.1 4.5-3.9 9.5 0.2-2.5 1.2-5.2-0.4-7.9 0 0-4.2 3-5.3 2.5l-0.1 0.2c-0.6-1.1 2.4-5.3 2.4-5.3-2.7-1.6-5.3-0.6-7.9-0.4 5-5 7.9-2.3 9.5-3.9 1.6-1.6-0.9-4.8 2.5-8.2zm32-24.8c0.1-3.7 0.4-5.4 2.6-5.4 0.9 0 2.6 1.3 4 2.8l0.2-0.2c1.5 1.4 2.7 3.1 2.7 4 0 2.2-1.6 2.5-5.3 2.6 0 0-12.6 10.2-27 27.9-1.2 0.1-2.5-0.5-3.4-1.5l-0.2 0.2c-0.9-0.9-1.5-2.2-1.5-3.4 17.7-14.4 27.9-27 27.9-27zm1.1-9l-8 8-17-4zm7-6l-26 5 23-16-4 9 14-8-5-3 55.8-33.9 0.2-0.2-33.9 55.8-3-5-8 14 9-4-16 23 5-26c-2.3 2.5-7.8 3.1-10.9 0l-0.2 0.2c-3.1-3.1-2.5-8.6 0-10.9zm43.3-32.4c-5.8 4.5-7.1 6.5-11.4 3.9 1.7 4.7 0.9 5.8-1.6 9.1l0.2-0.2c3.3-2.5 4.4-3.3 9.1-1.6-2.6-4.3-0.6-5.6 3.9-11.4zm-27.3 27.3l-2-1.9-6 6h-3l-2 2v3l-2 2 2 1.9 0.2-0.2 1.9 2 2-2h3l2-2v-3l6-6-1.9-2zm-12-10.9v-7l8-5v7zm10.5-6.8v-7l8-5v7zm10.5-6.5v-7l8-5v7zm10.7-6.7v-7l8-5v7zm13.3-11v-2l7-5v2zm22-21l-72.9 45.3-12.2-1.1 115.9-67.1 0.2-0.2-67.1 115.9-1.1-12.2 45.3-72.9-18.8 10.9-0.2 0.2zm-69.9 110.7l-4-17 8-8zm31-44h7l-5 8h-7zm6.8-10.5h7l-5 8h-7zm6.6-10.5h7l-5 8h-7zm6.6-10.7h7l-5 8h-7zm11-12.3h2l-5 7h-2z"/></svg>